<?xml version="1.0" standalone="no"?>
<!DOCTYPE svg PUBLIC "-//W3C//DTD SVG 1.1//EN" "http://www.w3.org/Graphics/SVG/1.1/DTD/svg11.dtd" >
<svg xmlns="http://www.w3.org/2000/svg" xmlns:xlink="http://www.w3.org/1999/xlink" version="1.1">
<metadata>
Created by FontForge 20170731 at Wed Nov 25 14:54:23 2015
 By Aleksey,,,
Copyright (c) 2015 by Pascal Zoghbi. All rights reserved.
</metadata>
<defs>
<font id="ExpoArabic-Book" horiz-adv-x="0" >
  <font-face 
    font-family="Expo Arabic Book"
    font-weight="400"
    font-stretch="normal"
    units-per-em="1000"
    panose-1="0 0 5 0 0 0 0 0 0 0"
    ascent="750"
    descent="-250"
    x-height="500"
    cap-height="687"
    bbox="-191 -488 1372 1103"
    underline-thickness="37"
    underline-position="-186"
    unicode-range="U+0020-FEFC"
  />
<missing-glyph horiz-adv-x="292" 
 />
    <glyph glyph-name="uniFEF5" unicode="&#xfedf;&#xfe82;" horiz-adv-x="661" arabic-form="isolated" 
d="M575 730v-530q0 -200 -211 -200h-1h-330l-16 90h237l-100 488l84 21l96 -509h29h1v0q64 0 95 32t31 98v497zM160.5 745.5q12.5 -4.5 33.5 -13.5q36 -19 63 -19q18 0 40 6.5t38 17.5l-1 -59q-37 -23 -77 -23q-17 0 -31.5 5t-32.5 15q-32 17 -53 17q-20 0 -32 -10t-15 -29
h-49q2 44 25.5 70.5t63.5 26.5q15 0 27.5 -4.5z" />
    <glyph glyph-name="uniFEF6" unicode="&#xfee0;&#xfe82;" horiz-adv-x="693" arabic-form="final" 
d="M703 10q0 -10 -10 -10q-107 0 -161 52q-47 -23 -120.5 -37.5t-131.5 -14.5h-247l-16 90h237l-100 488l84 21l95 -507q85 6 161 27q-11 38 -11 81l-1 517l85 13v-510q0 -66 31 -98t94 -32q10 0 10 -9zM160.5 745.5q12.5 -4.5 33.5 -13.5q36 -19 63 -19q18 0 40 6.5
t38 17.5l-1 -59q-37 -23 -77 -23q-17 0 -31.5 5t-32.5 15q-32 17 -53 17q-20 0 -32 -10t-15 -29h-49q2 44 25.5 70.5t63.5 26.5q15 0 27.5 -4.5z" />
    <glyph glyph-name="uniFEF7" unicode="&#xfedf;&#xfe84;" horiz-adv-x="661" arabic-form="isolated" 
d="M575 730v-530q0 -200 -211 -200h-1h-330l-16 90h237l-100 488l84 21l96 -509h29h1v0q64 0 95 32t31 98v497zM297 717l-13 -57h-226v57h54q-16 26 -16 58q0 37 25.5 61.5t65.5 24.5q34 0 77 -19v-49q-35 15 -64 15q-22 0 -36 -12.5t-14 -31.5q0 -27 17 -47h130z" />
    <glyph glyph-name="uniFEF8" unicode="&#xfee0;&#xfe84;" horiz-adv-x="693" arabic-form="final" 
d="M703 10q0 -10 -10 -10q-107 0 -161 52q-47 -23 -120.5 -37.5t-131.5 -14.5h-247l-16 90h237l-100 488l84 21l95 -507q85 6 161 27q-11 38 -11 81l-1 517l85 13v-510q0 -66 31 -98t94 -32q10 0 10 -9zM297 717l-13 -57h-226v57h54q-16 26 -16 58q0 37 25.5 61.5t65.5 24.5
q34 0 77 -19v-49q-35 15 -64 15q-22 0 -36 -12.5t-14 -31.5q0 -27 17 -47h130z" />
    <glyph glyph-name="uniFEF9" unicode="&#xfedf;&#xfe88;" horiz-adv-x="661" arabic-form="isolated" 
d="M575 730v-530q0 -200 -211 -200h-1h-330l-16 90h237l-100 488l84 21l96 -509h29h1v0q64 0 95 32t31 98v497zM419 -197l-13 -57h-226v57h55q-16 26 -16 58q0 37 25.5 61.5t64.5 24.5q35 0 78 -19v-49q-35 15 -64 15q-22 0 -36 -12t-14 -32q0 -29 17 -47h129z" />
    <glyph glyph-name="uniFEFA" unicode="&#xfee0;&#xfe88;" horiz-adv-x="693" arabic-form="final" 
d="M703 10q0 -10 -10 -10q-107 0 -161 52q-47 -23 -120.5 -37.5t-131.5 -14.5h-247l-16 90h237l-100 488l84 21l95 -507q85 6 161 27q-11 38 -11 81l-1 517l85 13v-510q0 -66 31 -98t94 -32q10 0 10 -9zM416 -199l-13 -57h-226v57h55q-16 26 -16 58q0 37 25.5 61.5
t64.5 24.5q35 0 78 -19v-49q-35 15 -64 15q-22 0 -36 -12t-14 -32q0 -29 17 -47h129z" />
    <glyph glyph-name="uniFEFB" unicode="&#xfedf;&#xfe8e;" horiz-adv-x="661" arabic-form="isolated" 
d="M575 730v-530q0 -200 -211 -200h-1h-330l-16 90h237l-100 488l84 21l96 -509h29h1v0q64 0 95 32t31 98v497z" />
    <glyph glyph-name="uniFEFC" unicode="&#xfee0;&#xfe8e;" horiz-adv-x="693" arabic-form="final" 
d="M703 10q0 -10 -10 -10q-107 0 -161 52q-47 -23 -120.5 -37.5t-131.5 -14.5h-247l-16 90h237l-100 488l84 21l95 -507q85 6 161 27q-11 38 -11 81l-1 517l85 13v-510q0 -66 31 -98t94 -32q10 0 10 -9z" />
    <glyph glyph-name="uni066E.init" unicode="&#x66e;" horiz-adv-x="278" 
d="M-10 10l1 71q0 9 10 9q61 0 93.5 31.5t32.5 93.5l-1 268l85 14v-305q0 -92 -53.5 -142t-157.5 -50q-10 0 -10 10z" />
    <glyph glyph-name="uni066E.medi" unicode="&#x66e;" horiz-adv-x="331" 
d="M341 81v-71q0 -10 -10 -10q-85 0 -159 65q-53 -65 -172 -65q-10 0 -10 10l1 71q0 9 10 9q61 0 93.5 31.5t32.5 93.5l-1 162l85 13v-198q0 -35 -7 -60q62 -42 127 -42q10 0 10 -9z" />
    <glyph glyph-name="uni066E.fina" unicode="&#x66e;" horiz-adv-x="870" 
d="M880 81v-71q0 -10 -10 -10q-85 0 -159 65q-51 -62 -161 -65h-2h-260q-120 0 -182.5 56t-62.5 166q0 83 30 218l74 -10q-13 -66 -18.5 -108t-5.5 -77q0 -79 46 -117t139 -38h231q126 0 126 125v162l85 13v-198q0 -35 -7 -60q31 -21 61.5 -31.5t65.5 -10.5q10 0 10 -9z" />
    <glyph glyph-name="uni066F.fina" unicode="&#x66f;" horiz-adv-x="769" 
d="M779 81v-71q0 -10 -10 -10h-63q-17 -104 -106.5 -159.5t-250.5 -55.5q-90 0 -159 29.5t-108 87.5t-39 142q0 107 44 241l69 -19q-35 -103 -35 -200q1 -99 66.5 -151t181.5 -52q106 0 171.5 35.5t82.5 101.5h-122q-67 0 -118.5 28t-79.5 80t-28 122q0 71 29 127t80 87
t115 31q62 0 109.5 -28t74.5 -79t27 -118v-160h59q10 0 10 -9zM396 125q43 -38 116 -38q32 0 114 2l-1 154q0 66 -38 105t-100 39q-60 0 -97 -42t-37 -111q0 -71 43 -109z" />
    <glyph glyph-name="uni06A1.init" unicode="&#x6a1;" horiz-adv-x="542" 
d="M388 455q52 -30 81.5 -82.5t29.5 -116.5q0 -120 -74.5 -188t-205.5 -68h-219q-10 0 -10 10v71q0 9 10 9h86q-45 93 -45 162q0 67 30 120t82.5 83t119.5 30q63 0 115 -30zM363 133q51 43 51 120q0 64 -41.5 105.5t-104.5 41.5q-40 0 -73 -20.5t-52 -55t-19 -73.5
q0 -72 50 -161h52q86 0 137 43z" />
    <glyph glyph-name="uni06A1.medi" unicode="&#x6a1;" horiz-adv-x="563" 
d="M573 81v-71q0 -10 -10 -10q-148 0 -275 37q-114 -37 -288 -37q-10 1 -10 10v71q0 9 10 9q87 0 156 6q-44 33 -68 78t-24 99q0 60 28.5 108.5t79 76t112.5 27.5q64 0 114 -28.5t78 -77t28 -106.5q0 -107 -92 -175q59 -8 151 -8q10 0 10 -9zM184.5 362.5
q-37.5 -38.5 -37.5 -98.5q0 -53 37 -96t99 -61q64 21 101.5 63t37.5 94q0 60 -40.5 98.5t-100.5 38.5q-59 0 -96.5 -38.5z" />
    <glyph glyph-name="uni06A1.fina" unicode="&#x6a1;" horiz-adv-x="973" 
d="M986 81v-71q0 -10 -10 -10q-152 0 -275 36q-109 -34 -277 -36h-1h-136q-119 0 -181.5 55t-62.5 162q0 73 21 171l75 -10q-16 -89 -16 -137q0 -78 46 -114.5t138 -36.5h106q101 0 157 6q-44 33 -68 77.5t-24 99.5q0 60 28.5 108.5t78.5 76t112 27.5q64 0 114 -28.5
t78.5 -77t28.5 -106.5q0 -54 -24 -98t-69 -77q59 -8 151 -8q10 0 10 -9zM598 362.5q-38 -38.5 -38 -98.5q0 -54 37 -96.5t99 -61.5q65 22 102 64t37 94q0 60 -40 98.5t-100 38.5q-59 0 -97 -38.5z" />
    <glyph glyph-name="uniFB6B" unicode="&#x6a4;" horiz-adv-x="973" arabic-form="final" 
d="M705 715l-53 52l52 53l53 -53zM622 572l-74 73l73 72l73 -72zM713 645l74 72l73 -72l-73 -73zM986 81v-71q0 -10 -10 -10q-152 0 -275 36q-109 -34 -276 -36h-1h-137q-119 0 -181.5 55t-62.5 162q0 68 22 171l74 -10q-16 -89 -16 -137q0 -78 46 -114.5t138 -36.5h106
q101 0 157 6q-45 33 -69 78t-24 99q0 60 28.5 108.5t79 76t112.5 27.5q64 0 114 -28.5t78 -77t28 -106.5q0 -53 -24 -97.5t-68 -77.5q59 -8 151 -8q10 0 10 -9zM597.5 362.5q-37.5 -38.5 -37.5 -98.5q0 -54 36.5 -96.5t99.5 -61.5q65 22 102 64t37 94q0 60 -40.5 98.5
t-100.5 38.5q-59 0 -96.5 -38.5z" />
    <glyph glyph-name="uniFB6C" unicode="&#x6a4;" horiz-adv-x="542" arabic-form="initial" 
d="M388 455q52 -30 81.5 -82.5t29.5 -116.5q0 -120 -74.5 -188t-205.5 -68h-219q-10 0 -10 10v71q0 9 10 9h86q-45 93 -45 162q0 67 30 120t82.5 83t119.5 30q63 0 115 -30zM363 133q51 43 51 120q0 64 -41.5 105.5t-104.5 41.5q-40 0 -73 -20.5t-52 -55t-19 -73.5
q0 -72 50 -161h52q86 0 137 43zM214 767l52 53l53 -53l-52 -52zM110 645l73 72l73 -72l-72 -73zM275 645l74 72l73 -72l-73 -73z" />
    <glyph glyph-name="uniFB6D" unicode="&#x6a4;" horiz-adv-x="563" arabic-form="medial" 
d="M573 81v-71q0 -10 -10 -10q-148 0 -275 37q-114 -37 -288 -37q-10 1 -10 10v71q0 9 10 9q87 0 156 6q-44 33 -68 78t-24 99q0 60 28.5 108.5t79 76t112.5 27.5q64 0 114 -28.5t78 -77t28 -106.5q0 -107 -92 -175q59 -8 151 -8q10 0 10 -9zM184.5 362.5
q-37.5 -38.5 -37.5 -98.5q0 -53 37 -96t99 -61q64 21 101.5 63t37.5 94q0 60 -40.5 98.5t-100.5 38.5q-59 0 -96.5 -38.5zM230 767l52 53l53 -53l-52 -52zM126 645l73 72l73 -72l-72 -73zM291 645l74 72l73 -72l-73 -73z" />
    <glyph glyph-name="uniFB9F" unicode="&#x6ba;" horiz-adv-x="717" arabic-form="final" 
d="M727 81v-71q0 -10 -10 -10q-38 0 -67.5 15t-48.5 44q-9 -128 -79 -201t-206 -73q-126 0 -199.5 65.5t-73.5 193.5q0 107 44 241l69 -19q-35 -103 -35 -200q1 -94 53 -142.5t147 -48.5q100 0 148.5 56.5t48.5 174.5v377l84 14v-288l1 -8q5 -63 36 -87t78 -24q10 0 10 -9z
" />
    <glyph glyph-name="uniFE82" unicode="&#x622;" horiz-adv-x="297" arabic-form="final" 
d="M139 50q-52 50 -52 150l-1 390l85 13v-383q0 -66 31 -98t94 -32q10 0 10 -9l1 -71q0 -10 -10 -10q-106 0 -158 50zM94.5 756.5q12.5 -4.5 33.5 -13.5q36 -19 63 -19q18 0 40 6.5t38 17.5l-1 -59q-37 -23 -77 -23q-17 0 -31.5 5t-32.5 15q-32 17 -53 17q-20 0 -32 -10
t-15 -29h-49q2 44 25.5 70.5t63.5 26.5q15 0 27.5 -4.5z" />
    <glyph glyph-name="uniFE84" unicode="&#x623;" horiz-adv-x="297" arabic-form="final" 
d="M139 50q-52 50 -52 150l-1 390l85 13v-383q0 -66 31 -98t94 -32q10 0 10 -9l1 -71q0 -10 -10 -10q-106 0 -158 50zM252 713l-13 -57h-226v57h54q-16 26 -16 58q0 37 25.5 61.5t65.5 24.5q34 0 77 -19v-49q-35 15 -64 15q-22 0 -36 -12.5t-14 -31.5q0 -27 17 -47h130z" />
    <glyph glyph-name="uniFE86" unicode="&#x624;" horiz-adv-x="541" arabic-form="final" 
d="M551 81v-71q0 -10 -10 -10h-59q-18 -215 -372 -215l-10 73q139 0 213 34t84 108h-120q-70 0 -123 29t-82 82.5t-29 126.5q0 71 30 126t82.5 86t118.5 31q61 0 108.5 -28t74 -78.5t26.5 -117.5v-167h58q10 0 10 -9zM167 127q45 -40 121 -40q32 0 110 2v161
q0 65 -36.5 104.5t-95.5 39.5q-62 0 -103 -42t-41 -110q0 -75 45 -115zM397 637l-20 -67h-237v67h61q-19 29 -19 62q0 44 29.5 71.5t76.5 27.5q37 0 77 -20v-61q-44 15 -68 15q-26 0 -41.5 -13t-15.5 -35q0 -25 19 -47h138z" />
    <glyph glyph-name="uniFE88" unicode="&#x625;" horiz-adv-x="297" arabic-form="final" 
d="M139 50q-52 50 -52 150l-1 517l85 13v-510q0 -66 31 -98t94 -32q10 0 10 -9l1 -71q0 -10 -10 -10q-106 0 -158 50zM252 -196l-13 -57h-226v57h55q-16 26 -16 58q0 37 25.5 61.5t64.5 24.5q35 0 78 -19v-49q-35 15 -64 15q-22 0 -36 -12t-14 -32q0 -29 17 -47h129z" />
    <glyph glyph-name="uniFE8A" unicode="&#x626;" horiz-adv-x="1014" arabic-form="final" 
d="M1024 81v-71q0 -10 -10 -10h-203v386h-81q-61 0 -94.5 -31.5t-33.5 -92.5v-182q0 -96 -26 -160.5t-89 -99.5t-171 -35q-126 0 -199.5 65.5t-73.5 193.5q0 107 44 241l69 -19q-35 -103 -35 -200q1 -94 53 -142.5t147 -48.5q73 0 116 20.5t62 67t19 126.5v188
q0 92 51.5 145.5t148.5 53.5h120l58 -51v-335h118q10 0 10 -9zM274 433l-20 -67h-237v67h61q-19 29 -19 62q0 44 29.5 71.5t76.5 27.5q37 0 77 -20v-61q-44 15 -68 15q-26 0 -41.5 -13t-15.5 -35q0 -25 19 -47h138z" />
    <glyph glyph-name="uniFE8B" unicode="&#x626;" horiz-adv-x="353" arabic-form="initial" 
d="M-10 10l1 71q0 9 10 9h76q61 0 93 31.5t32 93.5v268l84 14v-305q0 -92 -53 -142t-157 -50h-76q-10 0 -10 10zM348 625l-20 -67h-237v67h61q-19 29 -19 62q0 44 29.5 71.5t76.5 27.5q37 0 77 -20v-61q-44 15 -68 15q-26 0 -41.5 -13t-15.5 -35q0 -25 19 -47h138z" />
    <glyph glyph-name="uniFE8C" unicode="&#x626;" horiz-adv-x="376" arabic-form="medial" 
d="M386 81v-71q0 -10 -10 -10q-45 0 -89 18.5t-83 54.5q-54 -73 -204 -73q-10 0 -10 10l1 71q0 9 10 9q80 0 116.5 29.5t36.5 95.5v162l84 13v-198q0 -25 -5 -52q67 -50 143 -50q10 0 10 -9zM333 520l-20 -67h-237v67h61q-19 29 -19 62q0 44 29.5 71.5t76.5 27.5
q37 0 77 -20v-61q-44 15 -68 15q-26 0 -41.5 -13t-15.5 -35q0 -25 19 -47h138z" />
    <glyph glyph-name="uniFE8E" unicode="&#x627;" horiz-adv-x="297" arabic-form="final" 
d="M139 50q-52 50 -52 150l-1 517l85 13v-510q0 -66 31 -98t94 -32q10 0 10 -9l1 -71q0 -10 -10 -10q-106 0 -158 50z" />
    <glyph glyph-name="uniFE90" unicode="&#x628;" horiz-adv-x="870" arabic-form="final" 
d="M880 81v-71q0 -10 -10 -10q-85 0 -159 65q-51 -62 -161 -65h-2h-260q-120 0 -182.5 56t-62.5 166q0 83 30 218l74 -10q-13 -66 -18.5 -108t-5.5 -77q0 -79 46 -117t139 -38h231q126 0 126 125v162l85 13v-198q0 -35 -7 -60q31 -21 61.5 -31.5t65.5 -10.5q10 0 10 -9z
M351 -151l72 73l75 -73l-73 -72z" />
    <glyph glyph-name="uniFE91" unicode="&#x628;" horiz-adv-x="278" arabic-form="initial" 
d="M-10 10l1 71q0 9 10 9q61 0 93.5 31.5t32.5 93.5l-1 268l85 14v-305q0 -92 -53.5 -142t-157.5 -50q-10 0 -10 10zM35 -152l72 73l75 -73l-73 -72z" />
    <glyph glyph-name="uniFE92" unicode="&#x628;" horiz-adv-x="331" arabic-form="medial" 
d="M341 81v-71q0 -10 -10 -10q-85 0 -159 65q-53 -65 -172 -65q-10 0 -10 10l1 71q0 9 10 9q61 0 93.5 31.5t32.5 93.5l-1 162l85 13v-198q0 -35 -7 -60q62 -42 127 -42q10 0 10 -9zM86 -153l72 73l75 -73l-73 -72z" />
    <glyph glyph-name="uniFE94" unicode="&#x629;" horiz-adv-x="583" arabic-form="final" 
d="M593 81v-71q0 -10 -10 -10q-92 0 -136 43q-51 -26 -94 -39t-87 -13q-67 0 -119.5 31.5t-81.5 86.5t-29 122t29.5 124.5t82 91.5t118.5 34q61 0 134 -28v62l84 14l1 -327q0 -60 23 -86t75 -26q10 0 10 -9zM410 111q-10 34 -10 83v174q-40 13 -69.5 20t-61.5 7
q-44 0 -79 -22t-54 -59t-19 -82q0 -67 43 -111t111 -44q64 0 139 34zM113 648l73 72l73 -72l-73 -72zM271 648l74 72l73 -72l-73 -72z" />
    <glyph glyph-name="uniFE96" unicode="&#x62a;" horiz-adv-x="870" arabic-form="final" 
d="M880 81v-71q0 -10 -10 -10q-85 0 -159 65q-51 -62 -161 -65h-2h-260q-120 0 -182.5 56t-62.5 166q0 83 30 218l74 -10q-13 -66 -18.5 -108t-5.5 -77q0 -79 46 -117t139 -38h231q126 0 126 125v162l85 13v-198q0 -35 -7 -60q31 -21 61.5 -31.5t65.5 -10.5q10 0 10 -9z
M280 531l73 72l73 -72l-73 -72zM438 531l74 72l73 -72l-73 -72z" />
    <glyph glyph-name="uniFE97" unicode="&#x62a;" horiz-adv-x="373" arabic-form="initial" 
d="M-10 10l1 71q0 9 10 9h76q61 0 93 31.5t32 93.5v268l84 14v-305q0 -92 -53 -142t-157 -50h-76q-10 0 -10 10zM84 647l73 72l73 -72l-73 -72zM242 647l74 72l73 -72l-73 -72z" />
    <glyph glyph-name="uniFE98" unicode="&#x62a;" horiz-adv-x="376" arabic-form="medial" 
d="M386 81v-71q0 -10 -10 -10q-45 0 -89 18.5t-83 54.5q-54 -73 -204 -73q-10 0 -10 10l1 71q0 9 10 9q80 0 116.5 29.5t36.5 95.5v162l84 13v-198q0 -25 -5 -52q67 -50 143 -50q10 0 10 -9zM38 534l73 72l73 -72l-73 -72zM196 534l74 72l73 -72l-73 -72z" />
    <glyph glyph-name="uniFE9A" unicode="&#x62b;" horiz-adv-x="870" arabic-form="final" 
d="M880 81v-71q0 -10 -10 -10q-85 0 -159 65q-51 -62 -161 -65h-2h-260q-120 0 -182.5 56t-62.5 166q0 83 30 218l74 -10q-13 -66 -18.5 -108t-5.5 -77q0 -79 46 -117t139 -38h231q126 0 126 125v162l85 13v-198q0 -35 -7 -60q31 -21 61.5 -31.5t65.5 -10.5q10 0 10 -9z
M383 650l52 53l53 -53l-52 -52zM279 528l73 72l73 -72l-72 -73zM444 528l74 72l73 -72l-73 -73z" />
    <glyph glyph-name="uniFE9B" unicode="&#x62b;" horiz-adv-x="380" arabic-form="initial" 
d="M-10 10l1 71q0 9 10 9h76q61 0 93 31.5t32 93.5v268l84 14v-305q0 -92 -53 -142t-157 -50h-76q-10 0 -10 10zM186 770l52 53l53 -53l-52 -52zM82 648l73 72l73 -72l-72 -73zM247 648l74 72l73 -72l-73 -73z" />
    <glyph glyph-name="uniFE9C" unicode="&#x62b;" horiz-adv-x="376" arabic-form="medial" 
d="M386 81v-71q0 -10 -10 -10q-45 0 -89 18.5t-83 54.5q-54 -73 -204 -73q-10 0 -10 10l1 71q0 9 10 9q80 0 116.5 29.5t36.5 95.5v162l84 13v-198q0 -25 -5 -52q67 -50 143 -50q10 0 10 -9zM141 657l52 53l53 -53l-52 -52zM37 535l73 72l73 -72l-72 -73zM202 535l74 72
l73 -72l-73 -73z" />
    <glyph glyph-name="uniFE9E" unicode="&#x62c;" horiz-adv-x="652" arabic-form="final" 
d="M662 81v-71q0 -10 -10 -10q-98 0 -142.5 37.5t-44.5 119.5v29q-163 -13 -252 -71.5t-89 -145.5q0 -75 54.5 -116t153.5 -41q43 0 89 8.5t119 28.5l23 -73q-141 -51 -249 -51q-126 0 -199 61.5t-73 174.5q0 124 109 202.5t333 98.5q-76 74 -126.5 114t-89.5 56.5t-79 16.5
q-21 0 -41 -3.5t-56 -12.5l-18 76q75 28 127 28q48 0 95.5 -21.5t114 -75t174.5 -155.5l-35 -95q-26 0 -39 -1q1 -42 13 -62.5t41.5 -28.5t86.5 -8q10 0 10 -9zM285 12l72 73l75 -73l-73 -72z" />
    <glyph glyph-name="uniFE9F" unicode="&#x62c;" horiz-adv-x="587" arabic-form="initial" 
d="M264 454.5q43 -17.5 109 -65t184 -145.5l-13 -83q-156 -83 -283.5 -122t-259.5 -39q-11 0 -11 10v71q0 9 11 9q120 0 235 29t234 87q-89 74 -143 112t-90.5 52t-73.5 14q-17 0 -37 -3.5t-35.5 -7t-25.5 -5.5l-17 76q74 28 128 28q45 0 88 -17.5zM211 -146l72 73l75 -73
l-73 -72z" />
    <glyph glyph-name="uniFEA0" unicode="&#x62c;" horiz-adv-x="635" arabic-form="medial" 
d="M645 81v-71q0 -10 -10 -10h-46q-63 0 -102 28t-52 78q-118 -54 -222 -80t-212 -26q-11 0 -11 10v71q0 9 11 9q120 0 235 29t234 87q-89 74 -143 112t-90.5 52t-73.5 14q-17 0 -37 -3.5t-35.5 -7t-25.5 -5.5l-17 76q74 28 128 28q45 0 88 -17.5t109 -65t184 -145.5
l-13 -83q-28 -16 -57 -30q25 -41 103 -41h45q10 0 10 -9zM231 -146l72 73l75 -73l-73 -72z" />
    <glyph glyph-name="uniFEA2" unicode="&#x62d;" horiz-adv-x="652" arabic-form="final" 
d="M662 81v-71q0 -10 -10 -10q-98 0 -142.5 37.5t-44.5 119.5v29q-163 -13 -252 -71.5t-89 -145.5q0 -75 54.5 -116t153.5 -41q43 0 89 8.5t119 28.5l23 -73q-141 -51 -249 -51q-126 0 -199 61.5t-73 174.5q0 124 109 202.5t333 98.5q-76 74 -126.5 114t-89.5 56.5t-79 16.5
q-21 0 -41 -3.5t-56 -12.5l-18 76q75 28 127 28q48 0 95.5 -21.5t114 -75t174.5 -155.5l-35 -95q-26 0 -39 -1q1 -42 13 -62.5t41.5 -28.5t86.5 -8q10 0 10 -9z" />
    <glyph glyph-name="uniFEA3" unicode="&#x62d;" horiz-adv-x="587" arabic-form="initial" 
d="M264 454.5q43 -17.5 109 -65t184 -145.5l-13 -83q-156 -83 -283.5 -122t-259.5 -39q-11 0 -11 10v71q0 9 11 9q120 0 235 29t234 87q-89 74 -143 112t-90.5 52t-73.5 14q-17 0 -37 -3.5t-35.5 -7t-25.5 -5.5l-17 76q74 28 128 28q45 0 88 -17.5z" />
    <glyph glyph-name="uniFEA4" unicode="&#x62d;" horiz-adv-x="635" arabic-form="medial" 
d="M645 81v-71q0 -10 -10 -10h-46q-63 0 -102 28t-52 78q-118 -54 -222 -80t-212 -26q-11 0 -11 10v71q0 9 11 9q120 0 235 29t234 87q-89 74 -143 112t-90.5 52t-73.5 14q-17 0 -37 -3.5t-35.5 -7t-25.5 -5.5l-17 76q74 28 128 28q45 0 88 -17.5t109 -65t184 -145.5
l-13 -83q-28 -16 -57 -30q25 -41 103 -41h45q10 0 10 -9z" />
    <glyph glyph-name="uniFEA6" unicode="&#x62e;" horiz-adv-x="652" arabic-form="final" 
d="M662 81v-71q0 -10 -10 -10q-98 0 -142.5 37.5t-44.5 119.5v29q-163 -13 -252 -71.5t-89 -145.5q0 -75 54.5 -116t153.5 -41q43 0 89 8.5t119 28.5l23 -73q-141 -51 -249 -51q-126 0 -199 61.5t-73 174.5q0 124 109 202.5t333 98.5q-76 74 -126.5 114t-89.5 56.5t-79 16.5
q-21 0 -41 -3.5t-56 -12.5l-18 76q75 28 127 28q48 0 95.5 -21.5t114 -75t174.5 -155.5l-35 -95q-26 0 -39 -1q1 -42 13 -62.5t41.5 -28.5t86.5 -8q10 0 10 -9zM349 637l72 72l75 -72l-73 -73z" />
    <glyph glyph-name="uniFEA7" unicode="&#x62e;" horiz-adv-x="587" arabic-form="initial" 
d="M264 454.5q43 -17.5 109 -65t184 -145.5l-13 -83q-156 -83 -283.5 -122t-259.5 -39q-11 0 -11 10v71q0 9 11 9q120 0 235 29t234 87q-89 74 -143 112t-90.5 52t-73.5 14q-17 0 -37 -3.5t-35.5 -7t-25.5 -5.5l-17 76q74 28 128 28q45 0 88 -17.5zM209 623l72 72l75 -72
l-73 -73z" />
    <glyph glyph-name="uniFEA8" unicode="&#x62e;" horiz-adv-x="635" arabic-form="medial" 
d="M645 81v-71q0 -10 -10 -10h-46q-63 0 -102 28t-52 78q-118 -54 -222 -80t-212 -26q-11 0 -11 10v71q0 9 11 9q120 0 235 29t234 87q-89 74 -143 112t-90.5 52t-73.5 14q-17 0 -37 -3.5t-35.5 -7t-25.5 -5.5l-17 76q74 28 128 28q45 0 88 -17.5t109 -65t184 -145.5
l-13 -83q-28 -16 -57 -30q25 -41 103 -41h45q10 0 10 -9zM214 623l72 72l75 -72l-73 -73z" />
    <glyph glyph-name="uniFEAA" unicode="&#x62f;" horiz-adv-x="595" arabic-form="final" 
d="M605 81v-71q0 -10 -10 -10q-88 0 -160 67q-55 -67 -174 -67h-234l-17 90h252q61 0 93.5 30t32.5 85l-1 58q-1 61 -43.5 99t-108.5 38h-59v88h77q63 0 112.5 -26.5t78 -75t28.5 -112.5l1 -82q0 -26 -7 -58q62 -44 129 -44q10 0 10 -9z" />
    <glyph glyph-name="uniFEAC" unicode="&#x630;" horiz-adv-x="595" arabic-form="final" 
d="M605 81v-71q0 -10 -10 -10q-88 0 -160 67q-55 -67 -174 -67h-234l-17 90h252q61 0 93.5 30t32.5 85l-1 58q-1 61 -43.5 99t-108.5 38h-59v88h77q63 0 112.5 -26.5t78 -75t28.5 -112.5l1 -82q0 -26 -7 -58q62 -44 129 -44q10 0 10 -9zM165 656l72 72l75 -72l-73 -73z" />
    <glyph glyph-name="uniFEAE" unicode="&#x631;" horiz-adv-x="348" arabic-form="final" 
d="M357 81v-71q0 -10 -10 -10q-77 0 -113 53v-26q0 -125 -64 -183.5t-192 -58.5l-8 73q87 0 133.5 42t46.5 130l-1 453l85 14v-312q4 -53 36 -74t77 -21q10 0 10 -9z" />
    <glyph glyph-name="uniFEB0" unicode="&#x632;" horiz-adv-x="348" arabic-form="final" 
d="M357 81v-71q0 -10 -10 -10q-77 0 -113 53v-26q0 -125 -64 -183.5t-192 -58.5l-8 73q87 0 133.5 42t46.5 130l-1 453l85 14v-312q4 -53 36 -74t77 -21q10 0 10 -9zM120 646l72 72l75 -72l-73 -73z" />
    <glyph glyph-name="uniFEB2" unicode="&#x633;" horiz-adv-x="1362" arabic-form="final" 
d="M1372 81v-71q0 -10 -10 -10q-82 0 -153 60q-49 -60 -157 -60q-79 0 -166 53q-53 -53 -152 -53q-63 0 -134 42q-13 -120 -83 -188.5t-201 -68.5q-126 0 -199.5 65.5t-73.5 193.5q0 107 44 241l69 -19q-35 -103 -35 -200q1 -94 53 -142.5t147 -48.5q100 0 148.5 56.5
t48.5 174.5v377l84 14v-372q31 -16 64.5 -25.5t60.5 -9.5q126 0 126 125v162l85 13v-198q0 -40 -13 -77q62 -25 116 -25q61 0 93 31.5t32 93.5v268l85 14v-305q0 -33 -8 -65q57 -37 119 -37q10 0 10 -9z" />
    <glyph glyph-name="uniFEB3" unicode="&#x633;" horiz-adv-x="884" arabic-form="initial" 
d="M825 498v-305q0 -92 -50 -142t-148 -50q-80 0 -167 53q-53 -53 -152 -53q-72 0 -149 52q-55 -53 -159 -53q-10 0 -10 10v71q0 9 10 9q61 0 93.5 31.5t32.5 93.5l-1 162l85 13v-198q0 -42 -12 -77q58 -24 104 -24q126 0 126 125l-1 162l85 13v-198q0 -44 -13 -77
q62 -25 116 -25q61 0 93.5 31.5t32.5 93.5v268z" />
    <glyph glyph-name="uniFEB4" unicode="&#x633;" horiz-adv-x="939" arabic-form="medial" 
d="M949 81v-71q0 -10 -10 -10q-83 0 -155 61q-51 -60 -157 -60q-80 0 -167 53q-53 -53 -152 -53q-72 0 -149 52q-55 -53 -159 -53q-10 0 -10 10v71q0 9 10 9q61 0 93.5 31.5t32.5 93.5l-1 162l85 13v-198q0 -42 -12 -77q58 -24 104 -24q126 0 126 125l-1 162l85 13v-198
q0 -44 -13 -77q62 -25 116 -25q61 0 93.5 31.5t32.5 93.5v268l84 14v-305q0 -33 -8 -65q58 -38 122 -38q10 0 10 -9z" />
    <glyph glyph-name="uniFEB6" unicode="&#x634;" horiz-adv-x="1362" arabic-form="final" 
d="M1372 81v-71q0 -10 -10 -10q-82 0 -153 60q-49 -60 -157 -60q-79 0 -166 53q-53 -53 -152 -53q-63 0 -134 42q-13 -120 -83 -188.5t-201 -68.5q-126 0 -199.5 65.5t-73.5 193.5q0 107 44 241l69 -19q-35 -103 -35 -200q1 -94 53 -142.5t147 -48.5q100 0 148.5 56.5
t48.5 174.5v377l84 14v-372q31 -16 64.5 -25.5t60.5 -9.5q126 0 126 125v162l85 13v-198q0 -40 -13 -77q62 -25 116 -25q61 0 93 31.5t32 93.5v268l85 14v-305q0 -33 -8 -65q57 -37 119 -37q10 0 10 -9zM843 729l52 53l53 -53l-52 -52zM739 607l73 72l73 -72l-72 -73z
M904 607l74 72l73 -72l-73 -73z" />
    <glyph glyph-name="uniFEB7" unicode="&#x634;" horiz-adv-x="884" arabic-form="initial" 
d="M825 498v-305q0 -92 -50 -142t-148 -50q-80 0 -167 53q-53 -53 -152 -53q-72 0 -149 52q-55 -53 -159 -53q-10 0 -10 10v71q0 9 10 9q61 0 93.5 31.5t32.5 93.5l-1 162l85 13v-198q0 -42 -12 -77q58 -24 104 -24q126 0 126 125l-1 162l85 13v-198q0 -44 -13 -77
q62 -25 116 -25q61 0 93.5 31.5t32.5 93.5v268zM413 730l52 53l53 -53l-52 -52zM309 608l73 72l73 -72l-72 -73zM474 608l74 72l73 -72l-73 -73z" />
    <glyph glyph-name="uniFEB8" unicode="&#x634;" horiz-adv-x="939" arabic-form="medial" 
d="M949 81v-71q0 -10 -10 -10q-83 0 -155 61q-51 -60 -157 -60q-80 0 -167 53q-53 -53 -152 -53q-72 0 -149 52q-55 -53 -159 -53q-10 0 -10 10v71q0 9 10 9q61 0 93.5 31.5t32.5 93.5l-1 162l85 13v-198q0 -42 -12 -77q58 -24 104 -24q126 0 126 125l-1 162l85 13v-198
q0 -44 -13 -77q62 -25 116 -25q61 0 93.5 31.5t32.5 93.5v268l84 14v-305q0 -33 -8 -65q58 -38 122 -38q10 0 10 -9zM411 730l52 53l53 -53l-52 -52zM307 608l73 72l73 -72l-72 -73zM472 608l74 72l73 -72l-73 -73z" />
    <glyph glyph-name="uniFEBA" unicode="&#x635;" horiz-adv-x="1327" arabic-form="final" 
d="M1337 81v-71q0 -10 -10 -10q-85 0 -159 66q-54 -66 -173 -66h-402q-20 -102 -88.5 -158.5t-188.5 -56.5q-126 0 -199.5 65.5t-73.5 193.5q0 107 44 241l69 -19q-35 -103 -35 -200q1 -94 53 -142.5t147 -48.5q100 0 148.5 56.5t48.5 174.5v377l84 14v-120
q155 67 234.5 91.5t154.5 24.5q62 0 112 -27.5t78 -77t27 -111.5v-85q0 -31 -8 -60q62 -42 127 -42q10 0 10 -9zM1123 265q0 63 -42 101.5t-108 38.5q-61 0 -117.5 -16t-203.5 -69q-20 -8 -50 -18v-205v-7h394q61 0 94 30t33 87v58z" />
    <glyph glyph-name="uniFEBB" unicode="&#x635;" horiz-adv-x="836" arabic-form="initial" 
d="M686 465.5q50 -27.5 78 -76t28 -109.5q0 -46 -7.5 -83.5t-28.5 -119.5l-67 -77h-548h-141q-10 0 -10 10l1 71q0 9 10 9h99l-1 393l85 14v-120q154 66 234.5 91t155.5 25q62 0 112 -27.5zM699.5 189.5q7.5 39.5 7.5 78.5q-1 60 -43.5 98.5t-107.5 38.5q-47 0 -89.5 -8.5
t-99 -27.5t-183.5 -66v-213h490q18 60 25.5 99.5z" />
    <glyph glyph-name="uniFEBC" unicode="&#x635;" horiz-adv-x="915" arabic-form="medial" 
d="M925 81v-71q0 -10 -10 -10q-88 0 -162 68q-54 -68 -175 -68h-437h-141q-10 0 -10 10v71q1 9 10 9h100l-1 393l85 14v-120q156 67 235.5 91.5t154.5 24.5q62 0 112 -27.5t78 -77t27 -111.5v-85q0 -25 -7 -57q64 -45 131 -45q10 0 10 -9zM706 265q0 63 -42 101.5t-108 38.5
q-47 0 -89.5 -8.5t-101 -28t-181.5 -65.5v-213h395q61 0 94 30t33 87v58z" />
    <glyph glyph-name="uniFEBE" unicode="&#x636;" horiz-adv-x="1327" arabic-form="final" 
d="M1337 81v-71q0 -10 -10 -10q-85 0 -159 66q-54 -66 -173 -66h-402q-20 -102 -88.5 -158.5t-188.5 -56.5q-126 0 -199.5 65.5t-73.5 193.5q0 107 44 241l69 -19q-35 -103 -35 -200q1 -94 53 -142.5t147 -48.5q100 0 148.5 56.5t48.5 174.5v377l84 14v-120
q155 67 234.5 91.5t154.5 24.5q62 0 112 -27.5t78 -77t27 -111.5v-85q0 -31 -8 -60q62 -42 127 -42q10 0 10 -9zM1123 265q0 63 -42 101.5t-108 38.5q-61 0 -117.5 -16t-203.5 -69q-20 -8 -50 -18v-205v-7h394q61 0 94 30t33 87v58zM728 657l72 72l75 -72l-73 -73z" />
    <glyph glyph-name="uniFEBF" unicode="&#x636;" horiz-adv-x="836" arabic-form="initial" 
d="M686 465.5q50 -27.5 78 -76t28 -109.5q0 -46 -7.5 -83.5t-28.5 -119.5l-67 -77h-548h-141q-10 0 -10 10l1 71q0 9 10 9h99l-1 393l85 14v-120q154 66 234.5 91t155.5 25q62 0 112 -27.5zM699.5 189.5q7.5 39.5 7.5 78.5q-1 60 -43.5 98.5t-107.5 38.5q-47 0 -89.5 -8.5
t-99 -27.5t-183.5 -66v-213h490q18 60 25.5 99.5zM363 657l72 72l75 -72l-73 -73z" />
    <glyph glyph-name="uniFEC0" unicode="&#x636;" horiz-adv-x="915" arabic-form="medial" 
d="M925 81v-71q0 -10 -10 -10q-88 0 -162 68q-54 -68 -175 -68h-437h-141q-10 0 -10 10v71q1 9 10 9h100l-1 393l85 14v-120q156 67 235.5 91.5t154.5 24.5q62 0 112 -27.5t78 -77t27 -111.5v-85q0 -25 -7 -57q64 -45 131 -45q10 0 10 -9zM706 265q0 63 -42 101.5t-108 38.5
q-47 0 -89.5 -8.5t-101 -28t-181.5 -65.5v-213h395q61 0 94 30t33 87v58zM363 657l72 72l75 -72l-73 -73z" />
    <glyph glyph-name="uniFEC2" unicode="&#x637;" horiz-adv-x="978" arabic-form="final" 
d="M988 81v-71q0 -10 -10 -10q-88 0 -162 68q-54 -68 -175 -68h-437h-42h-129l-16 90h145v627l85 13v-354q154 67 234.5 92t155.5 25q62 0 112 -27.5t78 -77t27 -111.5v-85q0 -33 -7 -57q64 -45 131 -45q10 0 10 -9zM769 265q0 63 -42 101.5t-108 38.5q-47 0 -89.5 -8.5
t-101 -28.5t-181.5 -66v-212h395q61 0 94 30t33 87v58z" />
    <glyph glyph-name="uniFEC3" unicode="&#x637;" horiz-adv-x="836" arabic-form="initial" 
d="M686 465.5q50 -27.5 78 -76t28 -109.5q0 -46 -7.5 -83.5t-28.5 -119.5l-67 -77h-505h-85h-99q-10 0 -10 10l1 71q0 9 10 9h98v627l85 13v-233v-120q154 66 234.5 91t155.5 25q62 0 112 -27.5zM699.5 189.5q7.5 39.5 7.5 78.5q-1 60 -43.5 98.5t-107.5 38.5
q-47 0 -89.5 -8.5t-99 -27.5t-183.5 -66v-213h490q18 60 25.5 99.5z" />
    <glyph glyph-name="uniFEC4" unicode="&#x637;" horiz-adv-x="915" arabic-form="medial" 
d="M925 81v-71q0 -10 -10 -10q-88 0 -162 68q-54 -68 -175 -68h-394h-85h-99q-10 0 -10 10v71q1 9 10 9h99v627l85 13v-233v-120q156 67 235.5 91.5t154.5 24.5q62 0 112 -27.5t78 -77t27 -111.5v-85q0 -25 -7 -57q64 -45 131 -45q10 0 10 -9zM706 265q0 63 -42 101.5
t-108 38.5q-47 0 -89.5 -8.5t-101 -28t-181.5 -65.5v-213h395q61 0 94 30t33 87v58z" />
    <glyph glyph-name="uniFEC6" unicode="&#x638;" horiz-adv-x="978" arabic-form="final" 
d="M988 81v-71q0 -10 -10 -10q-88 0 -162 68q-54 -68 -175 -68h-437h-42h-129l-16 90h145v627l85 13v-354q154 67 234.5 92t155.5 25q62 0 112 -27.5t78 -77t27 -111.5v-85q0 -33 -7 -57q64 -45 131 -45q10 0 10 -9zM769 265q0 63 -42 101.5t-108 38.5q-47 0 -89.5 -8.5
t-101 -28.5t-181.5 -66v-212h395q61 0 94 30t33 87v58zM395 657l72 72l75 -72l-73 -73z" />
    <glyph glyph-name="uniFEC7" unicode="&#x638;" horiz-adv-x="836" arabic-form="initial" 
d="M686 465.5q50 -27.5 78 -76t28 -109.5q0 -46 -7.5 -83.5t-28.5 -119.5l-67 -77h-505h-85h-99q-10 0 -10 10l1 71q0 9 10 9h98v627l85 13v-233v-120q154 66 234.5 91t155.5 25q62 0 112 -27.5zM699.5 189.5q7.5 39.5 7.5 78.5q-1 60 -43.5 98.5t-107.5 38.5
q-47 0 -89.5 -8.5t-99 -27.5t-183.5 -66v-213h490q18 60 25.5 99.5zM312 657l72 72l75 -72l-73 -73z" />
    <glyph glyph-name="uniFEC8" unicode="&#x638;" horiz-adv-x="915" arabic-form="medial" 
d="M925 81v-71q0 -10 -10 -10q-88 0 -162 68q-54 -68 -175 -68h-394h-85h-99q-10 0 -10 10v71q1 9 10 9h99v627l85 13v-233v-120q156 67 235.5 91.5t154.5 24.5q62 0 112 -27.5t78 -77t27 -111.5v-85q0 -25 -7 -57q64 -45 131 -45q10 0 10 -9zM706 265q0 63 -42 101.5
t-108 38.5q-47 0 -89.5 -8.5t-101 -28t-181.5 -65.5v-213h395q61 0 94 30t33 87v58zM312 657l72 72l75 -72l-73 -73z" />
    <glyph glyph-name="uniFECA" unicode="&#x639;" horiz-adv-x="616" arabic-form="final" 
d="M626 81v-71q0 -10 -10 -10q-164 0 -298 88q-75 -40 -108.5 -60.5t-53.5 -44.5t-20 -55q0 -53 53.5 -84.5t145.5 -31.5q104 0 225 37l24 -73q-78 -28 -136 -39.5t-121 -11.5q-82 0 -143.5 24t-94.5 67.5t-33 102.5q0 65 43 108t136 92q-60 69 -99.5 126.5t-87.5 148.5
l33 77q75 38 134.5 55t117.5 17q66 0 119 -24.5t83.5 -67t30.5 -96.5q0 -57 -43 -113.5t-125 -108.5q48 -20 99.5 -31.5t118.5 -11.5q10 0 10 -9zM138 410q44 -83 81 -138t90 -115q171 94 171 170q0 58 -45 94t-120 36t-177 -47z" />
    <glyph glyph-name="uniFECB" unicode="&#x639;" horiz-adv-x="547" arabic-form="initial" 
d="M345.5 106.5q74.5 8.5 174.5 25.5l-18 -90q-111 -21 -228 -31.5t-274 -10.5q-10 0 -10 10v71q0 9 10 9q70 0 102 1q-56 90 -56 179q0 61 30 109t82 75t115 27q36 0 76.5 -9t103.5 -30l-24 -73q-50 15 -81.5 21.5t-60.5 6.5q-69 0 -113.5 -40t-44.5 -106q0 -78 59 -157
q83 4 157.5 12.5z" />
    <glyph glyph-name="uniFECC" unicode="&#x639;" horiz-adv-x="601" arabic-form="medial" 
d="M609 81v-71q0 -10 -10 -10q-86 0 -154.5 12t-127.5 41q-67 -30 -138 -41.5t-179 -11.5q-10 1 -10 10v71q0 9 10 9q103 0 203 18q-53 63 -90 118.5t-82 140.5l32 77q75 39 134.5 55.5t118.5 16.5q66 0 119 -24t83 -67t30 -97q0 -57 -35 -115.5t-103 -106.5q80 -16 189 -16
q10 0 10 -9zM121 383q44 -85 82.5 -141.5t94.5 -119.5q72 35 117.5 85t45.5 93q0 58 -45 94t-119 36q-76 0 -176 -47z" />
    <glyph glyph-name="uniFECE" unicode="&#x63a;" horiz-adv-x="616" arabic-form="final" 
d="M626 81v-71q0 -10 -10 -10q-164 0 -298 88q-75 -40 -108.5 -60.5t-53.5 -44.5t-20 -55q0 -53 53.5 -84.5t145.5 -31.5q104 0 225 37l24 -73q-78 -28 -136 -39.5t-121 -11.5q-82 0 -143.5 24t-94.5 67.5t-33 102.5q0 65 43 108t136 92q-60 69 -99.5 126.5t-87.5 148.5
l33 77q75 38 134.5 55t117.5 17q66 0 119 -24.5t83.5 -67t30.5 -96.5q0 -57 -43 -113.5t-125 -108.5q48 -20 99.5 -31.5t118.5 -11.5q10 0 10 -9zM138 410q44 -83 81 -138t90 -115q171 94 171 170q0 58 -45 94t-120 36t-177 -47zM236 693l72 72l75 -72l-73 -73z" />
    <glyph glyph-name="uniFECF" unicode="&#x63a;" horiz-adv-x="547" arabic-form="initial" 
d="M345.5 106.5q74.5 8.5 174.5 25.5l-18 -90q-111 -21 -228 -31.5t-274 -10.5q-10 0 -10 10v71q0 9 10 9q70 0 102 1q-56 90 -56 179q0 61 30 109t82 75t115 27q36 0 76.5 -9t103.5 -30l-24 -73q-50 15 -81.5 21.5t-60.5 6.5q-69 0 -113.5 -40t-44.5 -106q0 -78 59 -157
q83 4 157.5 12.5zM179 639l72 72l75 -72l-73 -73z" />
    <glyph glyph-name="uniFED0" unicode="&#x63a;" horiz-adv-x="601" arabic-form="medial" 
d="M609 81v-71q0 -10 -10 -10q-86 0 -154.5 12t-127.5 41q-67 -30 -138 -41.5t-179 -11.5q-10 1 -10 10v71q0 9 10 9q103 0 203 18q-53 63 -90 118.5t-82 140.5l32 77q75 39 134.5 55.5t118.5 16.5q66 0 119 -24t83 -67t30 -97q0 -57 -35 -115.5t-103 -106.5q80 -16 189 -16
q10 0 10 -9zM121 383q44 -85 82.5 -141.5t94.5 -119.5q72 35 117.5 85t45.5 93q0 58 -45 94t-119 36q-76 0 -176 -47zM223 666l72 72l75 -72l-73 -73z" />
    <glyph glyph-name="uniFED2" unicode="&#x641;" horiz-adv-x="973" arabic-form="final" 
d="M693 569l-74 73l72 72l75 -72zM986 81v-71q0 -10 -10 -10q-152 0 -275 36q-109 -34 -276 -36h-1h-137q-119 0 -181.5 55t-62.5 162q0 68 22 171l74 -10q-16 -89 -16 -137q0 -78 46 -114.5t138 -36.5h106q101 0 157 6q-45 33 -69 78t-24 99q0 60 28.5 108.5t79 76
t112.5 27.5q64 0 114 -28.5t78 -77t28 -106.5q0 -53 -24 -97.5t-68 -77.5q59 -8 151 -8q10 0 10 -9zM597.5 362.5q-37.5 -38.5 -37.5 -98.5q0 -54 36.5 -96.5t99.5 -61.5q65 22 102 64t37 94q0 60 -40.5 98.5t-100.5 38.5q-59 0 -96.5 -38.5z" />
    <glyph glyph-name="uniFED3" unicode="&#x641;" horiz-adv-x="542" arabic-form="initial" 
d="M388 455q52 -30 81.5 -82.5t29.5 -116.5q0 -120 -74.5 -188t-205.5 -68h-219q-10 0 -10 10v71q0 9 10 9h86q-45 93 -45 162q0 67 30 120t82.5 83t119.5 30q63 0 115 -30zM363 133q51 43 51 120q0 64 -41.5 105.5t-104.5 41.5q-40 0 -73 -20.5t-52 -55t-19 -73.5
q0 -72 50 -161h52q86 0 137 43zM186 642l72 72l75 -72l-73 -73z" />
    <glyph glyph-name="uniFED4" unicode="&#x641;" horiz-adv-x="563" arabic-form="medial" 
d="M573 81v-71q0 -10 -10 -10q-148 0 -275 37q-114 -37 -288 -37q-10 1 -10 10v71q0 9 10 9q87 0 156 6q-44 33 -68 78t-24 99q0 60 28.5 108.5t79 76t112.5 27.5q64 0 114 -28.5t78 -77t28 -106.5q0 -107 -92 -175q59 -8 151 -8q10 0 10 -9zM184.5 362.5
q-37.5 -38.5 -37.5 -98.5q0 -53 37 -96t99 -61q64 21 101.5 63t37.5 94q0 60 -40.5 98.5t-100.5 38.5q-59 0 -96.5 -38.5zM206 642l72 72l75 -72l-73 -73z" />
    <glyph glyph-name="uniFED6" unicode="&#x642;" horiz-adv-x="769" arabic-form="final" 
d="M779 81v-71q0 -10 -10 -10h-63q-17 -104 -106.5 -159.5t-250.5 -55.5q-90 0 -159 29.5t-108 87.5t-39 142q0 107 44 241l69 -19q-35 -103 -35 -200q1 -99 66.5 -151t181.5 -52q106 0 171.5 35.5t82.5 101.5h-122q-67 0 -118.5 28t-79.5 80t-28 122q0 71 29 127t80 87
t115 31q62 0 109.5 -28t74.5 -79t27 -118v-160h59q10 0 10 -9zM396 125q43 -38 116 -38q32 0 114 2l-1 154q0 66 -38 105t-100 39q-60 0 -97 -42t-37 -111q0 -71 43 -109zM346 641l73 72l73 -72l-73 -72zM504 641l74 72l73 -72l-73 -72z" />
    <glyph glyph-name="uniFED7" unicode="&#x642;" horiz-adv-x="542" arabic-form="initial" 
d="M388 455q52 -30 81.5 -82.5t29.5 -116.5q0 -120 -74.5 -188t-205.5 -68h-219q-10 0 -10 10v71q0 9 10 9h86q-45 93 -45 162q0 67 30 120t82.5 83t119.5 30q63 0 115 -30zM363 133q51 43 51 120q0 64 -41.5 105.5t-104.5 41.5q-40 0 -73 -20.5t-52 -55t-19 -73.5
q0 -72 50 -161h52q86 0 137 43zM113 641l73 72l73 -72l-73 -72zM271 641l74 72l73 -72l-73 -72z" />
    <glyph glyph-name="uniFED8" unicode="&#x642;" horiz-adv-x="563" arabic-form="medial" 
d="M573 81v-71q0 -10 -10 -10q-148 0 -275 37q-114 -37 -288 -37q-10 1 -10 10v71q0 9 10 9q87 0 156 6q-44 33 -68 78t-24 99q0 60 28.5 108.5t79 76t112.5 27.5q64 0 114 -28.5t78 -77t28 -106.5q0 -107 -92 -175q59 -8 151 -8q10 0 10 -9zM184.5 362.5
q-37.5 -38.5 -37.5 -98.5q0 -53 37 -96t99 -61q64 21 101.5 63t37.5 94q0 60 -40.5 98.5t-100.5 38.5q-59 0 -96.5 -38.5zM130 641l73 72l73 -72l-73 -72zM288 641l74 72l73 -72l-73 -72z" />
    <glyph glyph-name="uniFEDA" unicode="&#x643;" horiz-adv-x="875" arabic-form="final" 
d="M884 81v-71q0 -10 -10 -10q-129 0 -179 75q-58 -39 -123 -57t-148 -18h-1v0h-136q-119 0 -181.5 55t-62.5 162q0 73 21 171l75 -10q-16 -89 -16 -137q0 -78 46 -114.5t138 -36.5h116h1q158 0 245 51q-5 30 -5 59v517l85 13v-510q0 -66 30.5 -98t94.5 -32q10 0 10 -9z
M524 356h-237v67h61q-19 29 -19 61q0 45 29.5 72.5t76.5 27.5q34 0 77 -20v-62q-40 15 -68 15q-26 0 -41.5 -12.5t-15.5 -34.5q0 -25 19 -47h138z" />
    <glyph glyph-name="uniFEDB" unicode="&#x643;" horiz-adv-x="582" arabic-form="initial" 
d="M429 397.5q55 -25.5 84.5 -73t29.5 -110.5q0 -99 -61.5 -156.5t-164.5 -57.5h-317q-10 0 -10 10v71q0 9 10 9h310q69 0 108.5 33t39.5 92t-39.5 93.5t-107.5 34.5h-241l-46 81l299 354l82 -43l-281 -312h178q72 0 127 -25.5z" />
    <glyph glyph-name="uniFEDC" unicode="&#x643;" horiz-adv-x="654" arabic-form="medial" 
d="M664 81v-71q0 -10 -10 -10q-88 0 -162 68q-29 -33 -74 -50.5t-101 -17.5h-317q-10 0 -10 10v71q0 9 10 9h310q69 0 108.5 33t39.5 92t-39.5 93.5t-107.5 34.5h-241l-46 81l299 354l82 -43l-281 -312h178q72 0 127 -25.5t84.5 -73t29.5 -110.5q0 -48 -13 -83
q58 -41 124 -41q10 0 10 -9z" />
    <glyph glyph-name="uniFEDE" unicode="&#x644;" horiz-adv-x="726" arabic-form="final" 
d="M736 81v-71q0 -10 -10 -10q-40 0 -72.5 14.5t-52.5 43.5q-9 -128 -79 -200.5t-206 -72.5q-126 0 -199.5 65.5t-73.5 193.5q0 107 44 241l69 -19q-35 -103 -35 -200q1 -94 53 -142.5t147 -48.5q100 0 148.5 56.5t48.5 174.5v377v237l85 13v-477v-58q0 -52 37 -80t86 -28
q10 0 10 -9z" />
    <glyph glyph-name="uniFEDF" unicode="&#x644;" horiz-adv-x="297" arabic-form="initial" 
d="M-10 10v71q0 9 11 9q63 0 94 32t31 98l1 497l84 13v-530q0 -200 -211 -200q-10 0 -10 10z" />
    <glyph glyph-name="uniFEE0" unicode="&#x644;" horiz-adv-x="325" arabic-form="medial" 
d="M334 81v-71q0 -10 -10 -10q-121 0 -172 65q-36 -34 -71 -49.5t-81 -15.5q-10 0 -10 10v71q0 9 10 9q72 0 121 42q-7 28 -7 68v517l85 13v-510q0 -66 30.5 -98t94.5 -32q10 0 10 -9z" />
    <glyph glyph-name="uniFEE2" unicode="&#x645;" horiz-adv-x="687" arabic-form="final" 
d="M696 81v-71q0 -10 -10 -10h-240q-95 0 -161 45t-88 127q-38 -7 -57 -33t-19 -75v-321l-84 -13l-1 345q0 167 151 186q1 64 30.5 115t81 80t115.5 29q61 0 111.5 -31t80 -82t29.5 -110q0 -39 -8.5 -79t-28.5 -93h88q10 0 10 -9zM523 90q19 50 27 87t8 71q0 39 -18 74.5
t-50 57t-71 21.5q-67 0 -107 -41.5t-40 -109.5q0 -72 45 -116t122 -44h84z" />
    <glyph glyph-name="uniFEE3" unicode="&#x645;" horiz-adv-x="542" arabic-form="initial" 
d="M388 455q52 -30 81.5 -82.5t29.5 -116.5q0 -120 -74.5 -188t-205.5 -68h-219q-10 0 -10 10v71q0 9 10 9h86q-45 93 -45 162q0 67 30 120t82.5 83t119.5 30q63 0 115 -30zM363 133q51 43 51 120q0 64 -41.5 105.5t-104.5 41.5q-40 0 -73 -20.5t-52 -55t-19 -73.5
q0 -72 50 -161h52q86 0 137 43z" />
    <glyph glyph-name="uniFEE4" unicode="&#x645;" horiz-adv-x="564" arabic-form="medial" 
d="M574 81v-71q0 -10 -10 -10h-242q-99 0 -166 49q-78 -49 -156 -49q-10 0 -10 10v71q0 9 10 9q52 0 99 22q-36 59 -36 141q0 66 29 119t81 83t117 30q61 0 112.5 -31t82 -82.5t30.5 -109.5q0 -78 -35 -172h84q10 0 10 -9zM398 90q18 51 26.5 88t8.5 70q0 39 -18 74.5
t-49.5 57t-70.5 21.5q-67 0 -107 -41.5t-40 -109.5q0 -72 45 -116t122 -44h83z" />
    <glyph glyph-name="uniFEE6" unicode="&#x646;" horiz-adv-x="717" arabic-form="final" 
d="M727 81v-71q0 -10 -10 -10q-38 0 -67.5 15t-48.5 44q-9 -128 -79 -201t-206 -73q-126 0 -199.5 65.5t-73.5 193.5q0 107 44 241l69 -19q-35 -103 -35 -200q1 -94 53 -142.5t147 -48.5q100 0 148.5 56.5t48.5 174.5v377l84 14v-288l1 -8q5 -63 36 -87t78 -24q10 0 10 -9z
M248 483l72 72l75 -72l-73 -73z" />
    <glyph glyph-name="uniFEE7" unicode="&#x646;" horiz-adv-x="278" arabic-form="initial" 
d="M-10 10l1 71q0 9 10 9q61 0 93.5 31.5t32.5 93.5l-1 268l85 14v-305q0 -92 -53.5 -142t-157.5 -50q-10 0 -10 10zM92 653l72 72l75 -72l-73 -73z" />
    <glyph glyph-name="uniFEE8" unicode="&#x646;" horiz-adv-x="331" arabic-form="medial" 
d="M341 81v-71q0 -10 -10 -10q-85 0 -159 65q-53 -65 -172 -65q-10 0 -10 10l1 71q0 9 10 9q61 0 93.5 31.5t32.5 93.5l-1 162l85 13v-198q0 -35 -7 -60q62 -42 127 -42q10 0 10 -9zM94 537l72 72l75 -72l-73 -73z" />
    <glyph glyph-name="uniFEE9" unicode="&#x647;" horiz-adv-x="811" arabic-form="isolated" 
d="M558 630q103 -44 156 -126t53 -192q0 -56 -15 -120t-45 -128l-81 -77q-62 -1 -134.5 13t-146.5 42q-54 -22 -96 -32t-87 -10q-70 0 -142 23l18 85q62 -18 117 -18q17 0 53 4q-47 33 -72 79t-25 101q0 60 28.5 108.5t78 76t110.5 27.5q63 0 112.5 -28.5t77.5 -76.5
t28 -106q0 -54 -25.5 -99t-72.5 -79q87 -21 177 -21q30 56 45 117t15 112q0 77 -40.5 142.5t-127.5 106t-217 40.5l9 80q146 0 249 -44zM231 364q-37 -38 -37 -99q0 -52 36 -94.5t97 -61.5q63 23 100 65t37 91q0 60 -39 98.5t-99 38.5q-58 0 -95 -38z" />
    <glyph glyph-name="uniFEEA" unicode="&#x647;" horiz-adv-x="583" arabic-form="final" 
d="M593 81v-71q0 -10 -10 -10q-92 0 -136 43q-51 -26 -94 -39t-87 -13q-67 0 -119.5 31.5t-81.5 86.5t-29 122t29.5 124.5t82 91.5t118.5 34q61 0 134 -28v62l84 14l1 -327q0 -60 23 -86t75 -26q10 0 10 -9zM410 111q-10 34 -10 83v174q-40 13 -69.5 20t-61.5 7
q-44 0 -79 -22t-54 -59t-19 -82q0 -67 43 -111t111 -44q64 0 139 34z" />
    <glyph glyph-name="uniFEEB" unicode="&#x647;" horiz-adv-x="785" arabic-form="initial" 
d="M522.5 630q106.5 -44 162.5 -126t56 -192q0 -57 -8.5 -108t-27.5 -127l-67 -77h-312q-96 0 -162 46q-36 -21 -80.5 -33.5t-83.5 -12.5q-10 0 -10 10v71q0 9 10 9q60 0 104 19q-37 60 -37 144q0 66 29 119t80.5 83t117.5 30q61 0 112.5 -31t82 -82.5t30.5 -109.5
q0 -76 -36 -172h143q33 117 33 215q0 76 -43.5 142t-133.5 106.5t-221 40.5l9 80q146 0 252.5 -44zM401 90q19 50 27 87t8 71q0 40 -18 75t-49 56.5t-70 21.5q-67 0 -107 -41.5t-40 -109.5q0 -72 45 -116t122 -44h82z" />
    <glyph glyph-name="uniFEEC" unicode="&#x647;" horiz-adv-x="547" arabic-form="medial" 
d="M561 81v-71q0 -10 -10 -10h-40v-15q0 -99 -56.5 -152t-164.5 -53q-92 0 -155 58.5t-83 162.5q-18 -1 -55 -1q-10 0 -10 10v71q0 9 10 9h46v6q0 124 56 246.5t169 236.5h77q71 -77 111.5 -159t40.5 -149q0 -113 -94 -181h148q10 0 10 -9zM125 94q150 9 219 49.5t69 125.5
q0 51 -30 114t-84 126q-79 -85 -126.5 -193t-47.5 -207v-15zM400.5 -105q36.5 31 36.5 90v15h-144l-11 34q-67 -19 -147 -27q17 -70 56.5 -106.5t100.5 -36.5q72 0 108.5 31z" />
    <glyph glyph-name="uniFEEE" unicode="&#x648;" horiz-adv-x="541" arabic-form="final" 
d="M551 81v-71q0 -10 -10 -10h-59q-18 -215 -372 -215l-10 73q139 0 213 34t84 108h-120q-70 0 -123 29t-82 82.5t-29 126.5q0 71 30 126t82.5 86t118.5 31q61 0 108.5 -28t74 -78.5t26.5 -117.5v-167h58q10 0 10 -9zM167 127q45 -40 121 -40q32 0 110 2v161
q0 65 -36.5 104.5t-95.5 39.5q-62 0 -103 -42t-41 -110q0 -75 45 -115z" />
    <glyph glyph-name="uniFEF0" unicode="&#x649;" horiz-adv-x="1014" arabic-form="final" 
d="M1024 81v-71q0 -10 -10 -10h-203v386h-81q-61 0 -94.5 -31.5t-33.5 -92.5v-182q0 -96 -26 -160.5t-89 -99.5t-171 -35q-126 0 -199.5 65.5t-73.5 193.5q0 107 44 241l69 -19q-35 -103 -35 -200q1 -94 53 -142.5t147 -48.5q73 0 116 20.5t62 67t19 126.5v188
q0 92 51.5 145.5t148.5 53.5h120l58 -51v-335h118q10 0 10 -9z" />
    <glyph glyph-name="uniFEF2" unicode="&#x64a;" horiz-adv-x="1014" arabic-form="final" 
d="M1024 81v-71q0 -10 -10 -10h-203v386h-81q-61 0 -94.5 -31.5t-33.5 -92.5v-182q0 -96 -26 -160.5t-89 -99.5t-171 -35q-126 0 -199.5 65.5t-73.5 193.5q0 107 44 241l69 -19q-35 -103 -35 -200q1 -94 53 -142.5t147 -48.5q73 0 116 20.5t62 67t19 126.5v188
q0 92 51.5 145.5t148.5 53.5h120l58 -51v-335h118q10 0 10 -9zM221 -347l73 72l73 -72l-73 -72zM379 -347l74 72l73 -72l-73 -72z" />
    <glyph glyph-name="uniFEF3" unicode="&#x64a;" horiz-adv-x="353" arabic-form="initial" 
d="M-10 10l1 71q0 9 10 9h76q61 0 93 31.5t32 93.5v268l84 14v-305q0 -92 -53 -142t-157 -50h-76q-10 0 -10 10zM-9 -151l73 72l73 -72l-73 -72zM149 -151l74 72l73 -72l-73 -72z" />
    <glyph glyph-name="uniFEF4" unicode="&#x64a;" horiz-adv-x="376" arabic-form="medial" 
d="M386 81v-71q0 -10 -10 -10q-45 0 -89 18.5t-83 54.5q-54 -73 -204 -73q-10 0 -10 10l1 71q0 9 10 9q80 0 116.5 29.5t36.5 95.5v162l84 13v-198q0 -25 -5 -52q67 -50 143 -50q10 0 10 -9zM33 -151l73 72l73 -72l-73 -72zM191 -151l74 72l73 -72l-73 -72z" />
    <glyph glyph-name=".notdef" horiz-adv-x="292" 
 />
    <glyph glyph-name=".null" 
 />
    <glyph glyph-name="nonmarkingreturn" horiz-adv-x="333" 
 />
    <glyph glyph-name="space" unicode=" " horiz-adv-x="240" 
 />
    <glyph glyph-name="exclam" unicode="!" horiz-adv-x="254" 
d="M97 180l-17 162v338h93v-338l-17 -162h-59zM87 0v104h79v-104h-79z" />
    <glyph glyph-name="quotedbl" unicode="&#x22;" horiz-adv-x="350" 
d="M77 465l-14 117v98h76v-98l-14 -117h-48zM226 465l-14 117v98h76v-98l-14 -117h-48z" />
    <glyph glyph-name="numbersign" unicode="#" horiz-adv-x="709" 
d="M656 466v-72h-134l-68 -129h162v-72h-196l-103 -193h-79l103 193h-122l-102 -193h-80l103 193h-90v72h124l68 129h-145v72h180l112 214h79l-111 -214h121l112 214h79l-112 -214h99zM321 394l-68 -129h123l68 129h-123z" />
    <glyph glyph-name="dollar" unicode="$" horiz-adv-x="580" 
d="M409 596q-61 17 -114 17q-146 0 -146 -97q0 -32 21 -54t53 -35t87 -30q74 -23 119 -44t77.5 -61.5t32.5 -104.5q0 -91 -61.5 -140t-155.5 -56v-116h-63v115q-118 6 -212 61v84q52 -33 113.5 -50.5t118.5 -17.5q69 0 116.5 27t47.5 86q0 36 -22.5 60.5t-56 39t-92.5 33.5
q-72 24 -114.5 44.5t-73 58t-30.5 96.5q0 85 58 128.5t147 48.5v116h63v-116q109 -7 199 -60v-84q-51 34 -112 51z" />
    <glyph glyph-name="percent" unicode="%" horiz-adv-x="802" 
d="M78 373.5q-40 51.5 -40 132.5t40 132.5t115 51.5q74 0 114 -51.5t40 -132.5t-40 -132.5t-114 -51.5q-75 0 -115 51.5zM391 370l166 310h73l-185 -310h-54zM117.5 606.5q-25.5 -37.5 -25.5 -100.5t25.5 -100.5t74.5 -37.5q50 0 75 37.5t25 100.5t-25 100.5t-75 37.5
q-49 0 -74.5 -37.5zM495 43.5q-40 51.5 -40 132.5t40 132.5t115 51.5q74 0 114 -51.5t40 -132.5t-40 -132.5t-114 -51.5q-75 0 -115 51.5zM535.5 276.5q-25.5 -37.5 -25.5 -100.5t25.5 -100.5t74.5 -37.5q50 0 75 37.5t25 100.5t-25 100.5t-75 37.5q-49 0 -74.5 -37.5z
M406 310l-166 -310h-73l184 310h55z" />
    <glyph glyph-name="ampersand" unicode="&#x26;" horiz-adv-x="675" 
d="M519 99q-80 -109 -234 -109q-104 0 -170 50t-66 140q0 74 40.5 120.5t96.5 70.5q-38 37 -56.5 72.5t-18.5 76.5q0 61 33 99t81 54.5t97 16.5q55 0 104 -14.5t98 -47.5v-76q-53 34 -98 50t-94 16q-46 0 -87.5 -21.5t-41.5 -73.5q0 -30 14.5 -55t37.5 -46.5t71 -60.5
l154 -131q28 64 28 153h87q0 -52 -9 -106t-28 -101l86 -73v-106zM236 327q-46 -26 -69 -57t-23 -80q0 -56 40 -90t104 -34q102 0 161 84l-170 142q-27 20 -43 35z" />
    <glyph glyph-name="quotesingle" unicode="'" horiz-adv-x="202" 
d="M77 465l-14 117v98h76v-98l-14 -117h-48z" />
    <glyph glyph-name="parenleft" unicode="(" horiz-adv-x="305" 
d="M220 712q-39 -74 -66.5 -172t-27.5 -200t27.5 -200t66.5 -172t74 -118h-64q-35 35 -78.5 106.5t-77 172.5t-33.5 211t33.5 211t77 172.5t78.5 106.5h64q-35 -44 -74 -118z" />
    <glyph glyph-name="parenright" unicode=")" horiz-adv-x="305" 
d="M83.5 -31.5q38.5 74.5 66.5 172t28 199.5t-28 199.5t-66.5 172t-73.5 118.5h64q34 -35 78 -106.5t77 -172t33 -211.5t-33 -211.5t-77 -172t-78 -106.5h-64q35 44 73.5 118.5z" />
    <glyph glyph-name="asterisk" unicode="*" horiz-adv-x="391" 
d="M338 478l-25 -45l-92 53v-106h-51v106l-92 -53l-25 45l91 52l-91 53l25 45l92 -54v106h51v-106l92 54l25 -45l-92 -53z" />
    <glyph glyph-name="plus" unicode="+" horiz-adv-x="571" 
d="M322 294v-205h-72v205h-205v72h204v204h72v-204h205v-72h-204z" />
    <glyph glyph-name="comma" unicode="," horiz-adv-x="181" 
d="M6 -125q18 47 30 102.5t15 111.5h80q-6 -65 -22.5 -114t-47.5 -105z" />
    <glyph glyph-name="hyphen" unicode="-" horiz-adv-x="468" 
d="M63 326h341v-72h-341v72z" />
    <glyph glyph-name="period" unicode="." horiz-adv-x="190" 
d="M51 0v89h88v-89h-88z" />
    <glyph glyph-name="slash" unicode="/" horiz-adv-x="484" 
d="M26 0l352 680h79l-351 -680h-80z" />
    <glyph glyph-name="zero" unicode="0" horiz-adv-x="703" 
d="M188 35.5q-67 45.5 -101 125t-34 179.5t34 179t101 125t163 46t163 -46t101.5 -125t34.5 -179t-34.5 -179.5t-101.5 -125t-163 -45.5t-163 45.5zM200 541q-52 -74 -52 -201t52 -201t151 -74t151.5 74t52.5 201t-52.5 201t-151.5 74t-151 -74z" />
    <glyph glyph-name="one" unicode="1" horiz-adv-x="470" 
d="M447 0h-400v77h153v516l-131 -74l-29 72l170 94h83v-608h140z" />
    <glyph glyph-name="two" unicode="2" horiz-adv-x="593" 
d="M289 690q104 0 172.5 -48t68.5 -141q0 -54 -28.5 -95.5t-68.5 -71.5t-108 -71q-60 -36 -93.5 -59.5t-56.5 -55t-23 -69.5h378l13 -79h-493v53q0 67 31 116t75 81.5t115 72.5q57 33 89 55.5t53.5 52t21.5 66.5q0 59 -44 88.5t-111 29.5q-48 0 -93.5 -17t-100.5 -50l-18 75
q116 67 221 67z" />
    <glyph glyph-name="three" unicode="3" horiz-adv-x="573" 
d="M485.5 294q39.5 -42 39.5 -108q0 -93 -67 -144.5t-190 -51.5q-64 0 -129 14t-114 43l28 67q107 -50 200 -50q179 0 179 129q0 62 -47 94t-131 32h-70v69h70q80 2 121 32.5t41 83.5q0 114 -149 114q-47 0 -89.5 -11.5t-99.5 -38.5l-28 67q100 57 231 57q104 0 164 -47
t60 -134q0 -58 -33.5 -98.5t-97.5 -58.5q72 -18 111.5 -60z" />
    <glyph glyph-name="four" unicode="4" horiz-adv-x="627" 
d="M490 150v-150h-94v150h-359v73l358 457h95v-457h113v-73h-113zM396 564l-265 -341h265v341z" />
    <glyph glyph-name="five" unicode="5" horiz-adv-x="590" 
d="M82 324q101 28 191 28q82 0 128.5 -36.5t46.5 -99.5q0 -76 -48.5 -114t-136.5 -38q-47 0 -92 12t-102 38l-28 -67q50 -30 112 -43.5t125 -13.5q124 0 194.5 60t70.5 168q0 92 -63 148t-177 56q-60 0 -135 -15l10 197h317l13 76h-409z" />
    <glyph glyph-name="six" unicode="6" horiz-adv-x="635" 
d="M439.5 607q-34.5 10 -77.5 10q-104 0 -158.5 -73t-54.5 -216q41 53 101 76t115 23q67 0 116 -28t75 -75t26 -103q0 -61 -28 -114t-84.5 -85t-137.5 -32q-134 0 -206.5 90.5t-72.5 243.5q0 97 31 180t97.5 134.5t169.5 51.5q57 0 101 -10.5t86 -33.5l-29 -68
q-35 19 -69.5 29zM176 166q20 -45 59 -73.5t96 -28.5q45 0 80.5 20t55.5 54.5t20 77.5q0 65 -41.5 104.5t-109.5 39.5q-57 0 -107.5 -28.5t-74.5 -69.5q2 -51 22 -96z" />
    <glyph glyph-name="seven" unicode="7" horiz-adv-x="530" 
d="M414 604h-381l14 76h463v-67l-297 -613h-91z" />
    <glyph glyph-name="eight" unicode="8" horiz-adv-x="637" 
d="M551 288.5q38 -37.5 38 -103.5q0 -61 -36 -105t-97.5 -67t-139.5 -23q-118 0 -193 47.5t-75 136.5q0 59 38 105.5t99 74.5q-46 24 -71 61.5t-25 94.5q0 86 65.5 133t167.5 47q62 0 113.5 -20t82 -60t30.5 -96q0 -104 -102 -165q67 -23 105 -60.5zM212 589.5
q-37 -30.5 -37 -77.5q0 -43 27.5 -69.5t64 -39.5t112.5 -34q41 29 62 63t21 80q0 47 -36.5 77.5t-106.5 30.5t-107 -30.5zM443 94q50 34 50 92q0 34 -22 56t-55.5 34.5t-91.5 28.5q-12 4 -33.5 10t-36.5 11q-110 -56 -110 -138q0 -59 46 -93.5t127 -34.5q76 0 126 34z" />
    <glyph glyph-name="nine" unicode="9" horiz-adv-x="635" 
d="M194.5 73.5q34.5 -9.5 78.5 -9.5q104 0 159 72.5t55 215.5q-41 -52 -101.5 -75.5t-114.5 -23.5q-67 0 -116.5 28t-75.5 75t-26 103q0 62 28 114.5t84.5 84.5t138.5 32q133 0 205.5 -90.5t72.5 -243.5q0 -97 -31 -180t-97.5 -134.5t-168.5 -51.5q-58 0 -101.5 10.5
t-86.5 34.5l29 68q34 -20 68.5 -29.5zM459 514.5q-20 45.5 -59.5 74t-96.5 28.5q-45 0 -80 -20t-55 -55t-20 -77q0 -66 41.5 -105.5t109.5 -39.5q57 0 107 28t75 70q-2 51 -22 96.5z" />
    <glyph glyph-name="colon" unicode=":" horiz-adv-x="208" 
d="M66 313v105h76v-105h-76zM66 73v105h76v-105h-76z" />
    <glyph glyph-name="semicolon" unicode=";" horiz-adv-x="244" 
d="M89 313v105h76v-105h-76zM165 -15q0 -50 -9.5 -76t-33.5 -36.5t-70 -10.5v59q14 0 21.5 3.5t11.5 17t4 43.5v119h76v-119z" />
    <glyph glyph-name="less" unicode="&#x3c;" horiz-adv-x="567" 
d="M62 280v100l441 106v-72l-355 -85l355 -84v-72z" />
    <glyph glyph-name="equal" unicode="=" horiz-adv-x="579" 
d="M69 466h441v-72h-441v72zM69 265h441v-72h-441v72z" />
    <glyph glyph-name="greater" unicode="&#x3e;" horiz-adv-x="567" 
d="M62 245l356 84l-356 85v72l441 -106v-100l-441 -107v72z" />
    <glyph glyph-name="question" unicode="?" horiz-adv-x="502" 
d="M310.5 383.5q57.5 30.5 58.5 105.5q0 63 -39.5 93.5t-103.5 30.5q-41 0 -91 -14.5t-96 -47.5v84q86 55 202 55q99 0 161 -48.5t62 -145.5q0 -106 -66 -150t-158 -51l-9 -115h-66l-1 173q89 0 146.5 30.5zM161 0v104h80v-104h-80z" />
    <glyph glyph-name="at" unicode="@" horiz-adv-x="808" 
d="M672.5 619.5q-76.5 70.5 -216.5 70.5q-121 0 -214 -53.5t-144.5 -152.5t-51.5 -230q0 -135 50.5 -237.5t149 -159.5t236.5 -57v69q-166 0 -259 100t-93 285q0 120 43 203.5t117 125t166 41.5q96 0 152.5 -49.5t56.5 -153.5v-22q-23 47 -68 72t-101 25q-99 0 -155 -67
t-56 -184t56 -184.5t155 -67.5q56 0 101 25.5t68 72.5v-88h84v414q0 132 -76.5 202.5zM623.5 106.5q-42.5 -47.5 -105.5 -47.5q-72 0 -108 51.5t-36 134.5t36 134.5t108 51.5q63 0 105.5 -47.5t42.5 -138.5t-42.5 -138.5z" />
    <glyph glyph-name="A" unicode="A" horiz-adv-x="713" 
d="M532 159h-351l-65 -159h-96l284 679l106 13l283 -685l-93 -14zM500 237l-144 351l-143 -351h287z" />
    <glyph glyph-name="B" unicode="B" horiz-adv-x="679" 
d="M608 500q0 -53 -26.5 -93t-76.5 -56q62 -12 92.5 -55.5t30.5 -106.5q0 -97 -60 -143t-180 -46h-300v680h274q246 0 246 -180zM473 407q40 22 40 86q0 63 -40.5 85.5t-117.5 22.5h-174v-216h174q78 0 118 22zM181 79h201q74 0 112.5 25t38.5 90t-38.5 90.5t-112.5 25.5
h-201v-231z" />
    <glyph glyph-name="C" unicode="C" horiz-adv-x="678" 
d="M526 5.5q-55 -15.5 -125 -15.5q-102 0 -181.5 42.5t-124.5 122t-45 185.5q0 107 45 186t126 121.5t184 42.5q70 0 125 -15.5t104 -45.5l-17 -82q-52 35 -103 49.5t-109 14.5q-77 0 -136 -32.5t-91.5 -94t-32.5 -144.5t32.5 -144.5t91 -94t133.5 -32.5q59 0 118.5 16
t109.5 51v-85q-49 -30 -104 -45.5z" />
    <glyph glyph-name="D" unicode="D" horiz-adv-x="747" 
d="M88 680h245q110 0 190.5 -43.5t123.5 -121t43 -175.5q0 -99 -43 -176t-123.5 -120.5t-190.5 -43.5h-245v680zM471.5 110.5q59.5 31.5 91.5 90.5t32 139q0 79 -32 138t-91.5 91t-139.5 32h-151v-522h151q80 0 139.5 31.5z" />
    <glyph glyph-name="E" unicode="E" horiz-adv-x="623" 
d="M88 680h472v-79h-379v-214h346l13 -78h-359v-230h389v-79h-482v680z" />
    <glyph glyph-name="F" unicode="F" horiz-adv-x="600" 
d="M88 680h469v-79h-376v-240h342l14 -79h-356v-282h-93v680z" />
    <glyph glyph-name="G" unicode="G" horiz-adv-x="693" 
d="M630 344v-305q-98 -49 -236 -49q-101 0 -179 42.5t-121.5 121.5t-43.5 186t43.5 186t121.5 121.5t179 42.5q70 0 125 -15.5t104 -45.5l-13 -82q-52 35 -103 49.5t-109 14.5q-75 0 -132.5 -32.5t-89 -94t-31.5 -144.5t31.5 -144.5t89 -94t132.5 -32.5q84 0 142 25v237z
" />
    <glyph glyph-name="H" unicode="H" horiz-adv-x="760" 
d="M671 687v-687h-93v309h-397v-309h-93v674l93 13v-300h397v287z" />
    <glyph glyph-name="I" unicode="I" horiz-adv-x="270" 
d="M88 0v674l93 13v-687h-93z" />
    <glyph glyph-name="J" unicode="J" horiz-adv-x="497" 
d="M417 207q0 -104 -63 -160.5t-179 -56.5q-81 0 -165 22l13 77q60 -20 144 -20q70 0 113.5 33.5t43.5 105.5v393h-207v79h300v-473z" />
    <glyph glyph-name="K" unicode="K" horiz-adv-x="659" 
d="M332 307h-151v-307h-93v680h93v-294h155l198 294h107l-229 -332l239 -345l-101 -13z" />
    <glyph glyph-name="L" unicode="L" horiz-adv-x="592" 
d="M88 674l93 13v-608h374l13 -79h-480v674z" />
    <glyph glyph-name="M" unicode="M" horiz-adv-x="887" 
d="M410 163l-237 357v-520h-85v680h92l263 -400l264 400h91v-673l-93 -14v527l-238 -357h-57z" />
    <glyph glyph-name="N" unicode="N" horiz-adv-x="763" 
d="M173 0h-85v680h92l409 -537v531l86 13v-687h-92l-410 540v-540z" />
    <glyph glyph-name="O" unicode="O" horiz-adv-x="820" 
d="M218.5 36q-81.5 46 -125 125.5t-43.5 178.5t43.5 178.5t125 125.5t191.5 46t191.5 -46t125 -125.5t43.5 -178.5t-43.5 -178.5t-125 -125.5t-191.5 -46t-191.5 46zM270 577q-60 -34 -92.5 -95.5t-32.5 -141.5t32.5 -141.5t92.5 -95.5t140 -34q81 0 141 34t92 95.5
t32 141.5t-32 141.5t-92 95.5t-141 34q-80 0 -140 -34z" />
    <glyph glyph-name="P" unicode="P" horiz-adv-x="653" 
d="M509.5 652q57.5 -28 87.5 -78.5t30 -115.5q0 -66 -30 -116.5t-87.5 -78.5t-137.5 -28h-191v-235h-93v680h284q80 0 137.5 -28zM486 351q45 37 45 107t-45 106.5t-117 36.5h-188v-287h188q72 0 117 37z" />
    <glyph glyph-name="Q" unicode="Q" horiz-adv-x="820" 
d="M737 182.5q-33 -71.5 -94 -118.5l71 -88l-67 -49l-76 94q-73 -31 -161 -31q-110 0 -191.5 46t-125 125.5t-43.5 178.5t43.5 178.5t125 125.5t191.5 46t191.5 -46t125 -125.5t43.5 -178.5q0 -86 -33 -157.5zM520 87l-94 129l54 39l109 -126q41 36 63.5 90.5t22.5 120.5
q0 80 -32 142t-92 97t-141 35q-80 0 -140 -35t-92.5 -97t-32.5 -142t32.5 -142t92.5 -96.5t140 -34.5q61 0 110 20z" />
    <glyph glyph-name="R" unicode="R" horiz-adv-x="675" 
d="M348 262h-167v-262h-93v680h291q117 0 178 -53t61 -155q0 -82 -45 -133.5t-127 -64.5l209 -271l-98 -13zM367 341q156 0 156 131q0 69 -41 99t-115 30h-186v-260h186z" />
    <glyph glyph-name="S" unicode="S" horiz-adv-x="587" 
d="M159.5 86q61.5 -17 119.5 -17q70 0 118 26t48 85q0 36 -22.5 60.5t-55.5 39t-92 33.5q-72 24 -114.5 44.5t-73 58t-30.5 96.5q0 90 66 134t165 44q124 0 236 -61l-14 -83q-103 65 -212 65q-66 0 -106 -20.5t-40 -74.5q0 -32 21 -54t53 -35t87 -30q73 -23 118 -44.5
t77 -61.5t32 -104q0 -100 -72.5 -148.5t-178.5 -48.5q-138 0 -242 61v86q51 -34 112.5 -51z" />
    <glyph glyph-name="T" unicode="T" horiz-adv-x="600" 
d="M253 601h-236v79h566l-13 -79h-223v-601h-94v601z" />
    <glyph glyph-name="U" unicode="U" horiz-adv-x="743" 
d="M173 687v-423q0 -90 50 -142.5t149 -52.5t148.5 52.5t49.5 142.5v410l93 13v-438q0 -72 -32 -130.5t-97 -93.5t-162 -35q-98 0 -164 36t-97 95t-31 128v425z" />
    <glyph glyph-name="V" unicode="V" horiz-adv-x="717" 
d="M116 687l243 -595l239 588h95l-284 -685h-106l-280 679z" />
    <glyph glyph-name="W" unicode="W" horiz-adv-x="1013" 
d="M774 -5h-106l-165 537l-160 -537h-103l-212 679l90 13l177 -580l164 573h91l171 -573l172 573h92z" />
    <glyph glyph-name="X" unicode="X" horiz-adv-x="645" 
d="M318 283l-207 -283h-104l256 351l-234 323l100 13l196 -268l186 261h103l-234 -328l259 -345l-101 -14z" />
    <glyph glyph-name="Y" unicode="Y" horiz-adv-x="657" 
d="M373 0h-93v234l-257 440l93 13l213 -365l205 358h99l-260 -448v-232z" />
    <glyph glyph-name="Z" unicode="Z" horiz-adv-x="587" 
d="M552 0h-517v67l388 534h-371v79h489v-67l-388 -534h385z" />
    <glyph glyph-name="bracketleft" unicode="[" horiz-adv-x="342" 
d="M79 830h231v-69h-152v-842h159v-69h-238v980z" />
    <glyph glyph-name="backslash" unicode="\" horiz-adv-x="484" 
d="M26 680h80l351 -680h-79z" />
    <glyph glyph-name="bracketright" unicode="]" horiz-adv-x="342" 
d="M25 -150v69h158v842h-152v69h232v-980h-238z" />
    <glyph glyph-name="asciicircum" unicode="^" horiz-adv-x="407" 
d="M346 294l-28 -39l-114 82l-115 -82l-27 39l142 119z" />
    <glyph glyph-name="underscore" unicode="_" horiz-adv-x="573" 
d="M66 -42h441v-72h-441v72z" />
    <glyph glyph-name="a" unicode="a" horiz-adv-x="584" 
d="M583 66v-66q-12 -4 -32 -7t-33 -3q-51 0 -75.5 22t-30.5 63q-38 -45 -87 -65t-102 -20q-79 0 -126 40.5t-47 104.5q0 83 65 124t170 41q58 0 125 -9v44q0 46 -34 75.5t-104 29.5q-93 0 -182 -42l-17 70q39 19 95 30.5t114 11.5q107 0 162.5 -48.5t55.5 -131.5v-217
q0 -27 9.5 -40.5t35.5 -13.5q23 0 38 7zM336 78.5q38 18.5 74 59.5v86q-53 9 -119 9q-149 0 -149 -87q0 -40 29.5 -63t79.5 -23q47 0 85 18.5z" />
    <glyph glyph-name="b" unicode="b" horiz-adv-x="627" 
d="M466.5 478q53.5 -32 83 -91t29.5 -137t-29.5 -137t-83 -91t-124.5 -32q-58 0 -102.5 24.5t-74.5 62.5l-7 -77h-83v717l90 13v-307q29 38 74 62.5t103 24.5q71 0 124.5 -32zM442.5 112.5q44.5 52.5 44.5 137.5t-44.5 137.5t-123.5 52.5q-43 0 -83 -19.5t-71 -55.5v-229
q31 -37 71 -56.5t83 -19.5q79 0 123.5 52.5z" />
    <glyph glyph-name="c" unicode="c" horiz-adv-x="535" 
d="M399.5 69.5q35.5 9.5 80.5 31.5l17 -67q-42 -21 -85.5 -32.5t-95.5 -11.5q-82 0 -142.5 32t-93 91t-32.5 137t32.5 137t93 91t142.5 32q52 0 95.5 -11.5t85.5 -32.5l-17 -67q-45 22 -80.5 31.5t-76.5 9.5q-82 0 -132.5 -51t-50.5 -139t50.5 -139t132.5 -51q41 0 76.5 9.5
z" />
    <glyph glyph-name="d" unicode="d" horiz-adv-x="627" 
d="M388 485.5q45 -24.5 74 -62.5v294l90 13v-730h-83l-7 77q-30 -38 -74.5 -62.5t-102.5 -24.5q-71 0 -124.5 32t-83 91t-29.5 137t29.5 137t83 91t124.5 32q58 0 103 -24.5zM391 80q40 20 70 56v229q-30 36 -70 55.5t-83 19.5q-80 0 -124 -52.5t-44 -137.5t44 -137.5
t124 -52.5q43 0 83 20z" />
    <glyph glyph-name="e" unicode="e" horiz-adv-x="587" 
d="M537 223h-395q8 -78 55.5 -122t130.5 -44q90 0 171 41l17 -64q-39 -20 -90 -32t-104 -12q-133 0 -203.5 69.5t-70.5 190.5q0 78 31.5 137t90 91t136.5 32q124 0 178 -69t54 -176q0 -30 -1 -42zM448 289q-1 71 -32.5 113t-112.5 42q-65 0 -108 -40.5t-52 -114.5h305z" />
    <glyph glyph-name="f" unicode="f" horiz-adv-x="387" 
d="M113 500v66q0 79 45.5 121.5t129.5 42.5q35 0 67.5 -5.5t54.5 -14.5l-18 -66q-38 16 -91 16q-50 0 -74 -24t-24 -72v-64h182v-70h-182v-430h-90v430h-82v70h82z" />
    <glyph glyph-name="g" unicode="g" horiz-adv-x="627" 
d="M552 11q0 -118 -70.5 -179.5t-204.5 -61.5q-56 0 -114.5 12.5t-95.5 31.5l17 67q41 -21 92.5 -31t97.5 -10q92 0 140 40t48 128v89q-30 -38 -74.5 -62.5t-102.5 -24.5q-70 0 -123.5 30.5t-83.5 87t-30 132.5t30 132.5t83.5 87t123.5 30.5q58 0 103 -24.5t74 -62.5l7 77
h83v-489zM461 365q-30 36 -70 55.5t-83 19.5q-78 0 -123 -49.5t-45 -130.5t45 -130.5t123 -49.5q43 0 83 20t70 56v209z" />
    <glyph glyph-name="h" unicode="h" horiz-adv-x="589" 
d="M472 462q47 -48 47 -135v-327h-90v325q0 55 -32 85t-91 30q-81 0 -141 -72v-368h-90v717l90 13v-306q63 86 173 86q87 0 134 -48z" />
    <glyph glyph-name="i" unicode="i" horiz-adv-x="240" 
d="M52 658l69 66l67 -66l-67 -67zM75 0v500h90v-500h-90z" />
    <glyph glyph-name="j" unicode="j" horiz-adv-x="240" 
d="M52 658l69 66l67 -66l-67 -67zM129 -190.5q-36 -39.5 -105 -39.5q-23 0 -48 3t-39 7l13 68q26 -8 57 -8q36 0 52 21t16 59v580h90v-579q0 -72 -36 -111.5z" />
    <glyph glyph-name="k" unicode="k" horiz-adv-x="552" 
d="M259 222h-94v-222h-90v717l90 13v-438h89l168 208h98l-188 -238l216 -262h-102z" />
    <glyph glyph-name="l" unicode="l" horiz-adv-x="240" 
d="M75 717l90 13v-730h-90v717z" />
    <glyph glyph-name="m" unicode="m" horiz-adv-x="935" 
d="M818 462q47 -48 47 -135v-327h-90v325q0 55 -32 85t-91 30q-81 0 -140 -72q3 -19 3 -41v-327h-90v325q0 55 -32 85t-91 30q-43 0 -76 -18.5t-61 -53.5v-368h-90v500h83l7 -76q63 86 169 86q64 0 106.5 -26t60.5 -74q66 100 183 100q87 0 134 -48z" />
    <glyph glyph-name="n" unicode="n" horiz-adv-x="589" 
d="M472 462q47 -48 47 -135v-327h-90v325q0 55 -32 85t-91 30q-81 0 -141 -72v-368h-90v500h83l7 -76q63 86 173 86q87 0 134 -48z" />
    <glyph glyph-name="o" unicode="o" horiz-adv-x="633" 
d="M460 475q61 -35 93 -94t32 -131t-32 -131t-93 -94t-143 -35q-83 0 -144 35t-93 94t-32 131t32 131t93 94t144 35q82 0 143 -35zM413 86q40 26 60 69.5t20 94.5q0 50 -20 93.5t-60 70t-97 26.5t-96.5 -26.5t-59.5 -70t-20 -93.5q0 -51 20 -94.5t59.5 -69.5t96.5 -26t97 26
z" />
    <glyph glyph-name="p" unicode="p" horiz-adv-x="627" 
d="M239.5 14.5q-44.5 24.5 -74.5 62.5v-294l-90 -13v730h83l7 -77q29 38 74 62.5t103 24.5q71 0 124.5 -32t83 -91t29.5 -137t-29.5 -137t-83 -91t-124.5 -32q-58 0 -102.5 24.5zM236 420.5q-40 -19.5 -71 -55.5v-229q31 -37 71 -56.5t83 -19.5q79 0 123.5 52.5t44.5 137.5
t-44.5 137.5t-123.5 52.5q-43 0 -83 -19.5z" />
    <glyph glyph-name="q" unicode="q" horiz-adv-x="627" 
d="M160.5 22q-53.5 32 -83 91t-29.5 137t29.5 137t83 91t124.5 32q58 0 103 -24.5t74 -62.5l7 77h83v-717l-90 -13v307q-30 -38 -74.5 -62.5t-102.5 -24.5q-71 0 -124.5 32zM184 387.5q-44 -52.5 -44 -137.5t44 -137.5t124 -52.5q43 0 83 20t70 56v229q-30 36 -70 55.5
t-83 19.5q-80 0 -124 -52.5z" />
    <glyph glyph-name="r" unicode="r" horiz-adv-x="389" 
d="M247.5 392.5q-53.5 -27.5 -82.5 -70.5v-322h-90v500h83l6 -114q28 56 80 90t114 34l9 -90q-66 0 -119.5 -27.5z" />
    <glyph glyph-name="s" unicode="s" horiz-adv-x="495" 
d="M160 329.5q17 -15.5 42.5 -24t70.5 -19.5q57 -13 93 -26t61 -41t25 -75q0 -76 -54 -115t-153 -39q-56 0 -110 11.5t-92 31.5l18 68q42 -21 90.5 -32t91.5 -11q55 0 86 20.5t31 62.5q0 25 -17 41t-43 25t-70 19q-57 14 -92.5 27t-60.5 41.5t-25 75.5q0 70 53 105t143 35
q56 0 110.5 -11.5t91.5 -30.5l-17 -68q-42 21 -91 31.5t-92 10.5q-49 0 -78 -18t-29 -54q0 -25 17 -40.5z" />
    <glyph glyph-name="t" unicode="t" horiz-adv-x="390" 
d="M203 500h177v-70h-177v-291q0 -79 93 -79q24 0 41.5 3.5t39.5 12.5l13 -66q-54 -20 -118 -20q-82 0 -120.5 39.5t-38.5 107.5v293h-82v70h82v163l90 17v-180z" />
    <glyph glyph-name="u" unicode="u" horiz-adv-x="589" 
d="M513 500v-500h-82l-7 76q-65 -86 -173 -86q-87 0 -134 48t-47 135v324l90 13v-335q0 -55 32 -85t91 -30q80 0 140 72v368h90z" />
    <glyph glyph-name="v" unicode="v" horiz-adv-x="584" 
d="M458 500h99l-227 -509h-77l-227 509h99l169 -389z" />
    <glyph glyph-name="w" unicode="w" horiz-adv-x="847" 
d="M462 500l138 -396l130 396h90l-174 -509h-88l-138 385l-132 -385h-87l-175 509h91l130 -396l132 396h83z" />
    <glyph glyph-name="x" unicode="x" horiz-adv-x="525" 
d="M260 195l-147 -195h-100l197 261l-183 239h101l136 -179l133 179h97l-179 -238l197 -262h-105z" />
    <glyph glyph-name="y" unicode="y" horiz-adv-x="590" 
d="M563 500l-249 -546q-42 -94 -90.5 -139t-125.5 -45q-17 0 -41 3.5t-37 8.5l13 67q34 -9 63 -9q42 0 72 25t61 89l23 49l-226 497h95l177 -392l170 392h95z" />
    <glyph glyph-name="z" unicode="z" horiz-adv-x="487" 
d="M434 440l-288 -370h307v-70h-420v60l288 370h-276v70h389v-60z" />
    <glyph glyph-name="braceleft" unicode="{" horiz-adv-x="343" 
d="M156.5 -105.5q-58.5 37.5 -58.5 137.5q0 32 10 98t10 97q0 44 -21 62.5t-65 18.5v64q44 0 65 18.5t21 62.5q0 30 -10 96q-10 68 -10 100q0 99 58.5 136.5t156.5 37.5v-65q-71 0 -97.5 -27t-26.5 -85q0 -28 10 -92q1 -10 5 -40.5t4 -52.5q0 -48 -25 -80t-76 -41
q51 -9 76 -41t25 -80q0 -22 -4 -52t-5 -39q-10 -64 -10 -94q0 -58 26.5 -85t97.5 -27v-65q-98 0 -156.5 37.5z" />
    <glyph glyph-name="bar" unicode="|" horiz-adv-x="223" 
d="M79 805h64v-930h-64v930z" />
    <glyph glyph-name="braceright" unicode="}" horiz-adv-x="343" 
d="M245.5 289.5q-21.5 -18.5 -21.5 -62.5q0 -31 10 -97t10 -98q0 -100 -58.5 -137.5t-156.5 -37.5v65q72 0 98.5 27t26.5 85q0 30 -10 94q-1 9 -5 39t-4 52q0 48 24.5 80t75.5 41q-51 9 -75.5 41t-24.5 80q0 27 10 93q1 9 5 39t4 53q0 58 -26.5 85t-98.5 27v65
q98 0 156.5 -37t58.5 -137q0 -32 -10 -100q-10 -66 -10 -96q0 -44 21.5 -62.5t65.5 -18.5v-64q-44 0 -65.5 -18.5z" />
    <glyph glyph-name="asciitilde" unicode="~" horiz-adv-x="490" 
d="M406 307.5q-20 -22.5 -56 -22.5q-27 0 -111 20q-8 2 -40.5 9t-45.5 7q-31 0 -31 -36h-55q0 54 20 76t56 22q19 0 60 -9t47 -10q76 -16 90 -16q31 0 31 35h55q0 -53 -20 -75.5z" />
    <glyph glyph-name="exclamdown" unicode="&#xa1;" horiz-adv-x="238" 
d="M158 396h-79v104h79v-104zM165 158v-338h-93v338l17 162h59z" />
    <glyph glyph-name="cent" unicode="&#xa2;" horiz-adv-x="536" 
d="M401 421.5q-41 18.5 -93 18.5q-76 0 -122.5 -50.5t-46.5 -139.5t46.5 -139.5t122.5 -50.5q52 0 93 18.5t78 57.5v-81q-25 -24 -64.5 -42.5t-92.5 -21.5v-116h-63v118q-100 11 -158 79.5t-58 177.5t58 177.5t158 79.5v123h63v-121q54 -3 93 -21t64 -43v-81
q-37 39 -78 57.5z" />
    <glyph glyph-name="sterling" unicode="&#xa3;" horiz-adv-x="654" 
d="M594 0h-545v80h82v211h-82v72h82v132q0 97 66.5 146t170.5 49q118 0 222 -61v-84q-54 34 -108 51t-99 17q-68 0 -113.5 -31t-45.5 -95v-124h266v-72h-266v-211h370v-80z" />
    <glyph glyph-name="currency" unicode="&#xa4;" horiz-adv-x="744" 
d="M570 596q-58 17 -116 17q-88 0 -149 -46.5t-83 -129.5h228v-54h-241q-1 -14 -1 -43q0 -17 2 -47h240v-55h-226q23 -80 83 -125.5t147 -45.5q58 0 116 17t109 52v-85q-50 -30 -105 -45.5t-124 -15.5q-127 0 -214.5 65.5t-114.5 182.5h-79v55h69q-3 23 -3 47q0 22 3 43h-69
v54h77q27 119 115 186t216 67q70 0 125 -15.5t104 -45.5v-85q-51 35 -109 52z" />
    <glyph glyph-name="yen" unicode="&#xa5;" horiz-adv-x="672" 
d="M558 280v-72h-175v-208h-94v208h-176v72h150l-234 400h100l209 -358l204 358h101l-234 -400h149z" />
    <glyph glyph-name="brokenbar" unicode="&#xa6;" horiz-adv-x="226" 
d="M81 805h64v-380h-64v380zM81 255h64v-380h-64v380z" />
    <glyph glyph-name="section" unicode="&#xa7;" horiz-adv-x="598" 
d="M293 691q-100 0 -168 -44t-68 -138q0 -59 30.5 -94t76.5 -53.5t124 -38.5q92 -24 150 -48.5t96 -71.5q9 24 9 46q0 48 -30 78t-72.5 45.5t-113.5 33.5q-60 15 -94 26.5t-57.5 32t-23.5 52.5q0 96 152 96q53 0 111 -17t109 -51v85q-104 61 -231 61zM307 -200q100 0 168 44
t68 138q0 59 -32.5 95t-80 55t-128.5 40q-63 17 -102 30t-75 34t-59 52q-9 -22 -9 -46q0 -48 30 -77.5t72.5 -45t112.5 -32.5q60 -14 94.5 -26t58 -33t23.5 -53q0 -97 -152 -97q-53 0 -114 17t-112 51v-85q107 -61 237 -61z" />
    <glyph glyph-name="copyright" unicode="&#xa9;" horiz-adv-x="497" 
d="M148 307q-46 27 -73 73t-27 100q0 55 27 100.5t73 72.5t100 27q55 0 100.5 -27t72.5 -72.5t27 -100.5q0 -54 -27 -100t-72.5 -73t-100.5 -27q-54 0 -100 27zM340.5 320q42.5 25 67.5 67.5t25 92.5t-25 92.5t-67.5 67.5t-92.5 25t-92.5 -25t-67.5 -67.5t-25 -92.5
t25 -92.5t67.5 -67.5t92.5 -25t92.5 25zM252 357q-54 0 -86.5 33t-32.5 90t32.5 90t86.5 33q45 0 80 -22v-31q-40 24 -78 24q-40 0 -63 -25.5t-23 -68.5t24 -68t63 -25q45 0 77 24v-32q-37 -22 -80 -22z" />
    <glyph glyph-name="guillemotleft" unicode="&#xab;" horiz-adv-x="523" 
d="M114 250l159 -194h-64l-168 194l168 194h64zM314 250l159 -194h-64l-168 194l168 194h64z" />
    <glyph glyph-name="logicalnot" unicode="&#xac;" horiz-adv-x="575" 
d="M502 193h-72v201h-369v72h441v-273z" />
    <glyph glyph-name="uni00AD" unicode="&#xad;" horiz-adv-x="468" 
d="M63 326h341v-72h-341v72z" />
    <glyph glyph-name="registered" unicode="&#xae;" horiz-adv-x="497" 
d="M148 307q-46 27 -73 73t-27 100q0 55 27 100.5t73 72.5t100 27q55 0 100.5 -27t72.5 -72.5t27 -100.5q0 -54 -27 -100t-72.5 -73t-100.5 -27q-54 0 -100 27zM340.5 320q42.5 25 67.5 67.5t25 92.5t-25 92.5t-67.5 67.5t-92.5 25t-92.5 -25t-67.5 -67.5t-25 -92.5
t25 -92.5t67.5 -67.5t92.5 -25t92.5 25zM351 361l-72 100q28 4 43.5 21.5t15.5 45.5q0 71 -84 71h-89v-238h36v96h42l69 -96h39zM200 570h50q26 0 39 -10t13 -32q0 -44 -52 -42h-50v84z" />
    <glyph glyph-name="degree" unicode="&#xb0;" horiz-adv-x="282" 
d="M76 533q-27 27 -27 65t27 65t65 27t65 -27t27 -65t-27 -65t-65 -27t-65 27zM173.5 565.5q13.5 13.5 13.5 32.5t-13.5 33t-32.5 14t-33 -14t-14 -33t14 -32.5t33 -13.5t32.5 13.5z" />
    <glyph glyph-name="plusminus" unicode="&#xb1;" horiz-adv-x="596" 
d="M538 341h-204v-158h-72v158h-205v72h204v157h72v-157h205v-72zM538 143v-73h-481v73h481z" />
    <glyph glyph-name="paragraph" unicode="&#xb6;" horiz-adv-x="599" 
d="M99.5 317q-63.5 55 -63.5 154t63.5 154t180.5 55h92v-680h-75v262h-17q-117 0 -180.5 55zM435 0v680h72v-680h-72z" />
    <glyph glyph-name="periodcentered" unicode="&#xb7;" horiz-adv-x="208" 
d="M60 199v89h89v-89h-89z" />
    <glyph glyph-name="guillemotright" unicode="&#xbb;" horiz-adv-x="523" 
d="M113 444l167 -194l-167 -194h-65l160 194l-160 194h65zM313 444l167 -194l-167 -194h-65l160 194l-160 194h65z" />
    <glyph glyph-name="questiondown" unicode="&#xbf;" horiz-adv-x="495" 
d="M338 500v-104h-80v104h80zM188 116.5q-58 -30.5 -59 -105.5q0 -63 40 -93.5t104 -30.5q41 0 90.5 14.5t95.5 47.5v-84q-86 -55 -202 -55q-99 0 -161 48.5t-62 145.5q0 106 66 150t159 51l8 115h66l2 -173q-89 0 -147 -30.5z" />
    <glyph glyph-name="multiply" unicode="&#xd7;" horiz-adv-x="500" 
d="M471 497l-51 51l-167 -167l-168 167l-51 -51l168 -168l-168 -167l51 -51l168 167l167 -167l51 51l-167 167z" />
    <glyph glyph-name="divide" unicode="&#xf7;" horiz-adv-x="569" 
d="M258 455v104h80v-104h-80zM65 366h441v-72h-441v72zM258 104v104h80v-104h-80z" />
    <glyph glyph-name="uni060C" unicode="&#x60c;" horiz-adv-x="197" 
d="M191 233q-38 -98 -45 -213h-79q6 64 22 112.5t47 105.5z" />
    <glyph glyph-name="uni061B" unicode="&#x61b;" horiz-adv-x="269" 
d="M71 0v89h88v-89h-88zM215 614q-38 -98 -45 -213h-79q6 64 22 112.5t47 105.5z" />
    <glyph glyph-name="uni061F" unicode="&#x61f;" horiz-adv-x="487" 
d="M476 605l-56 -52q-50 47 -95 70.5t-90 23.5q-53 0 -87.5 -29.5t-34.5 -78.5q0 -27 12 -47.5t32.5 -38t62.5 -46.5q59 -41 85 -79t27 -99l-47 -28h-41v19q0 43 -22 72.5t-74 66.5q-40 28 -65 51.5t-41 55.5t-16 75q0 55 27.5 97t75 65t106.5 23q120 0 241 -121zM258 89h88
v-89h-88v89z" />
    <glyph glyph-name="uni0621" unicode="&#x621;" horiz-adv-x="512" 
d="M485 90l-23 -90h-434v90h117q-25 41 -36 76.5t-11 72.5q0 50 24.5 90.5t67.5 63.5t95 23q37 0 73 -8.5t90 -28.5l-24 -73q-43 16 -70 21.5t-55 5.5q-58 0 -92 -32.5t-34 -88.5q0 -53 44 -122h268z" />
    <glyph glyph-name="uni0622" unicode="&#x622;" horiz-adv-x="257" 
d="M90 590l85 13v-603h-85v590zM93.5 756.5q12.5 -4.5 33.5 -13.5q36 -19 63 -19q18 0 40 6.5t38 17.5l-1 -59q-37 -23 -77 -23q-17 0 -31.5 5t-32.5 15q-32 17 -53 17q-20 0 -32 -10t-15 -29h-49q2 44 25.5 70.5t63.5 26.5q15 0 27.5 -4.5z" />
    <glyph glyph-name="uni0623" unicode="&#x623;" horiz-adv-x="257" 
d="M90 590l85 13v-603h-85v590zM254 713l-13 -57h-226v57h54q-16 26 -16 58q0 37 25.5 61.5t65.5 24.5q34 0 77 -19v-49q-35 15 -64 15q-22 0 -36 -12.5t-14 -31.5q0 -27 17 -47h130z" />
    <glyph glyph-name="uni0624" unicode="&#x624;" horiz-adv-x="546" 
d="M382.5 453q47.5 -28 74 -78.5t26.5 -117.5v-234q0 -123 -97 -180.5t-276 -57.5l-10 73q151 0 225 40.5t74 128.5v2q-64 -29 -124 -29q-69 0 -121.5 29t-81.5 83t-29 126q0 71 30 126t82.5 86t118.5 31q61 0 108.5 -28zM399 106v144q0 64 -37 104t-96 40q-62 0 -103 -42
t-41 -110q0 -74 42 -114.5t114 -40.5q67 0 121 19zM397 637l-20 -67h-237v67h61q-19 29 -19 62q0 44 29.5 71.5t76.5 27.5q37 0 77 -20v-61q-44 15 -68 15q-26 0 -41.5 -13t-15.5 -35q0 -25 19 -47h138z" />
    <glyph glyph-name="uni0625" unicode="&#x625;" horiz-adv-x="254" 
d="M87 717l85 13v-730h-85v717zM207 -196l-13 -57h-226v57h55q-16 26 -16 58q0 37 25.5 61.5t64.5 24.5q35 0 78 -19v-49q-35 15 -64 15q-22 0 -36 -12t-14 -32q0 -29 17 -47h129z" />
    <glyph glyph-name="uni0626" unicode="&#x626;" horiz-adv-x="956" 
d="M896 425v-422l-85 -13v396h-81q-61 0 -94.5 -31.5t-33.5 -92.5v-182q0 -96 -26 -160.5t-89 -99.5t-171 -35q-126 0 -199.5 65.5t-73.5 193.5q0 107 44 241l69 -19q-35 -103 -35 -200q1 -94 53 -142.5t147 -48.5q73 0 116 20.5t62 67t19 126.5v188q0 92 51.5 145.5
t148.5 53.5h120zM274 433l-20 -67h-237v67h61q-19 29 -19 62q0 44 29.5 71.5t76.5 27.5q37 0 77 -20v-61q-44 15 -68 15q-26 0 -41.5 -13t-15.5 -35q0 -25 19 -47h138z" />
    <glyph glyph-name="uni0627" unicode="&#x627;" horiz-adv-x="254" 
d="M87 717l85 13v-730h-85v717z" />
    <glyph glyph-name="uni0628" unicode="&#x628;" horiz-adv-x="831" 
d="M765 497v-305q0 -92 -53.5 -142t-157.5 -50h-267q-119 0 -181.5 55t-62.5 162q0 73 21 171l75 -10q-16 -89 -16 -137q0 -78 46 -114.5t138 -36.5h247q126 0 126 125v268zM355 -150l72 73l75 -73l-73 -72z" />
    <glyph glyph-name="uni0629" unicode="&#x629;" horiz-adv-x="524" 
d="M143.5 22.5q-52.5 31.5 -81.5 86.5t-29 122t29.5 124.5t82 91.5t118.5 34q65 0 117 -34t81.5 -91.5t29.5 -124.5t-29 -122t-81 -86.5t-118 -31.5q-67 0 -119.5 31.5zM366.5 125q40.5 43 40.5 107q0 43 -18.5 79.5t-51.5 58t-74 21.5q-42 0 -75.5 -21.5t-52 -58
t-18.5 -79.5q0 -64 41 -107t105 -43q63 0 103.5 43zM110 645l73 72l73 -72l-73 -72zM268 645l74 72l73 -72l-73 -72z" />
    <glyph glyph-name="uni062A" unicode="&#x62a;" horiz-adv-x="831" 
d="M765 497v-305q0 -92 -53.5 -142t-157.5 -50h-267q-119 0 -181.5 55t-62.5 162q0 73 21 171l75 -10q-16 -89 -16 -137q0 -78 46 -114.5t138 -36.5h247q126 0 126 125v268zM253 531l73 72l73 -72l-73 -72zM411 531l74 72l73 -72l-73 -72z" />
    <glyph glyph-name="uni062B" unicode="&#x62b;" horiz-adv-x="831" 
d="M765 497v-305q0 -92 -53.5 -142t-157.5 -50h-267q-119 0 -181.5 55t-62.5 162q0 73 21 171l75 -10q-16 -89 -16 -137q0 -78 46 -114.5t138 -36.5h247q126 0 126 125v268zM347 655l52 53l53 -53l-52 -52zM243 533l73 72l73 -72l-72 -73zM408 533l74 72l73 -72l-73 -73z
" />
    <glyph glyph-name="uni062C" unicode="&#x62c;" horiz-adv-x="625" 
d="M421 -179.5q46 8.5 119 28.5l23 -73q-141 -51 -249 -51q-126 0 -199 61.5t-73 174.5q0 124 109 202.5t333 98.5q-76 74 -126.5 114t-89.5 56.5t-79 16.5q-21 0 -41 -3.5t-56 -12.5l-18 76q75 28 127 28q48 0 95.5 -21.5t114 -75t174.5 -155.5l-35 -95q-135 -1 -231 -29
t-145.5 -77.5t-49.5 -114.5q0 -75 54.5 -116t153.5 -41q43 0 89 8.5zM289 14l72 73l75 -73l-73 -72z" />
    <glyph glyph-name="uni062D" unicode="&#x62d;" horiz-adv-x="625" 
d="M421 -179.5q46 8.5 119 28.5l23 -73q-141 -51 -249 -51q-126 0 -199 61.5t-73 174.5q0 124 109 202.5t333 98.5q-76 74 -126.5 114t-89.5 56.5t-79 16.5q-21 0 -41 -3.5t-56 -12.5l-18 76q75 28 127 28q48 0 95.5 -21.5t114 -75t174.5 -155.5l-35 -95q-135 -1 -231 -29
t-145.5 -77.5t-49.5 -114.5q0 -75 54.5 -116t153.5 -41q43 0 89 8.5z" />
    <glyph glyph-name="uni062E" unicode="&#x62e;" horiz-adv-x="625" 
d="M421 -179.5q46 8.5 119 28.5l23 -73q-141 -51 -249 -51q-126 0 -199 61.5t-73 174.5q0 124 109 202.5t333 98.5q-76 74 -126.5 114t-89.5 56.5t-79 16.5q-21 0 -41 -3.5t-56 -12.5l-18 76q75 28 127 28q48 0 95.5 -21.5t114 -75t174.5 -155.5l-35 -95q-135 -1 -231 -29
t-145.5 -77.5t-49.5 -114.5q0 -75 54.5 -116t153.5 -41q43 0 89 8.5zM349 637l72 72l75 -72l-73 -73z" />
    <glyph glyph-name="uni062F" unicode="&#x62f;" horiz-adv-x="516" 
d="M10 90h252q61 0 93.5 30t32.5 85l-1 58q-1 61 -43.5 99t-108.5 38h-59v88h77q63 0 112.5 -26.5t78 -75t28.5 -112.5l1 -82q-1 -92 -54.5 -142t-157.5 -50h-234z" />
    <glyph glyph-name="uni0630" unicode="&#x630;" horiz-adv-x="516" 
d="M10 90h252q61 0 93.5 30t32.5 85l-1 58q-1 61 -43.5 99t-108.5 38h-59v88h77q63 0 112.5 -26.5t78 -75t28.5 -112.5l1 -82q-1 -92 -54.5 -142t-157.5 -50h-234zM165 656l72 72l75 -72l-73 -73z" />
    <glyph glyph-name="uni0631" unicode="&#x631;" horiz-adv-x="299" 
d="M-30 -142q87 0 133.5 42t46.5 130l-1 453l85 14v-470q0 -125 -64 -183.5t-192 -58.5z" />
    <glyph glyph-name="uni0632" unicode="&#x632;" horiz-adv-x="299" 
d="M-30 -142q87 0 133.5 42t46.5 130l-1 453l85 14v-470q0 -125 -64 -183.5t-192 -58.5zM120 646l72 72l75 -72l-73 -73z" />
    <glyph glyph-name="uni0633" unicode="&#x633;" horiz-adv-x="1309" 
d="M1251 497v-305q0 -92 -50.5 -142t-148.5 -50q-79 0 -166 53q-53 -53 -152 -53q-63 0 -134 42q-13 -120 -83 -188.5t-201 -68.5q-126 0 -199.5 65.5t-73.5 193.5q0 107 44 241l69 -19q-35 -103 -35 -200q1 -94 53 -142.5t147 -48.5q100 0 148.5 56.5t48.5 174.5v377l84 14
v-372q31 -16 64.5 -25.5t60.5 -9.5q126 0 126 125v162l85 13v-198q0 -40 -13 -77q62 -25 116 -25q61 0 93 31.5t32 93.5v268z" />
    <glyph glyph-name="uni0634" unicode="&#x634;" horiz-adv-x="1309" 
d="M1251 497v-305q0 -92 -50.5 -142t-148.5 -50q-79 0 -166 53q-53 -53 -152 -53q-63 0 -134 42q-13 -120 -83 -188.5t-201 -68.5q-126 0 -199.5 65.5t-73.5 193.5q0 107 44 241l69 -19q-35 -103 -35 -200q1 -94 53 -142.5t147 -48.5q100 0 148.5 56.5t48.5 174.5v377l84 14
v-372q31 -16 64.5 -25.5t60.5 -9.5q126 0 126 125v162l85 13v-198q0 -40 -13 -77q62 -25 116 -25q61 0 93 31.5t32 93.5v268zM840 729l52 53l53 -53l-52 -52zM736 607l73 72l73 -72l-72 -73zM901 607l74 72l73 -72l-73 -73z" />
    <glyph glyph-name="uni0635" unicode="&#x635;" horiz-adv-x="1252" 
d="M1102 465.5q50 -27.5 78 -76t28 -109.5q0 -46 -7.5 -83.5t-28.5 -119.5l-67 -77h-512q-20 -102 -88.5 -158.5t-188.5 -56.5q-126 0 -199.5 65.5t-73.5 193.5q0 107 44 241l69 -19q-35 -103 -35 -200q1 -94 53 -142.5t147 -48.5q100 0 148.5 56.5t48.5 174.5v377l84 14
v-119q154 66 233.5 90.5t154.5 24.5q62 0 112 -27.5zM1115.5 189.5q7.5 39.5 7.5 78.5q-1 60 -43.5 98.5t-107.5 38.5q-60 0 -116 -15.5t-201 -67.5l-53 -19v-206v-7h488q18 60 25.5 99.5z" />
    <glyph glyph-name="uni0636" unicode="&#x636;" horiz-adv-x="1252" 
d="M1102 465.5q50 -27.5 78 -76t28 -109.5q0 -46 -7.5 -83.5t-28.5 -119.5l-67 -77h-512q-20 -102 -88.5 -158.5t-188.5 -56.5q-126 0 -199.5 65.5t-73.5 193.5q0 107 44 241l69 -19q-35 -103 -35 -200q1 -94 53 -142.5t147 -48.5q100 0 148.5 56.5t48.5 174.5v377l84 14
v-119q154 66 233.5 90.5t154.5 24.5q62 0 112 -27.5zM1115.5 189.5q7.5 39.5 7.5 78.5q-1 60 -43.5 98.5t-107.5 38.5q-60 0 -116 -15.5t-201 -67.5l-53 -19v-206v-7h488q18 60 25.5 99.5zM728 657l72 72l75 -72l-73 -73z" />
    <glyph glyph-name="uni0637" unicode="&#x637;" horiz-adv-x="899" 
d="M749 465.5q50 -27.5 78 -76t28 -109.5q0 -46 -7.5 -83.5t-28.5 -119.5l-67 -77h-548h-42h-129l-16 90h145v627l85 13v-353q154 66 234.5 91t155.5 25q62 0 112 -27.5zM762.5 189.5q7.5 39.5 7.5 78.5q-1 60 -43.5 98.5t-107.5 38.5q-47 0 -89.5 -8.5t-99.5 -28
t-183 -66.5v-212h490q18 60 25.5 99.5z" />
    <glyph glyph-name="uni0638" unicode="&#x638;" horiz-adv-x="899" 
d="M749 465.5q50 -27.5 78 -76t28 -109.5q0 -46 -7.5 -83.5t-28.5 -119.5l-67 -77h-548h-42h-129l-16 90h145v627l85 13v-353q154 66 234.5 91t155.5 25q62 0 112 -27.5zM762.5 189.5q7.5 39.5 7.5 78.5q-1 60 -43.5 98.5t-107.5 38.5q-47 0 -89.5 -8.5t-99.5 -28
t-183 -66.5v-212h490q18 60 25.5 99.5zM395 657l72 72l75 -72l-73 -73z" />
    <glyph glyph-name="uni0639" unicode="&#x639;" horiz-adv-x="600" 
d="M577 -224q-77 -28 -134.5 -39.5t-119.5 -11.5q-124 0 -195.5 52.5t-71.5 151.5q0 61 34 113t103 89q-94 94 -94 199q0 61 29 108.5t79.5 74t114.5 26.5q35 0 75 -9t103 -30l-24 -73q-51 15 -81.5 21t-58.5 6q-67 0 -112 -37.5t-45 -99.5q0 -40 21.5 -80.5t60.5 -75.5
q24 8 36 11l213 66l3 -82l-192 -56q-184 -53 -184 -161q0 -127 197 -127q99 0 220 37z" />
    <glyph glyph-name="uni063A" unicode="&#x63a;" horiz-adv-x="600" 
d="M577 -224q-77 -28 -134.5 -39.5t-119.5 -11.5q-124 0 -195.5 52.5t-71.5 151.5q0 61 34 113t103 89q-94 94 -94 199q0 61 29 108.5t79.5 74t114.5 26.5q35 0 75 -9t103 -30l-24 -73q-51 15 -81.5 21t-58.5 6q-67 0 -112 -37.5t-45 -99.5q0 -40 21.5 -80.5t60.5 -75.5
q24 8 36 11l213 66l3 -82l-192 -56q-184 -53 -184 -161q0 -127 197 -127q99 0 220 37zM239 689l72 72l75 -72l-73 -73z" />
    <glyph glyph-name="uni0640" unicode="&#x640;" horiz-adv-x="194" 
d="M204 81v-71q0 -10 -10 -10h-194q-10 0 -10 10v71q0 9 10 9h194q10 0 10 -9z" />
    <glyph glyph-name="uni0641" unicode="&#x641;" horiz-adv-x="950" 
d="M678 569l-74 73l72 72l75 -72zM804 455q52 -30 81.5 -82.5t29.5 -116.5q0 -120 -74.5 -188t-205.5 -68h-219h-129q-119 0 -181.5 55t-62.5 162q0 68 22 171l74 -10q-16 -89 -16 -137q0 -78 46 -114.5t138 -36.5h195q-45 94 -45 162q0 67 30 120t82.5 83t119.5 30
q63 0 115 -30zM779 133q51 43 51 120q0 64 -41.5 105.5t-104.5 41.5q-40 0 -73 -20.5t-52 -55t-19 -73.5q0 -72 50 -161h52q86 0 137 43z" />
    <glyph glyph-name="uni0642" unicode="&#x642;" horiz-adv-x="769" 
d="M607.5 447q47.5 -28 74.5 -79t27 -118v-200q0 -129 -90 -197t-270 -68q-90 0 -159 29.5t-108 87.5t-39 142q0 107 44 241l69 -19q-35 -103 -35 -200q1 -99 66 -149.5t182 -50.5q113 0 183 45t77 123q-70 -34 -134 -34q-65 0 -115 28t-78 80.5t-28 121.5q0 71 29 127
t80 87t115 31q62 0 109.5 -28zM394.5 125q41.5 -38 111.5 -38q62 0 119 22v134q0 66 -38 105t-101 39q-60 0 -96.5 -42t-36.5 -111q0 -71 41.5 -109zM343 641l73 72l73 -72l-73 -72zM501 641l74 72l73 -72l-73 -72z" />
    <glyph glyph-name="uni0643" unicode="&#x643;" horiz-adv-x="852" 
d="M766 730v-530q0 -200 -211 -200h-1h-267q-119 0 -181.5 55t-62.5 162q0 73 21 171l75 -10q-16 -89 -16 -137q0 -78 46 -114.5t138 -36.5h247h1h1q63 0 94 32t31 98l1 497zM521 356h-237v67h61q-19 29 -19 61q0 45 29.5 72.5t76.5 27.5q34 0 77 -20v-62q-40 15 -68 15
q-26 0 -41.5 -12.5t-15.5 -34.5q0 -25 19 -47h138z" />
    <glyph glyph-name="uni0644" unicode="&#x644;" horiz-adv-x="675" 
d="M603 130h-1v-33q0 -145 -70 -228.5t-216 -83.5q-126 0 -199.5 65.5t-73.5 193.5q0 107 44 241l69 -19q-35 -103 -35 -200q1 -94 53 -142.5t147 -48.5q100 0 148.5 56.5t48.5 174.5v377v237l85 13v-603z" />
    <glyph glyph-name="uni0645" unicode="&#x645;" horiz-adv-x="677" 
d="M533 447q52 -34 81.5 -91.5t29.5 -124.5t-29 -122t-81.5 -86.5t-118.5 -31.5q-84 0 -144 50t-78 130q-36 -8 -54 -33.5t-18 -73.5v-321l-84 -13l-1 345q0 167 152 186q6 61 36.5 111.5t80 79.5t110.5 29q66 0 118 -34zM518.5 125q40.5 43 40.5 107q0 43 -18.5 79.5
t-51.5 58t-74 21.5t-74.5 -21.5t-52 -58t-18.5 -79.5q0 -64 41 -107t104 -43t103.5 43z" />
    <glyph glyph-name="uni0646" unicode="&#x646;" horiz-adv-x="675" 
d="M116.5 -149.5q-73.5 65.5 -73.5 193.5q0 107 44 241l69 -19q-35 -103 -35 -200q1 -94 53 -142.5t147 -48.5q100 0 148.5 56.5t48.5 174.5v377l84 14v-400q0 -145 -70 -228.5t-216 -83.5q-126 0 -199.5 65.5zM248 483l72 72l75 -72l-73 -73z" />
    <glyph glyph-name="uni0647" unicode="&#x647;" horiz-adv-x="524" 
d="M143.5 22.5q-52.5 31.5 -81.5 86.5t-29 122t29.5 124.5t82 91.5t118.5 34q65 0 117 -34t81.5 -91.5t29.5 -124.5t-29 -122t-81 -86.5t-118 -31.5q-67 0 -119.5 31.5zM366.5 125q40.5 43 40.5 107q0 43 -18.5 79.5t-51.5 58t-74 21.5q-42 0 -75.5 -21.5t-52 -58
t-18.5 -79.5q0 -64 41 -107t105 -43q63 0 103.5 43z" />
    <glyph glyph-name="uni0648" unicode="&#x648;" horiz-adv-x="546" 
d="M382.5 453q47.5 -28 74 -78.5t26.5 -117.5v-234q0 -123 -97 -180.5t-276 -57.5l-10 73q151 0 225 40.5t74 128.5v2q-64 -29 -124 -29q-69 0 -121.5 29t-81.5 83t-29 126q0 71 30 126t82.5 86t118.5 31q61 0 108.5 -28zM399 106v144q0 64 -37 104t-96 40q-62 0 -103 -42
t-41 -110q0 -74 42 -114.5t114 -40.5q67 0 121 19z" />
    <glyph glyph-name="uni0649" unicode="&#x649;" horiz-adv-x="956" 
d="M896 425v-422l-85 -13v396h-81q-61 0 -94.5 -31.5t-33.5 -92.5v-182q0 -96 -26 -160.5t-89 -99.5t-171 -35q-126 0 -199.5 65.5t-73.5 193.5q0 107 44 241l69 -19q-35 -103 -35 -200q1 -94 53 -142.5t147 -48.5q73 0 116 20.5t62 67t19 126.5v188q0 92 51.5 145.5
t148.5 53.5h120z" />
    <glyph glyph-name="uni064A" unicode="&#x64a;" horiz-adv-x="956" 
d="M896 425v-422l-85 -13v396h-81q-61 0 -94.5 -31.5t-33.5 -92.5v-182q0 -96 -26 -160.5t-89 -99.5t-171 -35q-126 0 -199.5 65.5t-73.5 193.5q0 107 44 241l69 -19q-35 -103 -35 -200q1 -94 53 -142.5t147 -48.5q73 0 116 20.5t62 67t19 126.5v188q0 92 51.5 145.5
t148.5 53.5h120zM188 -347l73 72l73 -72l-73 -72zM346 -347l74 72l73 -72l-73 -72z" />
    <glyph glyph-name="uni064B" unicode="&#x64b;" 
d="M135 703l-251 -52l-10 43l251 53zM151 611l-250 -53l-9 43l251 53z" />
    <glyph glyph-name="uni064C" unicode="&#x64c;" 
d="M136 764q27 -28 27 -68q0 -86 -96 -106l-195 -37l-27 41q42 24 42 58q0 19 -15 32.5t-43 16.5l9 41q47 -4 72.5 -27.5t25.5 -56.5q0 -25 -17 -51l76 17q-24 30 -24 68q0 45 28 72.5t71 27.5q39 0 66 -28zM117 694q0 22 -14.5 36t-36.5 14q-21 0 -35.5 -15.5t-14.5 -39.5
q0 -15 5.5 -28t18.5 -28l17 4q60 12 60 57z" />
    <glyph glyph-name="uni064D" unicode="&#x64d;" 
d="M135 -89l-251 -52l-10 43l251 53zM151 -181l-250 -53l-9 43l251 53z" />
    <glyph glyph-name="uni064E" unicode="&#x64e;" 
d="M148 651l-255 -54l-9 47l254 55z" />
    <glyph glyph-name="uni064F" unicode="&#x64f;" 
d="M131.5 763.5q27.5 -28.5 27.5 -67.5q0 -44 -25.5 -71t-72.5 -35l-191 -36l-8 45l127 25q-23 33 -23 67q0 45 27.5 73t71.5 28q39 0 66.5 -28.5zM111 693q0 23 -14 37t-36 14q-21 0 -35.5 -15.5t-14.5 -39.5q0 -15 5.5 -28t18.5 -28l17 4q59 11 59 56z" />
    <glyph glyph-name="uni0650" unicode="&#x650;" 
d="M148 -119l-255 -54l-9 47l254 55z" />
    <glyph glyph-name="uni0651" unicode="&#x651;" 
d="M149.5 678.5q4.5 -21.5 4.5 -42.5q0 -38 -21.5 -59.5t-56.5 -21.5q-39 0 -62 34q-8 -27 -28 -43t-48 -16q-35 0 -54.5 21t-26.5 63l-9 57l46 7l9 -51q9 -50 40 -50q18 0 28.5 12.5t10.5 35.5q0 6 -2 20l-9 46l45 9l9 -46q5 -25 17.5 -38t28.5 -13q17 0 26.5 10.5
t9.5 27.5q0 16 -4 31.5t-13 39.5l45 17q10 -29 14.5 -50.5z" />
    <glyph glyph-name="uni0652" unicode="&#x652;" 
d="M78 722q26 -29 26 -77q0 -49 -29 -77t-75 -28q-45 0 -70 27t-25 77q0 51 28 79t75 28q44 0 70 -29zM-32 689q-16 -15 -16 -43q0 -59 53 -59q22 0 37 14.5t15 42.5q0 29 -15.5 44.5t-38.5 15.5q-19 0 -35 -15z" />
    <glyph glyph-name="uni0653" unicode="&#x653;" 
d="M-23.5 717.5q12.5 -4.5 33.5 -13.5q36 -19 63 -19q18 0 40 6.5t38 17.5l-1 -59q-37 -23 -77 -23q-17 0 -31.5 5t-32.5 15q-32 17 -53 17q-20 0 -32 -10t-15 -29h-49q2 44 25.5 70.5t63.5 26.5q15 0 27.5 -4.5z" />
    <glyph glyph-name="uni0654" unicode="&#x654;" 
d="M131 699l-13 -57h-226v57h54q-16 26 -16 58q0 37 25.5 61.5t65.5 24.5q34 0 77 -19v-49q-35 15 -64 15q-22 0 -36 -12.5t-14 -31.5q0 -27 17 -47h130z" />
    <glyph glyph-name="uni0655" unicode="&#x655;" 
d="M117 -183l-13 -57h-226v57h55q-16 26 -16 58q0 37 25.5 61.5t64.5 24.5q35 0 78 -19v-49q-35 15 -64 15q-22 0 -36 -12t-14 -32q0 -29 17 -47h129z" />
    <glyph glyph-name="uni0656" unicode="&#x656;" 
d="M-25 -214v72q0 51 -12 90h57q14 -39 14 -90v-92z" />
    <glyph glyph-name="uni0660" unicode="&#x660;" horiz-adv-x="253" 
d="M198 299l-72 -71l-73 71l72 73z" />
    <glyph glyph-name="uni0661" unicode="&#x661;" horiz-adv-x="275" 
d="M197 0h-86l-35 665l86 15z" />
    <glyph glyph-name="uni0662" unicode="&#x662;" horiz-adv-x="461" 
d="M461 590h-298l30 -590h-85l-32 610l82 70v-1l1 1h325z" />
    <glyph glyph-name="uni0663" unicode="&#x663;" horiz-adv-x="619" 
d="M544 434.5q-35 -49.5 -105 -49.5q-56 0 -106 39q-33 -39 -90 -39q-33 0 -67 18l21 -403h-86l-35 665l86 15l10 -194q27 -19 59 -19q40 0 58 28.5t16 86.5l-5 83l66 15l5 -98l1 -25q0 -36 -8 -68q33 -22 64 -22q40 0 58 27.5t15 87.5l-5 83l73 15l6 -98q4 -98 -31 -147.5z
" />
    <glyph glyph-name="uni0664" unicode="&#x664;" horiz-adv-x="495" 
d="M365.5 80q44.5 6 99.5 20l-11 -84q-102 -29 -189 -29q-106 0 -164 42t-58 120q0 127 149 194q-62 16 -97.5 58t-35.5 106q0 51 25.5 93t70.5 66t101 24q33 0 74.5 -10t102.5 -32l-24 -73q-50 16 -81 23t-57 7q-61 0 -97.5 -30.5t-36.5 -81.5q0 -49 44 -79.5t109 -30.5
q20 0 39 3h-1l78 20l17 -68l-176 -47q-58 -14 -91 -48.5t-33 -78.5q0 -43 37.5 -66.5t109.5 -23.5q51 0 95.5 6z" />
    <glyph glyph-name="uni0665" unicode="&#x665;" horiz-adv-x="593" 
d="M416.5 627q57.5 -53 93.5 -150t36 -223q0 -125 -66 -196t-183 -71q-76 0 -133 32t-87.5 92t-30.5 142q0 112 32 210.5t89.5 157.5t128.5 59q63 0 120.5 -53zM208 547q-39 -46 -61.5 -121.5t-22.5 -160.5q0 -96 46 -143.5t128 -47.5t126.5 48.5t44.5 142.5q0 88 -22.5 163
t-63 120t-91.5 45q-45 0 -84 -46z" />
    <glyph glyph-name="uni0666" unicode="&#x666;" horiz-adv-x="434" 
d="M356 608l-31 -608h-86l31 590h-297l22 90h279z" />
    <glyph glyph-name="uni0667" unicode="&#x667;" horiz-adv-x="540" 
d="M553 680l-236 -685l-81 -9l-249 694h98l190 -575l181 575h97z" />
    <glyph glyph-name="uni0668" unicode="&#x668;" horiz-adv-x="540" 
d="M455 0l-190 575l-181 -575h-97l236 685l81 9l249 -694h-98z" />
    <glyph glyph-name="uni0669" unicode="&#x669;" horiz-adv-x="542" 
d="M465 618l-32 -618h-85l13 256q-60 -23 -117 -23q-64 0 -113.5 26t-77 74.5t-27.5 113.5q0 71 31 126.5t86 86t124 30.5l116 1zM365 340l13 260h-117q-46 0 -81.5 -20.5t-55 -55t-19.5 -76.5q0 -59 39.5 -93t109.5 -34q60 0 111 19z" />
    <glyph glyph-name="uni066A" unicode="&#x66a;" horiz-adv-x="520" 
d="M94 0l352 680h79l-351 -680h-80zM58 603l72 72l75 -72l-73 -73zM320 115l72 73l75 -73l-73 -72z" />
    <glyph glyph-name="uni066B" unicode="&#x66b;" horiz-adv-x="240" 
d="M0 -125q18 47 30 102.5t15 111.5h80q-6 -65 -22.5 -114t-47.5 -105z" />
    <glyph glyph-name="uni066C" unicode="&#x66c;" horiz-adv-x="240" 
d="M6 -125q18 47 30 102.5t15 111.5h80q-6 -65 -22.5 -114t-47.5 -105z" />
    <glyph glyph-name="uni066D" unicode="&#x66d;" horiz-adv-x="360" 
d="M326 178l-25 -45l-92 53v-106h-51v106l-92 -53l-25 45l91 52l-91 53l25 45l92 -54v106h51v-106l92 54l25 -45l-92 -53z" />
    <glyph glyph-name="uni066E" unicode="&#x66e;" horiz-adv-x="831" 
d="M765 497v-305q0 -92 -53.5 -142t-157.5 -50h-267q-119 0 -181.5 55t-62.5 162q0 73 21 171l75 -10q-16 -89 -16 -137q0 -78 46 -114.5t138 -36.5h247q126 0 126 125v268z" />
    <glyph glyph-name="uni066F" unicode="&#x66f;" horiz-adv-x="769" 
d="M607.5 447q47.5 -28 74.5 -79t27 -118v-200q0 -129 -90 -197t-270 -68q-90 0 -159 29.5t-108 87.5t-39 142q0 107 44 241l69 -19q-35 -103 -35 -200q1 -99 66 -149.5t182 -50.5q113 0 183 45t77 123q-70 -34 -134 -34q-65 0 -115 28t-78 80.5t-28 121.5q0 71 29 127
t80 87t115 31q62 0 109.5 -28zM394.5 125q41.5 -38 111.5 -38q62 0 119 22v134q0 66 -38 105t-101 39q-60 0 -96.5 -42t-36.5 -111q0 -71 41.5 -109z" />
    <glyph glyph-name="uni0670" unicode="&#x670;" 
d="M23 762v-72q0 -51 12 -90h-57q-14 39 -14 90v92z" />
    <glyph glyph-name="uni06A1" unicode="&#x6a1;" horiz-adv-x="950" 
d="M804.5 455q51.5 -30 81 -82t29.5 -117q0 -120 -74 -188t-205 -68h-220h-129q-119 0 -181.5 55t-62.5 162q0 73 21 171l75 -10q-16 -89 -16 -137q0 -78 46 -114.5t138 -36.5h195q-45 97 -45 162q0 67 30 120t83 83t119 30q64 0 115.5 -30zM779.5 133q50.5 43 50.5 120
q0 64 -41.5 105.5t-104.5 41.5q-40 0 -73 -20.5t-52 -55t-19 -73.5q0 -70 50 -161h53q86 0 136.5 43z" />
    <glyph glyph-name="uni06A4" unicode="&#x6a4;" horiz-adv-x="950" 
d="M687 715l-53 52l52 53l53 -53zM604 572l-74 73l73 72l73 -72zM695 645l74 72l73 -72l-73 -73zM804 455q52 -30 81.5 -82.5t29.5 -116.5q0 -120 -74.5 -188t-205.5 -68h-219h-129q-119 0 -181.5 55t-62.5 162q0 68 22 171l74 -10q-16 -89 -16 -137q0 -78 46 -114.5
t138 -36.5h195q-45 94 -45 162q0 67 30 120t82.5 83t119.5 30q63 0 115 -30zM779 133q51 43 51 120q0 64 -41.5 105.5t-104.5 41.5q-40 0 -73 -20.5t-52 -55t-19 -73.5q0 -72 50 -161h52q86 0 137 43z" />
    <glyph glyph-name="uni06BA" unicode="&#x6ba;" horiz-adv-x="675" 
d="M116.5 -149.5q-73.5 65.5 -73.5 193.5q0 107 44 241l69 -19q-35 -103 -35 -200q1 -94 53 -142.5t147 -48.5q100 0 148.5 56.5t48.5 174.5v377l84 14v-400q0 -145 -70 -228.5t-216 -83.5q-126 0 -199.5 65.5z" />
    <glyph glyph-name="endash" unicode="&#x2013;" horiz-adv-x="668" 
d="M63 326h541v-72h-541v72z" />
    <glyph glyph-name="emdash" unicode="&#x2014;" horiz-adv-x="968" 
d="M63 326h841v-72h-841v72z" />
    <glyph glyph-name="quoteleft" unicode="&#x2018;" horiz-adv-x="225" 
d="M174 679q-18 -47 -30 -102.5t-15 -111.5h-79q6 64 22 113t47 106z" />
    <glyph glyph-name="quoteright" unicode="&#x2019;" horiz-adv-x="226" 
d="M51 470q38 98 45 214h79q-6 -65 -22.5 -114t-47.5 -105z" />
    <glyph glyph-name="quotesinglbase" unicode="&#x201a;" horiz-adv-x="181" 
d="M6 -125q18 47 30 102.5t15 111.5h80q-6 -65 -22.5 -114t-47.5 -105z" />
    <glyph glyph-name="quotedblleft" unicode="&#x201c;" horiz-adv-x="360" 
d="M174 679q-18 -47 -30 -102.5t-15 -111.5h-79q6 64 22 113t47 106zM310 679q-18 -47 -30 -102.5t-15 -111.5h-79q6 64 22 113t47 106z" />
    <glyph glyph-name="quotedblright" unicode="&#x201d;" horiz-adv-x="362" 
d="M51 470q38 98 45 214h79q-6 -65 -22.5 -114t-47.5 -105zM187 470q38 98 45 214h79q-6 -65 -22.5 -114t-47.5 -105z" />
    <glyph glyph-name="quotedblbase" unicode="&#x201e;" horiz-adv-x="316" 
d="M6 -125q18 47 30 102.5t15 111.5h80q-6 -65 -22.5 -114t-47.5 -105zM142 -125q37 98 45 214h79q-6 -64 -22 -113t-47 -106z" />
    <glyph glyph-name="dagger" unicode="&#x2020;" horiz-adv-x="630" 
d="M348 434l10 -634h-85l10 634l-233 -11v78l233 -11l-10 190h85l-10 -190l232 11v-78z" />
    <glyph glyph-name="daggerdbl" unicode="&#x2021;" horiz-adv-x="630" 
d="M358 276l-10 -147h232v-77l-232 10l10 -262h-85l10 262l-233 -11v78h233l-10 147l10 147h-233v78l233 -11l-10 190h85l-10 -190l232 11v-78h-232z" />
    <glyph glyph-name="bullet" unicode="&#x2022;" horiz-adv-x="307" 
d="M89 184v122h129v-122h-129z" />
    <glyph glyph-name="ellipsis" unicode="&#x2026;" horiz-adv-x="544" 
d="M66 0v104h76v-104h-76zM234 0v104h76v-104h-76zM402 0v104h76v-104h-76z" />
    <glyph glyph-name="perthousand" unicode="&#x2030;" horiz-adv-x="1170" 
d="M78 373.5q-40 51.5 -40 132.5t40 132.5t115 51.5q74 0 114 -51.5t40 -132.5t-40 -132.5t-114 -51.5q-75 0 -115 51.5zM391 370l166 310h73l-185 -310h-54zM117.5 606.5q-25.5 -37.5 -25.5 -100.5t25.5 -100.5t74.5 -37.5q50 0 75 37.5t25 100.5t-25 100.5t-75 37.5
q-49 0 -74.5 -37.5zM495.5 43.5q-39.5 51.5 -39.5 132.5t39.5 132.5t114.5 51.5t115 -51.5t40 -132.5t-40 -132.5t-115 -51.5t-114.5 51.5zM865 43.5q-40 51.5 -40 132.5t40 132.5t115 51.5q74 0 114 -51.5t40 -132.5t-40 -132.5t-114 -51.5q-75 0 -115 51.5zM535.5 276.5
q-25.5 -37.5 -25.5 -100.5t25.5 -100.5t74.5 -37.5q50 0 75 37.5t25 100.5t-25 100.5t-75 37.5q-49 0 -74.5 -37.5zM904.5 276.5q-25.5 -37.5 -25.5 -100.5t25.5 -100.5t74.5 -37.5q50 0 75 37.5t25 100.5t-25 100.5t-75 37.5q-49 0 -74.5 -37.5zM406 310l-166 -310h-73
l184 310h55z" />
    <glyph glyph-name="guilsinglleft" unicode="&#x2039;" horiz-adv-x="323" 
d="M114 250l159 -194h-64l-168 194l168 194h64z" />
    <glyph glyph-name="guilsinglright" unicode="&#x203a;" horiz-adv-x="323" 
d="M113 444l167 -194l-167 -194h-65l160 194l-160 194h65z" />
    <glyph glyph-name="fraction" unicode="&#x2044;" horiz-adv-x="463" 
d="M463 680l-390 -680h-73l389 680h74z" />
    <glyph glyph-name="Euro" unicode="&#x20ac;" horiz-adv-x="744" 
d="M570 596q-58 17 -116 17q-88 0 -149 -46.5t-83 -129.5h228v-54h-241q-1 -14 -1 -43q0 -17 2 -47h240v-55h-226q23 -80 83 -125.5t147 -45.5q58 0 116 17t109 52v-85q-50 -30 -105 -45.5t-124 -15.5q-127 0 -214.5 65.5t-114.5 182.5h-79v55h69q-3 23 -3 47q0 22 3 43h-69
v54h77q27 119 115 186t216 67q70 0 125 -15.5t104 -45.5v-85q-51 35 -109 52z" />
    <glyph glyph-name="trademark" unicode="&#x2122;" horiz-adv-x="716" 
d="M472 379l-91 226v-226h-45v302h58l93 -228l93 228h58v-302h-47v226l-92 -226h-27zM151 639h-91v42h229v-42h-91v-260h-47v260z" />
    <glyph glyph-name="partialdiff" unicode="&#x2202;" horiz-adv-x="622" 
d="M177 678q44 12 101 12q101 0 166 -51t94.5 -133t29.5 -178q0 -155 -67.5 -246.5t-197.5 -91.5q-81 0 -139 32t-88 85t-30 114q0 56 26.5 102.5t76 74t115.5 27.5q56 0 113.5 -22t98.5 -75q0 141 -53 213t-156 72q-49 0 -89.5 -14t-96.5 -48v84q52 31 96 43zM398 331
q-48 28 -105 28q-69 0 -110.5 -39t-41.5 -104q0 -42 20 -76t56 -53.5t80 -19.5q57 0 95.5 28t57.5 72.5t21 94.5q-25 41 -73 69z" />
    <glyph glyph-name="emptyset" unicode="&#x2205;" horiz-adv-x="594" 
d="M525 367.5q22 -53.5 22 -117.5q0 -72 -29 -131.5t-85.5 -94t-135.5 -34.5q-67 0 -119 27l-43 -67h-61l59 94q-42 36 -64.5 89.5t-22.5 116.5q0 72 29 131.5t85.5 94t136.5 34.5q66 0 118 -27l44 67h61l-60 -94q43 -35 65 -88.5zM297 448q-81 0 -121 -58.5t-40 -139.5
q0 -37 11 -71.5t32 -60.5l202 308q-35 22 -84 22zM297 52q81 0 121 58t40 140q0 37 -11 71.5t-33 59.5l-200 -306q34 -23 83 -23z" />
    <glyph glyph-name="product" unicode="&#x220f;" horiz-adv-x="721" 
d="M182 0h-93v680h543v-680h-94v601h-356v-601z" />
    <glyph glyph-name="summation" unicode="&#x2211;" horiz-adv-x="594" 
d="M536 680v-79h-377l191 -261l-191 -260h377v-80h-487v78l193 262l-193 262v78h487z" />
    <glyph glyph-name="minus" unicode="&#x2212;" horiz-adv-x="579" 
d="M69 366h441v-72h-441v72z" />
    <glyph glyph-name="radical" unicode="&#x221a;" horiz-adv-x="770" 
d="M496 -5h-108l-114 299h-231v72h300l102 -274l218 588h100z" />
    <glyph glyph-name="infinity" unicode="&#x221e;" horiz-adv-x="787" 
d="M646 541q40 -31 60.5 -83.5t20.5 -114.5q0 -105 -46 -171t-133 -66q-59 0 -98 37.5t-57 98.5q-19 -62 -57.5 -99t-98.5 -37q-87 0 -133 66t-46 171q0 62 20.5 114.5t60.5 83.5t96 31q54 0 95.5 -37t62.5 -97q20 59 62 96.5t96 37.5q55 0 95 -31zM324 237q31 42 40 115
q-13 58 -45 94.5t-77 36.5q-47 0 -77.5 -37t-30.5 -106t31.5 -107t78.5 -38q49 0 80 42zM620.5 233q31.5 38 31.5 107t-30 106t-77 37q-46 0 -78 -36.5t-45 -94.5q9 -73 40 -115t80 -42q47 0 78.5 38z" />
    <glyph glyph-name="integral" unicode="&#x222b;" horiz-adv-x="378" 
d="M179.5 656q35.5 34 102.5 34q40 0 77 -10v-70q-29 10 -61 10t-48 -16t-16 -60v-600q0 -76 -35.5 -110t-102.5 -34q-40 0 -77 10v70q30 -10 62 -10t47.5 16t15.5 60v600q0 76 35.5 110z" />
    <glyph glyph-name="approxequal" unicode="&#x2248;" horiz-adv-x="500" 
d="M411 408q-20 -22 -56 -22q-26 0 -110 20q-8 2 -40.5 9t-46.5 7q-31 0 -31 -36h-55q0 98 76 98q26 0 106 -19q78 -16 92 -16q30 0 30 35h55q0 -54 -20 -76zM411 200.5q-20 -22.5 -56 -22.5q-26 0 -110 20q-8 2 -40.5 9t-46.5 7q-31 0 -31 -36h-55q0 54 20 76.5t56 22.5
q18 0 58 -8.5t48 -10.5q74 -17 92 -17q14 0 22 8t8 28h55q0 -54 -20 -76.5z" />
    <glyph glyph-name="notequal" unicode="&#x2260;" horiz-adv-x="563" 
d="M282 265h220v-72h-254l-103 -193h-79l103 193h-108v72h142l68 129h-210v72h245l111 214h80l-112 -214h117v-72h-152z" />
    <glyph glyph-name="lessequal" unicode="&#x2264;" horiz-adv-x="567" 
d="M62 327v100l441 99v-72l-355 -78l355 -77v-72zM62 70v68h441v-68h-441z" />
    <glyph glyph-name="greaterequal" unicode="&#x2265;" horiz-adv-x="567" 
d="M62 299l356 77l-356 78v72l441 -99v-100l-441 -100v72zM62 138h441v-68h-441v68z" />
    <glyph glyph-name="lozenge" unicode="&#x25ca;" horiz-adv-x="553" 
d="M314 -10h-75l-205 350l205 350h75l204 -350zM278 585l-146 -245l146 -245l143 245z" />
    <glyph glyph-name="uniFBB2" unicode="&#xfbb2;" 
d="M-73 643l72 72l75 -72l-73 -73z" />
    <glyph glyph-name="uniFBB3" unicode="&#xfbb3;" 
d="M-73 -155l72 73l75 -73l-73 -72z" />
    <glyph glyph-name="uniFBB4" unicode="&#xfbb4;" 
d="M-152 627l73 72l73 -72l-73 -72zM6 627l74 72l73 -72l-73 -72z" />
    <glyph glyph-name="uniFBB5" unicode="&#xfbb5;" 
d="M-152 -173l73 72l73 -72l-73 -72zM6 -173l74 72l73 -72l-73 -72z" />
    <glyph glyph-name="uniFBB6" unicode="&#xfbb6;" 
d="M-52 770l52 53l53 -53l-52 -52zM-156 648l73 72l73 -72l-72 -73zM9 648l74 72l73 -72l-73 -73z" />
    <glyph glyph-name="uniFBB9" unicode="&#xfbb9;" 
d="M-155 -176l72 72l74 -72l-73 -73zM9 -176l74 72l73 -72l-72 -73zM-46 -296l46 47l48 -47l-47 -47z" />
    <glyph glyph-name="uniFD3E" unicode="&#xfd3e;" horiz-adv-x="300" 
d="M156.5 -105.5q-58.5 37.5 -58.5 137.5q0 32 10 98t10 97q0 44 -21 62.5t-65 18.5v64q44 0 65 18.5t21 62.5q0 30 -10 96q-10 68 -10 100q0 99 58.5 136.5t156.5 37.5v-65q-71 0 -97.5 -27t-26.5 -85q0 -28 10 -92q1 -10 5 -40.5t4 -52.5q0 -48 -25 -80t-76 -41
q51 -9 76 -41t25 -80q0 -22 -4 -52t-5 -39q-10 -64 -10 -94q0 -58 26.5 -85t97.5 -27v-65q-98 0 -156.5 37.5z" />
    <glyph glyph-name="uniFD3F" unicode="&#xfd3f;" horiz-adv-x="300" 
d="M247.5 289.5q-21.5 -18.5 -21.5 -62.5q0 -31 10 -97t10 -98q0 -100 -58.5 -137.5t-156.5 -37.5v65q72 0 98.5 27t26.5 85q0 30 -10 94q-1 9 -5 39t-4 52q0 48 24.5 80t75.5 41q-51 9 -75.5 41t-24.5 80q0 27 10 93q1 9 5 39t4 53q0 58 -26.5 85t-98.5 27v65
q98 0 156.5 -37t58.5 -137q0 -32 -10 -100q-10 -66 -10 -96q0 -44 21.5 -62.5t65.5 -18.5v-64q-44 0 -65.5 -18.5z" />
    <glyph glyph-name="uni0627.short" horiz-adv-x="257" 
d="M90 590l85 13v-603h-85v590z" />
    <glyph glyph-name="uniFE8E.short" horiz-adv-x="297" 
d="M139 50q-52 50 -52 150l-1 390l85 13v-383q0 -66 31 -98t94 -32q10 0 10 -9l1 -71q0 -10 -10 -10q-106 0 -158 50z" />
    <glyph glyph-name="uni066E.medi.alt" horiz-adv-x="376" 
d="M386 81v-71q0 -10 -10 -10q-45 0 -89 18.5t-83 54.5q-54 -73 -204 -73q-10 0 -10 10l1 71q0 9 10 9q80 0 116.5 29.5t36.5 95.5v162l84 13v-198q0 -25 -5 -52q67 -50 143 -50q10 0 10 -9z" />
    <glyph glyph-name="uni066E.init.alt" horiz-adv-x="353" 
d="M-10 10l1 71q0 9 10 9h76q61 0 93 31.5t32 93.5v268l84 14v-305q0 -92 -53 -142t-157 -50h-76q-10 0 -10 10z" />
    <glyph glyph-name="dotcenterar" 
d="M-73 245l72 72l75 -72l-73 -73z" />
    <glyph glyph-name="waslaar" 
d="M108.5 635q24.5 -23 24.5 -57q0 -44 -39.5 -69t-108.5 -25q-65 0 -140 30l14 44q32 -11 42 -13q49 62 81.5 87.5t66.5 25.5q35 0 59.5 -23zM53.5 545q23.5 12 23.5 33q0 13 -11 22.5t-26 9.5q-20 0 -40.5 -15.5t-58.5 -57.5q21 -4 44 -4q45 0 68.5 12z" />
    <glyph glyph-name="hamzacenterar" 
d="M142 551l-20 -67h-237v67h61q-19 29 -19 62q0 44 29.5 71.5t76.5 27.5q37 0 77 -20v-61q-44 15 -68 15q-26 0 -41.5 -13t-15.5 -35q0 -25 19 -47h138z" />
    <glyph glyph-name="hamzaaboveDammaar" 
d="M131 699l-13 -57h-226v57h54q-16 26 -16 58q0 37 25.5 61.5t65.5 24.5q34 0 77 -19v-49q-35 15 -64 15q-22 0 -36 -12.5t-14 -31.5q0 -27 17 -47h130zM117.5 1070.5q27.5 -28.5 27.5 -67.5q0 -44 -25.5 -71t-72.5 -35l-191 -36l-8 45l127 25q-23 33 -23 67q0 45 27.5 73
t71.5 28q39 0 66.5 -28.5zM97 1000q0 23 -14 37t-36 14q-21 0 -35.5 -15.5t-14.5 -39.5q0 -15 5.5 -28t18.5 -28l17 4q59 11 59 56z" />
    <glyph glyph-name="hamzaaboveDammatanar" 
d="M131 699l-13 -57h-226v57h54q-16 26 -16 58q0 37 25.5 61.5t65.5 24.5q34 0 77 -19v-49q-35 15 -64 15q-22 0 -36 -12.5t-14 -31.5q0 -27 17 -47h130zM133 1075q27 -28 27 -68q0 -86 -96 -106l-195 -37l-27 41q42 24 42 58q0 19 -15 32.5t-43 16.5l9 41q47 -4 72.5 -27.5
t25.5 -56.5q0 -25 -17 -51l76 17q-24 30 -24 68q0 45 28 72.5t71 27.5q39 0 66 -28zM114 1005q0 22 -14.5 36t-36.5 14q-21 0 -35.5 -15.5t-14.5 -39.5q0 -15 5.5 -28t18.5 -28l17 4q60 12 60 57z" />
    <glyph glyph-name="hamzaaboveFathaar" 
d="M131 699l-13 -57h-226v57h54q-16 26 -16 58q0 37 25.5 61.5t65.5 24.5q34 0 77 -19v-49q-35 15 -64 15q-22 0 -36 -12.5t-14 -31.5q0 -27 17 -47h130zM128 925l-255 -54l-9 47l254 55z" />
    <glyph glyph-name="hamzaaboveFathatanar" 
d="M131 699l-13 -57h-226v57h54q-16 26 -16 58q0 37 25.5 61.5t65.5 24.5q34 0 77 -19v-49q-35 15 -64 15q-22 0 -36 -12.5t-14 -31.5q0 -27 17 -47h130zM117 1012l-251 -52l-10 43l251 53zM133 920l-250 -53l-9 43l251 53z" />
    <glyph glyph-name="hamzaaboveSukunar" 
d="M131 699l-13 -57h-226v57h54q-16 26 -16 58q0 37 25.5 61.5t65.5 24.5q34 0 77 -19v-49q-35 15 -64 15q-22 0 -36 -12.5t-14 -31.5q0 -27 17 -47h130zM93 1069q26 -29 26 -77q0 -49 -29 -77t-75 -28q-45 0 -70 27t-25 77q0 51 28 79t75 28q44 0 70 -29zM-17 1036
q-16 -15 -16 -43q0 -59 53 -59q22 0 37 14.5t15 42.5q0 29 -15.5 44.5t-38.5 15.5q-19 0 -35 -15z" />
    <glyph glyph-name="hamzabelowKasraar" 
d="M134 -345l-255 -54l-9 47l254 55zM117 -213l-13 -57h-226v57h55q-16 26 -16 58q0 37 25.5 61.5t64.5 24.5q35 0 78 -19v-49q-35 15 -64 15q-22 0 -36 -12t-14 -32q0 -29 17 -47h129z" />
    <glyph glyph-name="hamzabelowKasratanar" 
d="M117 -213l-13 -57h-226v57h55q-16 26 -16 58q0 37 25.5 61.5t64.5 24.5q35 0 78 -19v-49q-35 15 -64 15q-22 0 -36 -12t-14 -32q0 -29 17 -47h129zM133 -343l-251 -52l-10 43l251 53zM149 -435l-250 -53l-9 43l251 53z" />
    <glyph glyph-name="shaddaAlefabovear" 
d="M149.5 678.5q4.5 -21.5 4.5 -42.5q0 -38 -21.5 -59.5t-56.5 -21.5q-39 0 -62 34q-8 -27 -28 -43t-48 -16q-35 0 -54.5 21t-26.5 63l-9 57l46 7l9 -51q9 -50 40 -50q18 0 28.5 12.5t10.5 35.5q0 6 -2 20l-9 46l45 9l9 -46q5 -25 17.5 -38t28.5 -13q17 0 26.5 10.5
t9.5 27.5q0 16 -4 31.5t-13 39.5l45 17q10 -29 14.5 -50.5zM5 912v-72q0 -51 12 -90h-57q-14 39 -14 90v92z" />
    <glyph glyph-name="shaddaDammaar" 
d="M149.5 678.5q4.5 -21.5 4.5 -42.5q0 -38 -21.5 -59.5t-56.5 -21.5q-39 0 -62 34q-8 -27 -28 -43t-48 -16q-35 0 -54.5 21t-26.5 63l-9 57l46 7l9 -51q9 -50 40 -50q18 0 28.5 12.5t10.5 35.5q0 6 -2 20l-9 46l45 9l9 -46q5 -25 17.5 -38t28.5 -13q17 0 26.5 10.5
t9.5 27.5q0 16 -4 31.5t-13 39.5l45 17q10 -29 14.5 -50.5zM86.5 948.5q27.5 -28.5 27.5 -67.5q0 -44 -25.5 -71t-72.5 -35l-191 -36l-8 45l127 25q-23 33 -23 67q0 45 27.5 73t71.5 28q39 0 66.5 -28.5zM66 878q0 23 -14 37t-36 14q-21 0 -35.5 -15.5t-14.5 -39.5
q0 -15 5.5 -28t18.5 -28l17 4q59 11 59 56z" />
    <glyph glyph-name="shaddaDammatanar" 
d="M149.5 678.5q4.5 -21.5 4.5 -42.5q0 -38 -21.5 -59.5t-56.5 -21.5q-39 0 -62 34q-8 -27 -28 -43t-48 -16q-35 0 -54.5 21t-26.5 63l-9 57l46 7l9 -51q9 -50 40 -50q18 0 28.5 12.5t10.5 35.5q0 6 -2 20l-9 46l45 9l9 -46q5 -25 17.5 -38t28.5 -13q17 0 26.5 10.5
t9.5 27.5q0 16 -4 31.5t-13 39.5l45 17q10 -29 14.5 -50.5zM116 952q27 -28 27 -68q0 -86 -96 -106l-195 -37l-27 41q42 24 42 58q0 19 -15 32.5t-43 16.5l9 41q47 -4 72.5 -27.5t25.5 -56.5q0 -25 -17 -51l76 17q-24 30 -24 68q0 45 28 72.5t71 27.5q39 0 66 -28zM97 882
q0 22 -14.5 36t-36.5 14q-21 0 -35.5 -15.5t-14.5 -39.5q0 -15 5.5 -28t18.5 -28l17 4q60 12 60 57z" />
    <glyph glyph-name="shaddaFathaar" 
d="M149.5 678.5q4.5 -21.5 4.5 -42.5q0 -38 -21.5 -59.5t-56.5 -21.5q-39 0 -62 34q-8 -27 -28 -43t-48 -16q-35 0 -54.5 21t-26.5 63l-9 57l46 7l9 -51q9 -50 40 -50q18 0 28.5 12.5t10.5 35.5q0 6 -2 20l-9 46l45 9l9 -46q5 -25 17.5 -38t28.5 -13q17 0 26.5 10.5
t9.5 27.5q0 16 -4 31.5t-13 39.5l45 17q10 -29 14.5 -50.5zM101 803l-255 -54l-9 47l254 55z" />
    <glyph glyph-name="shaddaFathatanar" 
d="M149.5 678.5q4.5 -21.5 4.5 -42.5q0 -38 -21.5 -59.5t-56.5 -21.5q-39 0 -62 34q-8 -27 -28 -43t-48 -16q-35 0 -54.5 21t-26.5 63l-9 57l46 7l9 -51q9 -50 40 -50q18 0 28.5 12.5t10.5 35.5q0 6 -2 20l-9 46l45 9l9 -46q5 -25 17.5 -38t28.5 -13q17 0 26.5 10.5
t9.5 27.5q0 16 -4 31.5t-13 39.5l45 17q10 -29 14.5 -50.5zM90 890l-251 -52l-10 43l251 53zM106 798l-250 -53l-9 43l251 53z" />
    <glyph glyph-name="shaddaKasraar" 
d="M149.5 678.5q4.5 -21.5 4.5 -42.5q0 -38 -21.5 -59.5t-56.5 -21.5q-39 0 -62 34q-8 -27 -28 -43t-48 -16q-35 0 -54.5 21t-26.5 63l-9 57l46 7l9 -51q9 -50 40 -50q18 0 28.5 12.5t10.5 35.5q0 6 -2 20l-9 46l45 9l9 -46q5 -25 17.5 -38t28.5 -13q17 0 26.5 10.5
t9.5 27.5q0 16 -4 31.5t-13 39.5l45 17q10 -29 14.5 -50.5zM166 477l-255 -54l-9 47l254 55z" />
    <glyph glyph-name="shaddaKasratanar" 
d="M149.5 678.5q4.5 -21.5 4.5 -42.5q0 -38 -21.5 -59.5t-56.5 -21.5q-39 0 -62 34q-8 -27 -28 -43t-48 -16q-35 0 -54.5 21t-26.5 63l-9 57l46 7l9 -51q9 -50 40 -50q18 0 28.5 12.5t10.5 35.5q0 6 -2 20l-9 46l45 9l9 -46q5 -25 17.5 -38t28.5 -13q17 0 26.5 10.5
t9.5 27.5q0 16 -4 31.5t-13 39.5l45 17q10 -29 14.5 -50.5zM159 479l-251 -52l-10 43l251 53zM175 387l-250 -53l-9 43l251 53z" />
    <glyph glyph-name="terminal1" horiz-adv-x="568" 
d="M159 378q-16 -89 -16 -137q0 -78 46 -114.5t138 -36.5h247q10 0 10 -9v-71q0 -10 -10 -10h-267q-119 0 -181.5 55t-62.5 162q0 68 22 171z" />
    <glyph glyph-name="terminal2" horiz-adv-x="572" 
d="M181 430q-24 -116 -24 -185q0 -79 46 -117t139 -38h239q10 0 10 -9v-71q0 -10 -10 -10h-260q-120 0 -182.5 56t-62.5 166q0 85 31 218z" />
    <glyph glyph-name="terminal1.alt" horiz-adv-x="484" 
d="M172 378q-16 -89 -16 -137q0 -78 46 -114.5t138 -36.5h117q10 0 10 -9v-71q0 -10 -10 -10h-137q-119 0 -181.5 55t-62.5 162q0 68 22 171z" />
    <glyph glyph-name="terminal3" horiz-adv-x="383" 
d="M411 -135v-70q0 -10 -10 -10h-382l-19 90h401q10 0 10 -10z" />
    <glyph glyph-name="terminal4" horiz-adv-x="383" 
d="M364 -215h-382q-10 0 -10 10v70q0 10 10 10h400z" />
    <glyph glyph-name="waslear.alt" horiz-adv-x="218" 
d="M139.5 105.5q36.5 -15.5 78.5 -15.5q10 0 10 -9v-71q0 -10 -10 -10q-54 0 -103.5 26t-90.5 76l41 50q38 -31 74.5 -46.5z" />
    </font>
</defs>
</svg>
