<?xml version="1.0" standalone="no"?>
<!DOCTYPE svg PUBLIC "-//W3C//DTD SVG 1.1//EN" "http://www.w3.org/Graphics/SVG/1.1/DTD/svg11.dtd" >
<svg xmlns="http://www.w3.org/2000/svg" xmlns:xlink="http://www.w3.org/1999/xlink" version="1.1">
<metadata>
Created by FontForge 20170731 at Wed Nov 25 14:54:23 2015
 By Aleksey,,,
Copyright (c) 2015 by Pascal Zoghbi. All rights reserved.
</metadata>
<defs>
<font id="ExpoArabic-Bold" horiz-adv-x="0" >
  <font-face 
    font-family="Expo Arabic Bold"
    font-weight="700"
    font-stretch="normal"
    units-per-em="1000"
    panose-1="0 0 8 0 0 0 0 0 0 0"
    ascent="750"
    descent="-250"
    x-height="500"
    cap-height="689"
    bbox="-215 -544 1372 1154"
    underline-thickness="40"
    underline-position="-190"
    unicode-range="U+0020-FEFC"
  />
<missing-glyph horiz-adv-x="281" 
 />
    <glyph glyph-name="uniFEF5" unicode="&#xfedf;&#xfe82;" horiz-adv-x="665" arabic-form="isolated" 
d="M591 730l-1 -518q0 -212 -240 -212v0h-315l-23 165h172l-77 394l153 39l69 -433h21h1q43 0 63 25t20 78l1 444zM158.5 760.5q14.5 -4.5 33.5 -13.5q40 -19 65 -19q17 0 41 7t39 19l-1 -94q-35 -25 -77 -25q-16 0 -29 4.5t-35 14.5q-20 9 -31.5 13.5t-24.5 4.5
q-20 0 -33.5 -10t-16.5 -29h-72q1 63 31 97.5t81 34.5q15 0 29.5 -4.5z" />
    <glyph glyph-name="uniFEF6" unicode="&#xfee0;&#xfe82;" horiz-adv-x="678" arabic-form="final" 
d="M688 11q0 -5 -3 -8t-7 -3q-122 0 -182 54q-45 -22 -121.5 -38t-127.5 -16h-212l-23 165h172l-77 394l153 39l68 -428q55 6 111 16q-1 9 -1 26l-1 500l156 18l1 -462q0 -53 20 -78t63 -25q10 0 10 -10zM158.5 760.5q14.5 -4.5 33.5 -13.5q40 -19 65 -19q17 0 41 7t39 19
l-1 -94q-35 -25 -77 -25q-16 0 -29 4.5t-35 14.5q-20 9 -31.5 13.5t-24.5 4.5q-20 0 -33.5 -10t-16.5 -29h-72q1 63 31 97.5t81 34.5q15 0 29.5 -4.5z" />
    <glyph glyph-name="uniFEF7" unicode="&#xfedf;&#xfe84;" horiz-adv-x="665" arabic-form="isolated" 
d="M591 730l-1 -518q0 -212 -240 -212v0h-315l-23 165h172l-77 394l153 39l69 -433h21h1q43 0 63 25t20 78l1 444zM304 731l-18 -84h-238v84h42q-11 22 -11 49q0 39 28 65t70 26q46 0 90 -20v-76q-38 15 -63 15q-17 0 -27.5 -7.5t-10.5 -20.5q0 -17 11 -31h127z" />
    <glyph glyph-name="uniFEF8" unicode="&#xfee0;&#xfe84;" horiz-adv-x="678" arabic-form="final" 
d="M688 11q0 -5 -3 -8t-7 -3q-122 0 -182 54q-45 -22 -121.5 -38t-127.5 -16h-212l-23 165h172l-77 394l153 39l68 -428q55 6 111 16q-1 9 -1 26l-1 500l156 18l1 -462q0 -53 20 -78t63 -25q10 0 10 -10zM304 731l-18 -84h-238v84h42q-11 22 -11 49q0 39 28 65t70 26
q46 0 90 -20v-76q-38 15 -63 15q-17 0 -27.5 -7.5t-10.5 -20.5q0 -17 11 -31h127z" />
    <glyph glyph-name="uniFEF9" unicode="&#xfedf;&#xfe88;" horiz-adv-x="665" arabic-form="isolated" 
d="M591 730l-1 -518q0 -212 -240 -212v0h-315l-23 165h172l-77 394l153 39l69 -433h21h1q43 0 63 25t20 78l1 444zM425 -177l-19 -84h-238v84h43q-11 22 -11 49q0 39 28 65t70 26q46 0 90 -20v-76q-37 15 -63 15q-17 0 -27.5 -7.5t-10.5 -20.5q0 -17 11 -31h127z" />
    <glyph glyph-name="uniFEFA" unicode="&#xfee0;&#xfe88;" horiz-adv-x="678" arabic-form="final" 
d="M688 11q0 -5 -3 -8t-7 -3q-122 0 -182 54q-45 -22 -121.5 -38t-127.5 -16h-212l-23 165h172l-77 394l153 39l68 -428q55 6 111 16q-1 9 -1 26l-1 500l156 18l1 -462q0 -53 20 -78t63 -25q10 0 10 -10zM428 -177l-19 -84h-238v84h43q-11 22 -11 49q0 39 28 65t70 26
q46 0 90 -20v-76q-37 15 -63 15q-17 0 -27.5 -7.5t-10.5 -20.5q0 -17 11 -31h127z" />
    <glyph glyph-name="uniFEFB" unicode="&#xfedf;&#xfe8e;" horiz-adv-x="665" arabic-form="isolated" 
d="M591 730l-1 -518q0 -212 -240 -212v0h-315l-23 165h172l-77 394l153 39l69 -433h21h1q43 0 63 25t20 78l1 444z" />
    <glyph glyph-name="uniFEFC" unicode="&#xfee0;&#xfe8e;" horiz-adv-x="678" arabic-form="final" 
d="M688 11q0 -5 -3 -8t-7 -3q-122 0 -182 54q-45 -22 -121.5 -38t-127.5 -16h-212l-23 165h172l-77 394l153 39l68 -428q55 6 111 16q-1 9 -1 26l-1 500l156 18l1 -462q0 -53 20 -78t63 -25q10 0 10 -10z" />
    <glyph glyph-name="uni066E.init" unicode="&#x66e;" horiz-adv-x="287" 
d="M-7 3q-3 3 -3 8l2 144q0 10 10 10q42 0 62.5 24.5t20.5 77.5l-1 221l156 19v-297q0 -210 -240 -210q-4 0 -7 3z" />
    <glyph glyph-name="uni066E.medi" unicode="&#x66e;" horiz-adv-x="345" 
d="M355 155v-144q0 -5 -3 -8t-7 -3q-44 0 -83 16.5t-70 47.5q-61 -64 -192 -64q-4 0 -7 3t-3 8l2 144q0 10 10 10q42 0 62.5 24.5t20.5 77.5l-1 120l156 18v-195v-16q48 -29 105 -29q10 0 10 -10z" />
    <glyph glyph-name="uni066E.fina" unicode="&#x66e;" horiz-adv-x="863" 
d="M873 155v-144q0 -5 -3 -8t-7 -3q-88 0 -154 64q-54 -58 -169 -64h-3h-260q-127 0 -189 59.5t-62 178.5q0 82 25 202l134 -16q-14 -98 -14 -140q0 -61 34.5 -90t110.5 -29h204q42 0 62.5 24.5t20.5 77.5l-1 120l156 18v-195v-15q47 -30 105 -30q10 0 10 -10z" />
    <glyph glyph-name="uni066F.fina" unicode="&#x66f;" horiz-adv-x="804" 
d="M814 155v-144q0 -5 -3 -8t-7 -3h-55q-19 -106 -111 -160.5t-272 -54.5q-161 0 -250.5 69.5t-89.5 197.5q0 103 43 233l126 -34q-28 -89 -28 -153q1 -88 56.5 -132.5t163.5 -44.5q84 0 137 20t72 59h-85q-70 0 -123 30.5t-82.5 86.5t-29.5 130q0 73 32.5 132t88 92.5
t123.5 33.5q67 -1 120.5 -31t83.5 -86.5t30 -132.5v-90h50q10 0 10 -10zM445.5 180.5q30.5 -24.5 79.5 -24.5q22 0 74 4v85q0 48 -25.5 75t-67.5 27q-38 0 -64.5 -26.5t-26.5 -68.5q0 -47 30.5 -71.5z" />
    <glyph glyph-name="uni06A1.init" unicode="&#x6a1;" horiz-adv-x="550" 
d="M396 484q56 -31 88 -86.5t32 -124.5q0 -82 -35 -144t-99.5 -95.5t-151.5 -33.5h-230q-10 0 -10 11v144q0 10 10 10h62q-30 63 -30 117q0 67 31 120t85.5 83t120.5 30q71 0 127 -31zM325.5 194.5q34.5 29.5 34.5 79.5q0 40 -26.5 66t-66.5 26t-68 -28.5t-28 -69.5
q0 -45 28 -103h32q60 0 94.5 29.5z" />
    <glyph glyph-name="uni06A1.medi" unicode="&#x6a1;" horiz-adv-x="554" 
d="M564 155v-144q0 -5 -3 -8t-7 -3q-119 0 -263 50q-61 -25 -136.5 -37.5t-154.5 -12.5q-10 2 -10 11v144q0 10 10 10q56 0 97 4q-44 58 -44 131q0 60 28 109t79.5 77.5t118.5 28.5t119.5 -30t81.5 -79.5t29 -106.5q0 -68 -47 -128q42 -6 92 -6q10 0 10 -10zM209.5 340.5
q-23.5 -25.5 -23.5 -61.5q0 -34 23 -63t63 -44q40 17 63.5 46t23.5 61q0 38 -26.5 62.5t-61.5 24.5q-38 0 -61.5 -25.5z" />
    <glyph glyph-name="uni06A1.fina" unicode="&#x6a1;" horiz-adv-x="950" 
d="M967 155v-144q0 -5 -3 -8t-7 -3q-119 0 -263 50q-60 -24 -132 -36.5t-148 -13.5h-1h-138q-249 0 -249 226q0 75 19 162l134 -16q-10 -67 -10 -98q0 -57 35 -83t110 -26h89q55 0 98 4q-45 57 -45 131q0 60 28 109t80 77.5t119 28.5q66 0 118.5 -30t81.5 -79.5t29 -106.5
q0 -68 -47 -128q42 -6 92 -6q10 0 10 -10zM613 340.5q-23 -25.5 -23 -61.5q0 -33 22.5 -62.5t62.5 -44.5q41 17 64.5 46t23.5 61q0 38 -27 62.5t-62 24.5q-38 0 -61 -25.5z" />
    <glyph glyph-name="uniFB6B" unicode="&#x6a4;" horiz-adv-x="950" arabic-form="final" 
d="M689 758l-66 67l65 67l68 -67zM610 580l-104 104l103 103l79 -77l78 77l104 -103l-102 -104l-80 78zM967 155v-144q0 -5 -3 -8t-7 -3q-119 0 -263 50q-120 -48 -279 -50h-1h-139q-249 0 -249 226q0 77 20 162l134 -16q-11 -65 -11 -98q0 -57 35 -83t110 -26h89q55 0 98 4
q-45 57 -45 131q0 60 28 109t79.5 77.5t118.5 28.5t119.5 -30t81.5 -79.5t29 -106.5q0 -69 -48 -128q43 -6 93 -6q10 0 10 -10zM612.5 340.5q-23.5 -25.5 -23.5 -61.5q0 -33 23 -62.5t63 -44.5q40 17 63.5 46t23.5 61q0 38 -26.5 62.5t-61.5 24.5q-38 0 -61.5 -25.5z" />
    <glyph glyph-name="uniFB6C" unicode="&#x6a4;" horiz-adv-x="550" arabic-form="initial" 
d="M396 484q56 -31 88 -86.5t32 -124.5q0 -82 -35 -144t-99.5 -95.5t-151.5 -33.5h-230q-10 0 -10 11v144q0 10 10 10h62q-30 63 -30 117q0 67 31 120t85.5 83t120.5 30q71 0 127 -31zM325.5 194.5q34.5 29.5 34.5 79.5q0 40 -26.5 66t-66.5 26t-68 -28.5t-28 -69.5
q0 -45 28 -103h32q60 0 94.5 29.5zM261 758l-66 67l65 67l68 -67zM340 580l-80 78l-78 -78l-104 104l103 103l79 -78l78 78l104 -103z" />
    <glyph glyph-name="uniFB6D" unicode="&#x6a4;" horiz-adv-x="554" arabic-form="medial" 
d="M564 155v-144q0 -5 -3 -8t-7 -3q-119 0 -263 50q-61 -25 -136.5 -37.5t-154.5 -12.5q-10 2 -10 11v144q0 10 10 10q56 0 97 4q-44 58 -44 131q0 60 28 109t79.5 77.5t118.5 28.5t119.5 -30t81.5 -79.5t29 -106.5q0 -68 -47 -128q42 -6 92 -6q10 0 10 -10zM209.5 340.5
q-23.5 -25.5 -23.5 -61.5q0 -34 23 -63t63 -44q40 17 63.5 46t23.5 61q0 38 -26.5 62.5t-61.5 24.5q-38 0 -61.5 -25.5zM265 758l-66 67l65 67l68 -67zM344 580l-80 78l-78 -78l-104 104l103 103l79 -78l78 78l104 -103z" />
    <glyph glyph-name="uniFB9F" unicode="&#x6ba;" horiz-adv-x="738" arabic-form="final" 
d="M748 155v-144q0 -5 -3 -8t-7 -3q-33 0 -60.5 11.5t-47.5 33.5q-13 -124 -91 -192t-214 -68q-147 0 -223 67t-76 200q0 103 43 233l126 -34q-28 -89 -28 -153q1 -148 158 -148q152 0 151 165v373l156 19v-250q1 -43 30.5 -67.5t75.5 -24.5q10 0 10 -10z" />
    <glyph glyph-name="uniFE82" unicode="&#x622;" horiz-adv-x="315" arabic-form="final" 
d="M75 212l-1 378l156 18l1 -340q0 -53 20 -78t63 -25q10 0 10 -10l1 -144q0 -5 -3 -8t-7 -3q-240 0 -240 212zM128.5 769.5q14.5 -4.5 33.5 -13.5q40 -19 65 -19q17 0 41 7t39 19l-1 -94q-35 -25 -77 -25q-16 0 -29 4.5t-35 14.5q-20 9 -31.5 13.5t-24.5 4.5
q-20 0 -33.5 -10t-16.5 -29h-72q1 63 31 97.5t81 34.5q15 0 29.5 -4.5z" />
    <glyph glyph-name="uniFE84" unicode="&#x623;" horiz-adv-x="315" arabic-form="final" 
d="M75 212l-1 378l156 18l1 -340q0 -53 20 -78t63 -25q10 0 10 -10l1 -144q0 -5 -3 -8t-7 -3q-240 0 -240 212zM284 739l-18 -84h-238v84h42q-11 22 -11 49q0 39 28 65t70 26q46 0 90 -20v-76q-38 15 -63 15q-17 0 -27.5 -7.5t-10.5 -20.5q0 -17 11 -31h127z" />
    <glyph glyph-name="uniFE86" unicode="&#x624;" horiz-adv-x="561" arabic-form="final" 
d="M571 155v-144q0 -5 -3 -8t-7 -3h-49q-10 -112 -117.5 -163.5t-292.5 -51.5l-16 127q127 0 191 20.5t77 67.5h-84q-70 0 -124 31t-83.5 87.5t-29.5 130.5q0 73 32.5 132t89 92.5t124.5 33.5q67 0 120 -30.5t83.5 -87t30.5 -132.5v-92h48q10 0 10 -10zM204 181
q31 -25 80 -25q22 0 74 4v86q0 48 -25 75.5t-66 27.5q-39 0 -66.5 -26.5t-27.5 -68.5q0 -48 31 -73zM414 676l-32 -101h-234v101h50q-15 26 -15 53q0 47 32.5 76.5t82.5 29.5q35 0 78 -21v-89q-42 14 -68 14q-20 0 -32 -8.5t-12 -23.5q0 -18 12 -31h138z" />
    <glyph glyph-name="uniFE88" unicode="&#x625;" horiz-adv-x="315" arabic-form="final" 
d="M75 212l-1 500l156 18l1 -462q0 -53 20 -78t63 -25q10 0 10 -10l1 -144q0 -5 -3 -8t-7 -3q-240 0 -240 212zM288 -180l-19 -84h-238v84h43q-11 22 -11 49q0 39 28 65t70 26q46 0 90 -20v-76q-37 15 -63 15q-17 0 -27.5 -7.5t-10.5 -20.5q0 -17 11 -31h127z" />
    <glyph glyph-name="uniFE8A" unicode="&#x626;" horiz-adv-x="1040" arabic-form="final" 
d="M1050 155v-144q0 -5 -3 -8t-7 -3h-267v329h-57q-41 0 -62.5 -25.5t-21.5 -75.5v-146q0 -148 -73.5 -222.5t-233.5 -74.5q-147 0 -223 67t-76 200q0 103 43 233l126 -34q-28 -89 -28 -153q1 -148 158 -148q79 0 115 35.5t36 117.5v164q0 104 54.5 165.5t155.5 61.5h152
l91 -80v-249h111q10 0 10 -10zM284 469l-32 -101h-234v101h50q-15 26 -15 53q0 47 32.5 76.5t82.5 29.5q35 0 78 -21v-89q-42 14 -68 14q-20 0 -32 -8.5t-12 -23.5q0 -18 12 -31h138z" />
    <glyph glyph-name="uniFE8B" unicode="&#x626;" horiz-adv-x="371" arabic-form="initial" 
d="M-7 3q-3 3 -3 8l2 144q0 10 10 10h84q42 0 62.5 24.5t20.5 77.5l-1 221l156 19v-297q0 -210 -240 -210h-84q-4 0 -7 3zM388 673l-32 -101h-234v101h50q-15 26 -15 53q0 47 32.5 76.5t82.5 29.5q35 0 78 -21v-89q-42 14 -68 14q-20 0 -32 -8.5t-12 -23.5q0 -18 12 -31h138
z" />
    <glyph glyph-name="uniFE8C" unicode="&#x626;" horiz-adv-x="387" arabic-form="medial" 
d="M397 155v-144q0 -5 -3 -8t-7 -3q-40 0 -81 19.5t-76 55.5q-69 -75 -230 -75q-4 0 -7 3t-3 8l2 144q0 10 10 10q60 0 90 24.5t30 77.5l-1 120l156 18v-195v-13q50 -32 110 -32q10 0 10 -10zM350 572l-32 -101h-234v101h50q-15 26 -15 53q0 47 32.5 76.5t82.5 29.5
q35 0 78 -21v-89q-42 14 -68 14q-20 0 -32 -8.5t-12 -23.5q0 -18 12 -31h138z" />
    <glyph glyph-name="uniFE8E" unicode="&#x627;" horiz-adv-x="315" arabic-form="final" 
d="M75 212l-1 500l156 18l1 -462q0 -53 20 -78t63 -25q10 0 10 -10l1 -144q0 -5 -3 -8t-7 -3q-240 0 -240 212z" />
    <glyph glyph-name="uniFE90" unicode="&#x628;" horiz-adv-x="863" arabic-form="final" 
d="M873 155v-144q0 -5 -3 -8t-7 -3q-88 0 -154 64q-54 -58 -169 -64h-3h-260q-127 0 -189 59.5t-62 178.5q0 82 25 202l134 -16q-14 -98 -14 -140q0 -61 34.5 -90t110.5 -29h204q42 0 62.5 24.5t20.5 77.5l-1 120l156 18v-195v-15q47 -30 105 -30q10 0 10 -10zM310 -155
l104 103l104 -103l-103 -103z" />
    <glyph glyph-name="uniFE91" unicode="&#x628;" horiz-adv-x="287" arabic-form="initial" 
d="M-7 3q-3 3 -3 8l2 144q0 10 10 10q42 0 62.5 24.5t20.5 77.5l-1 221l156 19v-297q0 -210 -240 -210q-4 0 -7 3zM16 -156l104 103l104 -103l-103 -103z" />
    <glyph glyph-name="uniFE92" unicode="&#x628;" horiz-adv-x="345" arabic-form="medial" 
d="M355 155v-144q0 -5 -3 -8t-7 -3q-44 0 -83 16.5t-70 47.5q-61 -64 -192 -64q-4 0 -7 3t-3 8l2 144q0 10 10 10q42 0 62.5 24.5t20.5 77.5l-1 120l156 18v-195v-16q48 -29 105 -29q10 0 10 -10zM66 -157l104 103l104 -103l-103 -103z" />
    <glyph glyph-name="uniFE94" unicode="&#x629;" horiz-adv-x="581" arabic-form="final" 
d="M591 155v-144q0 -5 -3 -8t-7 -3q-94 0 -146 37q-89 -46 -168 -46q-70 0 -125.5 33t-86.5 91t-31 128q0 71 31.5 131t87 96t124.5 36q44 0 101 -19v54l156 19l1 -333q0 -62 56 -62q10 0 10 -10zM371 162q-2 13 -2 43l-1 129q-52 18 -93 18q-48 0 -77 -29.5t-29 -76.5
q0 -42 27.5 -71t70.5 -30q56 -2 104 17zM354 575l-80 78l-78 -78l-104 104l103 103l79 -78l78 78l104 -103z" />
    <glyph glyph-name="uniFE96" unicode="&#x62a;" horiz-adv-x="863" arabic-form="final" 
d="M873 155v-144q0 -5 -3 -8t-7 -3q-88 0 -154 64q-54 -58 -169 -64h-3h-260q-127 0 -189 59.5t-62 178.5q0 82 25 202l134 -16q-14 -98 -14 -140q0 -61 34.5 -90t110.5 -29h204q42 0 62.5 24.5t20.5 77.5l-1 120l156 18v-195v-15q47 -30 105 -30q10 0 10 -10zM526 450
l-80 78l-78 -78l-104 104l103 103l79 -78l78 78l104 -103z" />
    <glyph glyph-name="uniFE97" unicode="&#x62a;" horiz-adv-x="400" arabic-form="initial" 
d="M-7 3q-3 3 -3 8l2 144q0 10 10 10h84q42 0 62.5 24.5t20.5 77.5l-1 221l156 19v-297q0 -210 -240 -210h-84q-4 0 -7 3zM321 565l-80 78l-78 -78l-104 104l103 103l79 -78l78 78l104 -103z" />
    <glyph glyph-name="uniFE98" unicode="&#x62a;" horiz-adv-x="387" arabic-form="medial" 
d="M397 155v-144q0 -5 -3 -8t-7 -3q-40 0 -81 19.5t-76 55.5q-69 -75 -230 -75q-4 0 -7 3t-3 8l2 144q0 10 10 10q60 0 90 24.5t30 77.5l-1 120l156 18v-195v-13q50 -32 110 -32q10 0 10 -10zM275 457l-80 78l-78 -78l-104 104l103 103l79 -78l78 78l104 -103z" />
    <glyph glyph-name="uniFE9A" unicode="&#x62b;" horiz-adv-x="863" arabic-form="final" 
d="M873 155v-144q0 -5 -3 -8t-7 -3q-88 0 -154 64q-54 -58 -169 -64h-3h-260q-127 0 -189 59.5t-62 178.5q0 82 25 202l134 -16q-14 -98 -14 -140q0 -61 34.5 -90t110.5 -29h204q42 0 62.5 24.5t20.5 77.5l-1 120l156 18v-195v-15q47 -30 105 -30q10 0 10 -10zM441 619
l-66 67l65 67l68 -67zM520 441l-80 78l-78 -78l-104 104l103 103l79 -78l78 78l104 -103z" />
    <glyph glyph-name="uniFE9B" unicode="&#x62b;" horiz-adv-x="401" arabic-form="initial" 
d="M-7 3q-3 3 -3 8l2 144q0 10 10 10h84q42 0 62.5 24.5t20.5 77.5l-1 221l156 19v-297q0 -210 -240 -210h-84q-4 0 -7 3zM244 740l-66 67l65 67l68 -67zM323 562l-80 78l-78 -78l-104 104l103 103l79 -78l78 78l104 -103z" />
    <glyph glyph-name="uniFE9C" unicode="&#x62b;" horiz-adv-x="387" arabic-form="medial" 
d="M397 155v-144q0 -5 -3 -8t-7 -3q-40 0 -81 19.5t-76 55.5q-69 -75 -230 -75q-4 0 -7 3t-3 8l2 144q0 10 10 10q60 0 90 24.5t30 77.5l-1 120l156 18v-195v-13q50 -32 110 -32q10 0 10 -10zM197 635l-66 67l65 67l68 -67zM276 457l-80 78l-78 -78l-104 104l103 103l79 -78
l78 78l104 -103z" />
    <glyph glyph-name="uniFE9E" unicode="&#x62c;" horiz-adv-x="651" arabic-form="final" 
d="M661 155v-144q0 -5 -3 -8t-7 -3q-95 0 -142.5 41t-48.5 125q-133 -12 -209 -58t-76 -115q0 -52 39 -81t116 -29q75 0 196 35l42 -133q-72 -29 -142 -44.5t-130 -15.5q-79 0 -140.5 28.5t-96 83.5t-34.5 130q0 124 98.5 200.5t293.5 101.5q-91 64 -140.5 87.5t-97.5 23.5
q-22 0 -41 -3t-54 -11l-30 139q84 34 144 34q46 0 94.5 -18.5t118.5 -62t187 -128.5l-49 -154q12 -7 34.5 -9t67.5 -2q10 0 10 -10zM254 23l104 103l104 -103l-103 -103z" />
    <glyph glyph-name="uniFE9F" unicode="&#x62c;" horiz-adv-x="589" arabic-form="initial" 
d="M271 488q46 -16 115.5 -58t187.5 -124l-31 -159q-149 -83 -266.5 -115t-275.5 -32q-5 0 -8 3.5t-3 7.5v144q0 4 3 7t8 3q140 0 231 14t182 49q-103 70 -154 94t-100 24q-28 0 -76 -10l-20 -4l-29 138q79 34 144 34q46 0 92 -16zM221 -141l104 103l104 -103l-103 -103z
" />
    <glyph glyph-name="uniFEA0" unicode="&#x62c;" horiz-adv-x="632" arabic-form="medial" 
d="M642 155v-144q0 -5 -3 -8t-7 -3h-17q-57 0 -98.5 27t-59.5 75q-115 -56 -218 -79t-238 -23q-5 0 -8 3.5t-3 7.5v144q0 4 3 7t8 3q140 0 231 14t182 49q-103 70 -154 94t-100 24q-28 0 -76 -10l-20 -4l-29 138q79 34 144 34q46 0 92 -16t115.5 -58t187.5 -124l-25 -130
q22 -9 67 -11h16q10 0 10 -10zM226 -141l104 103l104 -103l-103 -103z" />
    <glyph glyph-name="uniFEA2" unicode="&#x62d;" horiz-adv-x="651" arabic-form="final" 
d="M661 155v-144q0 -5 -3 -8t-7 -3q-95 0 -142.5 41t-48.5 125q-133 -12 -209 -58t-76 -115q0 -52 39 -81t116 -29q75 0 196 35l42 -133q-72 -29 -142 -44.5t-130 -15.5q-79 0 -140.5 28.5t-96 83.5t-34.5 130q0 124 98.5 200.5t293.5 101.5q-91 64 -140.5 87.5t-97.5 23.5
q-22 0 -41 -3t-54 -11l-30 139q84 34 144 34q46 0 94.5 -18.5t118.5 -62t187 -128.5l-49 -154q12 -7 34.5 -9t67.5 -2q10 0 10 -10z" />
    <glyph glyph-name="uniFEA3" unicode="&#x62d;" horiz-adv-x="589" arabic-form="initial" 
d="M271 488q46 -16 115.5 -58t187.5 -124l-31 -159q-149 -83 -266.5 -115t-275.5 -32q-5 0 -8 3.5t-3 7.5v144q0 4 3 7t8 3q140 0 231 14t182 49q-103 70 -154 94t-100 24q-28 0 -76 -10l-20 -4l-29 138q79 34 144 34q46 0 92 -16z" />
    <glyph glyph-name="uniFEA4" unicode="&#x62d;" horiz-adv-x="632" arabic-form="medial" 
d="M642 155v-144q0 -5 -3 -8t-7 -3h-17q-57 0 -98.5 27t-59.5 75q-115 -56 -218 -79t-238 -23q-5 0 -8 3.5t-3 7.5v144q0 4 3 7t8 3q140 0 231 14t182 49q-103 70 -154 94t-100 24q-28 0 -76 -10l-20 -4l-29 138q79 34 144 34q46 0 92 -16t115.5 -58t187.5 -124l-25 -130
q22 -9 67 -11h16q10 0 10 -10z" />
    <glyph glyph-name="uniFEA6" unicode="&#x62e;" horiz-adv-x="651" arabic-form="final" 
d="M661 155v-144q0 -5 -3 -8t-7 -3q-95 0 -142.5 41t-48.5 125q-133 -12 -209 -58t-76 -115q0 -52 39 -81t116 -29q75 0 196 35l42 -133q-72 -29 -142 -44.5t-130 -15.5q-79 0 -140.5 28.5t-96 83.5t-34.5 130q0 124 98.5 200.5t293.5 101.5q-91 64 -140.5 87.5t-97.5 23.5
q-22 0 -41 -3t-54 -11l-30 139q84 34 144 34q46 0 94.5 -18.5t118.5 -62t187 -128.5l-49 -154q12 -7 34.5 -9t67.5 -2q10 0 10 -10zM320 652l104 103l104 -103l-103 -103z" />
    <glyph glyph-name="uniFEA7" unicode="&#x62e;" horiz-adv-x="589" arabic-form="initial" 
d="M271 488q46 -16 115.5 -58t187.5 -124l-31 -159q-149 -83 -266.5 -115t-275.5 -32q-5 0 -8 3.5t-3 7.5v144q0 4 3 7t8 3q140 0 231 14t182 49q-103 70 -154 94t-100 24q-28 0 -76 -10l-20 -4l-29 138q79 34 144 34q46 0 92 -16zM283 635l104 103l104 -103l-103 -103z" />
    <glyph glyph-name="uniFEA8" unicode="&#x62e;" horiz-adv-x="632" arabic-form="medial" 
d="M642 155v-144q0 -5 -3 -8t-7 -3h-17q-57 0 -98.5 27t-59.5 75q-115 -56 -218 -79t-238 -23q-5 0 -8 3.5t-3 7.5v144q0 4 3 7t8 3q140 0 231 14t182 49q-103 70 -154 94t-100 24q-28 0 -76 -10l-20 -4l-29 138q79 34 144 34q46 0 92 -16t115.5 -58t187.5 -124l-25 -130
q22 -9 67 -11h16q10 0 10 -10zM297 635l104 103l104 -103l-103 -103z" />
    <glyph glyph-name="uniFEAA" unicode="&#x62f;" horiz-adv-x="595" arabic-form="final" 
d="M605 155v-144q0 -5 -3 -8t-7 -3q-87 0 -149 60q-60 -60 -188 -60h-224l-24 165h250q41 0 62 20.5t21 56.5v32q-1 40 -31 64.5t-78 24.5h-68v160h104q105 0 167.5 -61.5t62.5 -173.5v-78q0 -14 -1 -21q43 -24 96 -24q10 0 10 -10z" />
    <glyph glyph-name="uniFEAC" unicode="&#x630;" horiz-adv-x="595" arabic-form="final" 
d="M605 155v-144q0 -5 -3 -8t-7 -3q-87 0 -149 60q-60 -60 -188 -60h-224l-24 165h250q41 0 62 20.5t21 56.5v32q-1 40 -31 64.5t-78 24.5h-68v160h104q105 0 167.5 -61.5t62.5 -173.5v-78q0 -14 -1 -21q43 -24 96 -24q10 0 10 -10zM133 690l104 103l104 -103l-103 -103z
" />
    <glyph glyph-name="uniFEAE" unicode="&#x631;" horiz-adv-x="384" arabic-form="final" 
d="M394 155v-144q0 -5 -3 -8t-7 -3q-64 0 -104 40v-17q0 -127 -69 -182.5t-215 -55.5l-11 127q65 0 102.5 28.5t37.5 89.5l-1 458l156 19v-269q6 -34 34.5 -53.5t69.5 -19.5q10 0 10 -10z" />
    <glyph glyph-name="uniFEB0" unicode="&#x632;" horiz-adv-x="384" arabic-form="final" 
d="M394 155v-144q0 -5 -3 -8t-7 -3q-64 0 -104 40v-17q0 -127 -69 -182.5t-215 -55.5l-11 127q65 0 102.5 28.5t37.5 89.5l-1 458l156 19v-269q6 -34 34.5 -53.5t69.5 -19.5q10 0 10 -10zM97 657l104 103l104 -103l-103 -103z" />
    <glyph glyph-name="uniFEB2" unicode="&#x633;" horiz-adv-x="1362" arabic-form="final" 
d="M1372 155v-144q0 -5 -3 -8t-7 -3q-77 0 -136 48q-52 -48 -151 -48q-83 0 -166 56q-61 -56 -161 -56q-62 0 -119 38q-14 -121 -92 -187t-212 -66q-147 0 -223 67t-76 200q0 103 43 233l126 -34q-28 -89 -28 -153q1 -148 158 -148q152 0 151 165v373l156 19v-315
q48 -27 100 -27q43 0 63.5 24.5t20.5 77.5l-1 120l156 18v-195q0 -13 -2 -33q37 -12 77 -12q41 0 62 26t21 76v221l156 19v-297q0 -10 -2 -30q35 -15 79 -15q10 0 10 -10z" />
    <glyph glyph-name="uniFEB3" unicode="&#x633;" horiz-adv-x="913" arabic-form="initial" 
d="M865 507v-297q0 -102 -53.5 -156t-156.5 -54q-83 0 -166 56q-62 -56 -161 -56q-76 0 -148 59q-62 -59 -180 -59q-4 0 -7 3t-3 8v144q0 10 10 10q42 0 62.5 24.5t20.5 77.5l-1 120l157 18v-195q0 -10 -2 -30q38 -15 75 -15q43 0 63.5 24.5t20.5 77.5l-1 120l156 18v-195
q0 -11 -2 -33q38 -12 77 -12q41 0 62 26t21 76v222z" />
    <glyph glyph-name="uniFEB4" unicode="&#x633;" horiz-adv-x="949" arabic-form="medial" 
d="M959 155v-144q0 -5 -3 -8t-7 -3q-80 0 -140 51q-54 -51 -154 -51q-83 0 -166 56q-62 -56 -161 -56q-76 0 -148 59q-62 -59 -180 -59q-4 0 -7 3t-3 8v144q0 10 10 10q42 0 62.5 24.5t20.5 77.5l-1 120l157 18v-195q0 -10 -2 -30q38 -15 75 -15q43 0 63.5 24.5t20.5 77.5
l-1 120l156 18v-195q0 -11 -2 -33q38 -12 77 -12q41 0 62 26t21 76v222l156 18v-297l-1 -27q36 -18 85 -18q10 0 10 -10z" />
    <glyph glyph-name="uniFEB6" unicode="&#x634;" horiz-adv-x="1362" arabic-form="final" 
d="M1372 155v-144q0 -5 -3 -8t-7 -3q-77 0 -136 48q-52 -48 -151 -48q-83 0 -166 56q-61 -56 -161 -56q-62 0 -119 38q-14 -121 -92 -187t-212 -66q-147 0 -223 67t-76 200q0 103 43 233l126 -34q-28 -89 -28 -153q1 -148 158 -148q152 0 151 165v373l156 19v-315
q48 -27 100 -27q43 0 63.5 24.5t20.5 77.5l-1 120l156 18v-195q0 -13 -2 -33q37 -12 77 -12q41 0 62 26t21 76v221l156 19v-297q0 -10 -2 -30q35 -15 79 -15q10 0 10 -10zM894 683l-66 67l65 67l68 -67zM973 505l-80 78l-78 -78l-104 104l103 103l79 -78l78 78l104 -103z
" />
    <glyph glyph-name="uniFEB7" unicode="&#x634;" horiz-adv-x="913" arabic-form="initial" 
d="M865 507v-297q0 -102 -53.5 -156t-156.5 -54q-83 0 -166 56q-62 -56 -161 -56q-76 0 -148 59q-62 -59 -180 -59q-4 0 -7 3t-3 8v144q0 10 10 10q42 0 62.5 24.5t20.5 77.5l-1 120l157 18v-195q0 -10 -2 -30q38 -15 75 -15q43 0 63.5 24.5t20.5 77.5l-1 120l156 18v-195
q0 -11 -2 -33q38 -12 77 -12q41 0 62 26t21 76v222zM472 683l-66 67l65 67l68 -67zM551 505l-80 78l-78 -78l-104 104l103 103l79 -78l78 78l104 -103z" />
    <glyph glyph-name="uniFEB8" unicode="&#x634;" horiz-adv-x="949" arabic-form="medial" 
d="M959 155v-144q0 -5 -3 -8t-7 -3q-80 0 -140 51q-54 -51 -154 -51q-83 0 -166 56q-62 -56 -161 -56q-76 0 -148 59q-62 -59 -180 -59q-4 0 -7 3t-3 8v144q0 10 10 10q42 0 62.5 24.5t20.5 77.5l-1 120l157 18v-195q0 -10 -2 -30q38 -15 75 -15q43 0 63.5 24.5t20.5 77.5
l-1 120l156 18v-195q0 -11 -2 -33q38 -12 77 -12q41 0 62 26t21 76v222l156 18v-297l-1 -27q36 -18 85 -18q10 0 10 -10zM471 683l-66 67l65 67l68 -67zM550 505l-80 78l-78 -78l-104 104l103 103l79 -78l78 78l104 -103z" />
    <glyph glyph-name="uniFEBA" unicode="&#x635;" horiz-adv-x="1344" arabic-form="final" 
d="M1354 155v-144q0 -5 -3 -8t-7 -3q-45 0 -84.5 17t-70.5 49q-63 -66 -192 -66h-375q-23 -103 -99 -159t-198 -56q-147 0 -223 67t-76 200q0 103 43 233l126 -34q-28 -89 -28 -153q1 -148 158 -148q152 0 151 165v373l156 19v-89q141 67 223 92.5t156 25.5q67 0 120 -29.5
t81.5 -83.5t27.5 -123l-1 -90l-1 -15q47 -30 106 -30q10 0 10 -10zM1083 285q0 40 -30 65.5t-78 25.5q-53 0 -101.5 -12t-193.5 -57l-48 -15v-127h367q40 0 62 21.5t22 61.5v37z" />
    <glyph glyph-name="uniFEBB" unicode="&#x635;" horiz-adv-x="876" arabic-form="initial" 
d="M732 506.5q52 -29.5 81 -83t29 -122.5q0 -65 -27 -168l-114 -133h-548h-153q-4 0 -7 3t-3 8l2 144q0 10 10 10h76l-1 323l157 19v-89q140 67 222 92.5t156 25.5q68 0 120 -29.5zM685 286q0 40 -30 65t-78 25q-56 0 -109 -13t-211 -64q-18 -5 -23 -7v-127h431
q20 74 20 121z" />
    <glyph glyph-name="uniFEBC" unicode="&#x635;" horiz-adv-x="947" arabic-form="medial" 
d="M957 155v-144q0 -5 -3 -8t-7 -3q-91 0 -156 67q-61 -67 -192 -67h-446h-153q-4 0 -7 3t-3 8v144q3 10 10 10h78l-1 323l157 19v-89q140 67 222 92.5t156 25.5q68 0 121 -29.5t81.5 -83.5t27.5 -123l-2 -90v-14q48 -31 107 -31q10 0 10 -10zM685 285q0 40 -30 65.5
t-78 25.5q-42 0 -78 -6.5t-88 -22t-177 -55.5v-127h367q40 0 62 21.5t22 61.5v37z" />
    <glyph glyph-name="uniFEBE" unicode="&#x636;" horiz-adv-x="1344" arabic-form="final" 
d="M1354 155v-144q0 -5 -3 -8t-7 -3q-45 0 -84.5 17t-70.5 49q-63 -66 -192 -66h-375q-23 -103 -99 -159t-198 -56q-147 0 -223 67t-76 200q0 103 43 233l126 -34q-28 -89 -28 -153q1 -148 158 -148q152 0 151 165v373l156 19v-89q141 67 223 92.5t156 25.5q67 0 120 -29.5
t81.5 -83.5t27.5 -123l-1 -90l-1 -15q47 -30 106 -30q10 0 10 -10zM1083 285q0 40 -30 65.5t-78 25.5q-53 0 -101.5 -12t-193.5 -57l-48 -15v-127h367q40 0 62 21.5t22 61.5v37zM654 693l104 103l104 -103l-103 -103z" />
    <glyph glyph-name="uniFEBF" unicode="&#x636;" horiz-adv-x="876" arabic-form="initial" 
d="M732 506.5q52 -29.5 81 -83t29 -122.5q0 -65 -27 -168l-114 -133h-548h-153q-4 0 -7 3t-3 8l2 144q0 10 10 10h76l-1 323l157 19v-89q140 67 222 92.5t156 25.5q68 0 120 -29.5zM685 286q0 40 -30 65t-78 25q-56 0 -109 -13t-211 -64q-18 -5 -23 -7v-127h431
q20 74 20 121zM280 693l104 103l104 -103l-103 -103z" />
    <glyph glyph-name="uniFEC0" unicode="&#x636;" horiz-adv-x="947" arabic-form="medial" 
d="M957 155v-144q0 -5 -3 -8t-7 -3q-91 0 -156 67q-61 -67 -192 -67h-446h-153q-4 0 -7 3t-3 8v144q3 10 10 10h78l-1 323l157 19v-89q140 67 222 92.5t156 25.5q68 0 121 -29.5t81.5 -83.5t27.5 -123l-2 -90v-14q48 -31 107 -31q10 0 10 -10zM685 285q0 40 -30 65.5
t-78 25.5q-42 0 -78 -6.5t-88 -22t-177 -55.5v-127h367q40 0 62 21.5t22 61.5v37zM280 693l104 103l104 -103l-103 -103z" />
    <glyph glyph-name="uniFEC2" unicode="&#x637;" horiz-adv-x="1010" arabic-form="final" 
d="M1020 155v-144q0 -5 -3 -8t-7 -3q-91 0 -156 67q-61 -67 -192 -67h-446h-76h-105l-23 165h128v547l157 18v-311q142 66 223.5 91.5t154.5 25.5q68 0 121 -29.5t81.5 -83.5t27.5 -123l-2 -90v-14q47 -31 107 -31q10 0 10 -10zM748 285q0 40 -30 65.5t-78 25.5
q-41 0 -77.5 -6.5t-88.5 -21.5t-177 -55v-128h367q40 0 62 21.5t22 61.5v37z" />
    <glyph glyph-name="uniFEC3" unicode="&#x637;" horiz-adv-x="876" arabic-form="initial" 
d="M732 506.5q52 -29.5 81 -83t29 -122.5q0 -65 -27 -168l-114 -133h-467h-157h-77q-4 0 -7 3t-3 8l2 144q0 10 10 10h75v547l157 18v-312q140 67 222 92.5t156 25.5q68 0 120 -29.5zM685 286q0 40 -30 65t-78 25q-42 0 -78 -6.5t-88 -22t-177 -55.5v-127h431q20 74 20 121z
" />
    <glyph glyph-name="uniFEC4" unicode="&#x637;" horiz-adv-x="947" arabic-form="medial" 
d="M957 155v-144q0 -5 -3 -8t-7 -3q-91 0 -156 67q-61 -67 -192 -67h-365h-157h-77q-4 0 -7 3t-3 8v144q3 10 10 10h77v547l157 18v-312q140 67 222 92.5t156 25.5q68 0 121 -29.5t81.5 -83.5t27.5 -123l-2 -90v-14q48 -31 107 -31q10 0 10 -10zM685 285q0 40 -30 65.5
t-78 25.5q-42 0 -78 -6.5t-88 -22t-177 -55.5v-127h367q40 0 62 21.5t22 61.5v37z" />
    <glyph glyph-name="uniFEC6" unicode="&#x638;" horiz-adv-x="1010" arabic-form="final" 
d="M1020 155v-144q0 -5 -3 -8t-7 -3q-91 0 -156 67q-61 -67 -192 -67h-446h-76h-105l-23 165h128v547l157 18v-311q142 66 223.5 91.5t154.5 25.5q68 0 121 -29.5t81.5 -83.5t27.5 -123l-2 -90v-14q47 -31 107 -31q10 0 10 -10zM748 285q0 40 -30 65.5t-78 25.5
q-41 0 -77.5 -6.5t-88.5 -21.5t-177 -55v-128h367q40 0 62 21.5t22 61.5v37zM395 693l104 103l104 -103l-103 -103z" />
    <glyph glyph-name="uniFEC7" unicode="&#x638;" horiz-adv-x="876" arabic-form="initial" 
d="M732 506.5q52 -29.5 81 -83t29 -122.5q0 -65 -27 -168l-114 -133h-467h-157h-77q-4 0 -7 3t-3 8l2 144q0 10 10 10h75v547l157 18v-312q140 67 222 92.5t156 25.5q68 0 120 -29.5zM685 286q0 40 -30 65t-78 25q-42 0 -78 -6.5t-88 -22t-177 -55.5v-127h431q20 74 20 121z
M325 693l104 103l104 -103l-103 -103z" />
    <glyph glyph-name="uniFEC8" unicode="&#x638;" horiz-adv-x="947" arabic-form="medial" 
d="M957 155v-144q0 -5 -3 -8t-7 -3q-91 0 -156 67q-61 -67 -192 -67h-365h-157h-77q-4 0 -7 3t-3 8v144q3 10 10 10h77v547l157 18v-312q140 67 222 92.5t156 25.5q68 0 121 -29.5t81.5 -83.5t27.5 -123l-2 -90v-14q48 -31 107 -31q10 0 10 -10zM685 285q0 40 -30 65.5
t-78 25.5q-42 0 -78 -6.5t-88 -22t-177 -55.5v-127h367q40 0 62 21.5t22 61.5v37zM325 693l104 103l104 -103l-103 -103z" />
    <glyph glyph-name="uniFECA" unicode="&#x639;" horiz-adv-x="599" arabic-form="final" 
d="M608 155v-144q0 -5 -3 -8t-7 -3q-88 0 -155.5 20t-131.5 63q-72 -41 -104.5 -67t-32.5 -56q0 -37 43 -57.5t117 -20.5q43 0 98 9t106 25l43 -133q-77 -31 -138.5 -44.5t-124.5 -13.5q-134 0 -211.5 57.5t-77.5 158.5q0 57 39.5 101t112.5 86q-44 51 -79 103.5t-72 125.5
l51 123q72 35 131.5 51t114.5 16q69 0 122.5 -24t83 -68t29.5 -100q0 -47 -23.5 -90t-77.5 -87q63 -13 137 -13q10 0 10 -10zM172 364q30 -61 56.5 -102t61.5 -76q67 36 98.5 62.5t31.5 55.5q0 39 -33 64.5t-87 25.5q-58 0 -128 -30z" />
    <glyph glyph-name="uniFECB" unicode="&#x639;" horiz-adv-x="545" arabic-form="initial" 
d="M531 207l-33 -166q-109 -20 -224.5 -30.5t-273.5 -10.5q-4 0 -7 3t-3 8v144q0 10 10 10h71q-34 71 -34 140q0 57 29.5 103t82 72.5t120.5 26.5q74 0 198 -42l-42 -133q-85 23 -130 23q-53 0 -84.5 -26t-31.5 -67q0 -43 26 -93q144 8 326 38z" />
    <glyph glyph-name="uniFECC" unicode="&#x639;" horiz-adv-x="598" arabic-form="medial" 
d="M604 155v-144q0 -5 -3 -8t-7 -3q-83 0 -147 15.5t-122 49.5q-75 -37 -144.5 -51t-180.5 -14q-10 2 -10 11v144q0 10 10 10q76 0 136 6q-62 81 -110 179l51 123q72 35 131 51t115 16q69 0 122.5 -24t83 -67.5t29.5 -100.5q0 -43 -20.5 -89t-63.5 -87q48 -7 120 -7
q10 0 10 -10zM167 358q31 -63 59 -105.5t65 -79.5q59 22 92 56t33 68q0 39 -31.5 64.5t-82.5 25.5q-59 2 -135 -29z" />
    <glyph glyph-name="uniFECE" unicode="&#x63a;" horiz-adv-x="599" arabic-form="final" 
d="M608 155v-144q0 -5 -3 -8t-7 -3q-88 0 -155.5 20t-131.5 63q-72 -41 -104.5 -67t-32.5 -56q0 -37 43 -57.5t117 -20.5q43 0 98 9t106 25l43 -133q-77 -31 -138.5 -44.5t-124.5 -13.5q-134 0 -211.5 57.5t-77.5 158.5q0 57 39.5 101t112.5 86q-44 51 -79 103.5t-72 125.5
l51 123q72 35 131.5 51t114.5 16q69 0 122.5 -24t83 -68t29.5 -100q0 -47 -23.5 -90t-77.5 -87q63 -13 137 -13q10 0 10 -10zM172 364q30 -61 56.5 -102t61.5 -76q67 36 98.5 62.5t31.5 55.5q0 39 -33 64.5t-87 25.5q-58 0 -128 -30zM195 720l104 103l104 -103l-103 -103z
" />
    <glyph glyph-name="uniFECF" unicode="&#x63a;" horiz-adv-x="545" arabic-form="initial" 
d="M531 207l-33 -166q-109 -20 -224.5 -30.5t-273.5 -10.5q-4 0 -7 3t-3 8v144q0 10 10 10h71q-34 71 -34 140q0 57 29.5 103t82 72.5t120.5 26.5q74 0 198 -42l-42 -133q-85 23 -130 23q-53 0 -84.5 -26t-31.5 -67q0 -43 26 -93q144 8 326 38zM150 674l104 103l104 -103
l-103 -103z" />
    <glyph glyph-name="uniFED0" unicode="&#x63a;" horiz-adv-x="598" arabic-form="medial" 
d="M604 155v-144q0 -5 -3 -8t-7 -3q-83 0 -147 15.5t-122 49.5q-75 -37 -144.5 -51t-180.5 -14q-10 2 -10 11v144q0 10 10 10q76 0 136 6q-62 81 -110 179l51 123q72 35 131 51t115 16q69 0 122.5 -24t83 -67.5t29.5 -100.5q0 -43 -20.5 -89t-63.5 -87q48 -7 120 -7
q10 0 10 -10zM167 358q31 -63 59 -105.5t65 -79.5q59 22 92 56t33 68q0 39 -31.5 64.5t-82.5 25.5q-59 2 -135 -29zM191 713l104 103l104 -103l-103 -103z" />
    <glyph glyph-name="uniFED2" unicode="&#x641;" horiz-adv-x="950" arabic-form="final" 
d="M672 580l-105 103l104 103l104 -103zM967 155v-144q0 -5 -3 -8t-7 -3q-119 0 -263 50q-120 -48 -279 -50h-1h-139q-249 0 -249 226q0 77 20 162l134 -16q-11 -65 -11 -98q0 -57 35 -83t110 -26h89q55 0 98 4q-45 57 -45 131q0 60 28 109t79.5 77.5t118.5 28.5t119.5 -30
t81.5 -79.5t29 -106.5q0 -69 -48 -128q43 -6 93 -6q10 0 10 -10zM612.5 340.5q-23.5 -25.5 -23.5 -61.5q0 -33 23 -62.5t63 -44.5q40 17 63.5 46t23.5 61q0 38 -26.5 62.5t-61.5 24.5q-38 0 -61.5 -25.5z" />
    <glyph glyph-name="uniFED3" unicode="&#x641;" horiz-adv-x="550" arabic-form="initial" 
d="M396 484q56 -31 88 -86.5t32 -124.5q0 -82 -35 -144t-99.5 -95.5t-151.5 -33.5h-230q-10 0 -10 11v144q0 10 10 10h62q-30 63 -30 117q0 67 31 120t85.5 83t120.5 30q71 0 127 -31zM325.5 194.5q34.5 29.5 34.5 79.5q0 40 -26.5 66t-66.5 26t-68 -28.5t-28 -69.5
q0 -45 28 -103h32q60 0 94.5 29.5zM157 683l104 103l104 -103l-103 -103z" />
    <glyph glyph-name="uniFED4" unicode="&#x641;" horiz-adv-x="554" arabic-form="medial" 
d="M564 155v-144q0 -5 -3 -8t-7 -3q-119 0 -263 50q-61 -25 -136.5 -37.5t-154.5 -12.5q-10 2 -10 11v144q0 10 10 10q56 0 97 4q-44 58 -44 131q0 60 28 109t79.5 77.5t118.5 28.5t119.5 -30t81.5 -79.5t29 -106.5q0 -68 -47 -128q42 -6 92 -6q10 0 10 -10zM209.5 340.5
q-23.5 -25.5 -23.5 -61.5q0 -34 23 -63t63 -44q40 17 63.5 46t23.5 61q0 38 -26.5 62.5t-61.5 24.5q-38 0 -61.5 -25.5zM162 683l104 103l104 -103l-103 -103z" />
    <glyph glyph-name="uniFED6" unicode="&#x642;" horiz-adv-x="804" arabic-form="final" 
d="M814 155v-144q0 -5 -3 -8t-7 -3h-55q-19 -106 -111 -160.5t-272 -54.5q-161 0 -250.5 69.5t-89.5 197.5q0 103 43 233l126 -34q-28 -89 -28 -153q1 -88 56.5 -132.5t163.5 -44.5q84 0 137 20t72 59h-85q-70 0 -123 30.5t-82.5 86.5t-29.5 130q0 73 32.5 132t88 92.5
t123.5 33.5q67 -1 120.5 -31t83.5 -86.5t30 -132.5v-90h50q10 0 10 -10zM445.5 180.5q30.5 -24.5 79.5 -24.5q22 0 74 4v85q0 48 -25.5 75t-67.5 27q-38 0 -64.5 -26.5t-26.5 -68.5q0 -47 30.5 -71.5zM596 581l-80 78l-78 -78l-104 104l103 103l79 -78l78 78l104 -103z" />
    <glyph glyph-name="uniFED7" unicode="&#x642;" horiz-adv-x="550" arabic-form="initial" 
d="M396 484q56 -31 88 -86.5t32 -124.5q0 -82 -35 -144t-99.5 -95.5t-151.5 -33.5h-230q-10 0 -10 11v144q0 10 10 10h62q-30 63 -30 117q0 67 31 120t85.5 83t120.5 30q71 0 127 -31zM325.5 194.5q34.5 29.5 34.5 79.5q0 40 -26.5 66t-66.5 26t-68 -28.5t-28 -69.5
q0 -45 28 -103h32q60 0 94.5 29.5zM344 581l-80 78l-78 -78l-104 104l103 103l79 -78l78 78l104 -103z" />
    <glyph glyph-name="uniFED8" unicode="&#x642;" horiz-adv-x="554" arabic-form="medial" 
d="M564 155v-144q0 -5 -3 -8t-7 -3q-119 0 -263 50q-61 -25 -136.5 -37.5t-154.5 -12.5q-10 2 -10 11v144q0 10 10 10q56 0 97 4q-44 58 -44 131q0 60 28 109t79.5 77.5t118.5 28.5t119.5 -30t81.5 -79.5t29 -106.5q0 -68 -47 -128q42 -6 92 -6q10 0 10 -10zM209.5 340.5
q-23.5 -25.5 -23.5 -61.5q0 -34 23 -63t63 -44q40 17 63.5 46t23.5 61q0 38 -26.5 62.5t-61.5 24.5q-38 0 -61.5 -25.5zM347 581l-80 78l-78 -78l-104 104l103 103l79 -78l78 78l104 -103z" />
    <glyph glyph-name="uniFEDA" unicode="&#x643;" horiz-adv-x="885" arabic-form="final" 
d="M895 11q0 -5 -3 -8t-7 -3q-145 0 -202 77q-57 -38 -123 -57.5t-147 -19.5h-138q-249 0 -249 226q0 75 19 162l134 -16q-10 -67 -10 -98q0 -57 35 -83t110 -26h99q80 0 136 9t96 29v9l-1 500l156 18l1 -462q0 -53 20 -78t63 -25q10 0 10 -10zM526 352h-234v102h50
q-15 26 -15 53q0 47 32.5 76.5t82.5 29.5q35 0 78 -21v-89q-42 14 -68 14q-20 0 -32 -8.5t-12 -24.5q0 -15 12 -30h138z" />
    <glyph glyph-name="uniFEDB" unicode="&#x643;" horiz-adv-x="585" arabic-form="initial" 
d="M436.5 420.5q57.5 -26.5 89 -74.5t31.5 -112q0 -111 -64.5 -172.5t-179.5 -61.5h-313q-4 0 -7 3t-3 8v144q0 10 10 10h313q40 0 63.5 19t23.5 53q0 32 -23 51t-63 19h-224l-80 140l282 351l139 -79l-265 -272h138q75 0 132.5 -26.5z" />
    <glyph glyph-name="uniFEDC" unicode="&#x643;" horiz-adv-x="645" arabic-form="medial" 
d="M655 155v-144q0 -5 -3 -8t-7 -3q-88 0 -152 62q-65 -62 -180 -62h-313q-4 0 -7 3t-3 8v144q0 10 10 10h313q40 0 63.5 19t23.5 53q0 32 -23 51t-63 19h-224l-80 140l282 351l139 -79l-265 -272h138q75 0 132.5 -26.5t89 -74.5t31.5 -112q0 -27 -4 -47q41 -22 92 -22
q10 0 10 -10z" />
    <glyph glyph-name="uniFEDE" unicode="&#x644;" horiz-adv-x="740" arabic-form="final" 
d="M750 155v-144q0 -5 -3 -8t-7 -3q-69 0 -110 45q-13 -124 -91 -192t-214 -68q-147 0 -223 67t-76 200q0 103 43 233l126 -34q-28 -89 -28 -153q1 -148 158 -148q152 0 151 165v373v232l156 18v-434v-48q0 -40 31 -65.5t77 -25.5q10 0 10 -10z" />
    <glyph glyph-name="uniFEDF" unicode="&#x644;" horiz-adv-x="315" arabic-form="initial" 
d="M-7 3q-3 3 -3 8l1 144q0 10 10 10q43 0 63 25t20 78l1 444l156 18l-1 -518q0 -212 -240 -212q-4 0 -7 3z" />
    <glyph glyph-name="uniFEE0" unicode="&#x644;" horiz-adv-x="330" arabic-form="medial" 
d="M339 11q0 -5 -3 -8t-7 -3q-131 0 -191 63q-35 -33 -67 -48t-71 -15q-4 0 -7 3t-3 8v144q0 10 10 10q53 0 90 26q-1 7 -1 21l-1 500l157 18v-462q0 -53 20 -78t63 -25q10 0 10 -10z" />
    <glyph glyph-name="uniFEE2" unicode="&#x645;" horiz-adv-x="710" arabic-form="final" 
d="M720 155v-144q0 -11 -10 -11h-234q-91 0 -157.5 38.5t-98.5 107.5q-40 -15 -40 -77v-321l-156 -18v344q0 109 42.5 167.5t130.5 71.5q9 59 42.5 105t86 71.5t116.5 25.5t117.5 -30t84.5 -82.5t31 -114.5q0 -57 -21 -123h56q10 0 10 -10zM525 165q14 57 14 103
q0 41 -27.5 70t-67.5 29t-66.5 -26.5t-26.5 -67.5q0 -49 33 -78.5t91 -29.5h50z" />
    <glyph glyph-name="uniFEE3" unicode="&#x645;" horiz-adv-x="550" arabic-form="initial" 
d="M396 484q56 -31 88 -86.5t32 -124.5q0 -82 -35 -144t-99.5 -95.5t-151.5 -33.5h-230q-10 0 -10 11v144q0 10 10 10h62q-30 63 -30 117q0 67 31 120t85.5 83t120.5 30q71 0 127 -31zM325.5 194.5q34.5 29.5 34.5 79.5q0 40 -26.5 66t-66.5 26t-68 -28.5t-28 -69.5
q0 -45 28 -103h32q60 0 94.5 29.5z" />
    <glyph glyph-name="uniFEE4" unicode="&#x645;" horiz-adv-x="574" arabic-form="medial" 
d="M584 155v-144q0 -11 -10 -11h-235q-103 0 -175 50q-38 -24 -81.5 -37t-82.5 -13q-4 0 -7 3t-3 8v144q0 10 10 10q39 0 72 11q-14 47 -14 97q0 69 31.5 124t88 86.5t127.5 31.5q64 0 118 -30t85.5 -82.5t31.5 -114.5q0 -55 -20 -123h54q10 0 10 -10zM388 165q14 57 14 103
q0 41 -27.5 70t-67.5 29t-66.5 -26.5t-26.5 -67.5q0 -49 33 -78.5t91 -29.5h50z" />
    <glyph glyph-name="uniFEE6" unicode="&#x646;" horiz-adv-x="738" arabic-form="final" 
d="M748 155v-144q0 -5 -3 -8t-7 -3q-33 0 -60.5 11.5t-47.5 33.5q-13 -124 -91 -192t-214 -68q-147 0 -223 67t-76 200q0 103 43 233l126 -34q-28 -89 -28 -153q1 -148 158 -148q152 0 151 165v373l156 19v-250q1 -43 30.5 -67.5t75.5 -24.5q10 0 10 -10zM199 502l104 103
l104 -103l-103 -103z" />
    <glyph glyph-name="uniFEE7" unicode="&#x646;" horiz-adv-x="287" arabic-form="initial" 
d="M-7 3q-3 3 -3 8l2 144q0 10 10 10q42 0 62.5 24.5t20.5 77.5l-1 221l156 19v-297q0 -210 -240 -210q-4 0 -7 3zM54 683l104 103l104 -103l-103 -103z" />
    <glyph glyph-name="uniFEE8" unicode="&#x646;" horiz-adv-x="345" arabic-form="medial" 
d="M355 155v-144q0 -5 -3 -8t-7 -3q-44 0 -83 16.5t-70 47.5q-61 -64 -192 -64q-4 0 -7 3t-3 8l2 144q0 10 10 10q42 0 62.5 24.5t20.5 77.5l-1 120l156 18v-195v-16q48 -29 105 -29q10 0 10 -10zM60 568l104 103l104 -103l-103 -103z" />
    <glyph glyph-name="uniFEE9" unicode="&#x647;" horiz-adv-x="824" arabic-form="isolated" 
d="M667 610q124 -102 124 -293q0 -43 -10 -96t-26 -95l-140 -139q-59 -1 -128.5 16.5t-139.5 51.5q-107 -55 -190 -55q-73 0 -145 23l30 159q57 -17 102 -17q-48 59 -48 135q0 60 28 109.5t79.5 78t118.5 28.5t119.5 -30t81.5 -79.5t29 -107.5q0 -71 -54 -135
q53 -13 111 -13q17 39 25.5 82t8.5 78q0 64 -35.5 123.5t-113.5 98.5t-200 39l13 140q236 0 360 -102zM252.5 341q-23.5 -25 -23.5 -61q0 -34 23 -63t63 -44q40 17 63.5 46t23.5 61q0 38 -26.5 62t-61.5 24q-38 0 -61.5 -25z" />
    <glyph glyph-name="uniFEEA" unicode="&#x647;" horiz-adv-x="581" arabic-form="final" 
d="M591 155v-144q0 -5 -3 -8t-7 -3q-94 0 -146 37q-89 -46 -168 -46q-70 0 -125.5 33t-86.5 91t-31 128q0 71 31.5 131t87 96t124.5 36q44 0 101 -19v54l156 19l1 -333q0 -62 56 -62q10 0 10 -10zM371 162q-2 13 -2 43l-1 129q-52 18 -93 18q-48 0 -77 -29.5t-29 -76.5
q0 -42 27.5 -71t70.5 -30q56 -2 104 17z" />
    <glyph glyph-name="uniFEEB" unicode="&#x647;" horiz-adv-x="815" arabic-form="initial" 
d="M657.5 610q124.5 -102 124.5 -293q0 -79 -28 -184l-114 -133h-300q-104 0 -174 49q-38 -23 -82.5 -36t-83.5 -13q-4 0 -7 3t-3 8v144q0 10 10 10q40 0 73 11q-14 45 -14 97q0 69 31.5 124t88 86.5t127.5 31.5q64 0 118 -30t85.5 -82.5t31.5 -114.5q0 -55 -20 -123h91
q22 76 22 146q0 64 -35.5 123.5t-114 98.5t-200.5 39l12 140q237 0 361.5 -102zM389 165q14 57 14 103q0 41 -27.5 70t-67.5 29t-66.5 -26.5t-26.5 -67.5q0 -49 33 -78.5t91 -29.5h50z" />
    <glyph glyph-name="uniFEEC" unicode="&#x647;" horiz-adv-x="545" arabic-form="medial" 
d="M565 155v-144q0 -5 -3 -8t-7 -3h-23q-5 -105 -73 -162.5t-179 -57.5q-94 0 -159 57.5t-88 163.5q-14 -1 -41 -1q-10 0 -10 11v144q0 10 10 10h32q12 115 71.5 230.5t152.5 199.5h134q60 -76 96 -159.5t36 -147.5q0 -69 -40 -123h81q10 0 10 -10zM204 319
q-33 -80 -41 -148q103 8 149 34.5t46 79.5q0 40 -17.5 88t-48.5 96q-55 -70 -88 -150zM362.5 -50.5q29.5 19.5 35.5 50.5h-49l-19 60q-71 -30 -155 -44q29 -86 111 -86q47 0 76.5 19.5z" />
    <glyph glyph-name="uniFEEE" unicode="&#x648;" horiz-adv-x="561" arabic-form="final" 
d="M571 155v-144q0 -5 -3 -8t-7 -3h-49q-10 -112 -117.5 -163.5t-292.5 -51.5l-16 127q127 0 191 20.5t77 67.5h-84q-70 0 -124 31t-83.5 87.5t-29.5 130.5q0 73 32.5 132t89 92.5t124.5 33.5q67 0 120 -30.5t83.5 -87t30.5 -132.5v-92h48q10 0 10 -10zM204 181
q31 -25 80 -25q22 0 74 4v86q0 48 -25 75.5t-66 27.5q-39 0 -66.5 -26.5t-27.5 -68.5q0 -48 31 -73z" />
    <glyph glyph-name="uniFEF0" unicode="&#x649;" horiz-adv-x="1040" arabic-form="final" 
d="M1050 155v-144q0 -5 -3 -8t-7 -3h-267v329h-57q-41 0 -62.5 -25.5t-21.5 -75.5v-146q0 -148 -73.5 -222.5t-233.5 -74.5q-147 0 -223 67t-76 200q0 103 43 233l126 -34q-28 -89 -28 -153q1 -148 158 -148q79 0 115 35.5t36 117.5v164q0 104 54.5 165.5t155.5 61.5h152
l91 -80v-249h111q10 0 10 -10z" />
    <glyph glyph-name="uniFEF2" unicode="&#x64a;" horiz-adv-x="1040" arabic-form="final" 
d="M1050 155v-144q0 -5 -3 -8t-7 -3h-267v329h-57q-41 0 -62.5 -25.5t-21.5 -75.5v-146q0 -148 -73.5 -222.5t-233.5 -74.5q-147 0 -223 67t-76 200q0 103 43 233l126 -34q-28 -89 -28 -153q1 -148 158 -148q79 0 115 35.5t36 117.5v164q0 104 54.5 165.5t155.5 61.5h152
l91 -80v-249h111q10 0 10 -10zM484 -461l-73 71l-71 -71l-105 103l103 103l73 -71l71 71l105 -103z" />
    <glyph glyph-name="uniFEF3" unicode="&#x64a;" horiz-adv-x="371" arabic-form="initial" 
d="M-7 3q-3 3 -3 8l2 144q0 10 10 10h84q42 0 62.5 24.5t20.5 77.5l-1 221l156 19v-297q0 -210 -240 -210h-84q-4 0 -7 3zM234 -257l-73 71l-71 -71l-105 103l103 103l73 -71l71 71l105 -103z" />
    <glyph glyph-name="uniFEF4" unicode="&#x64a;" horiz-adv-x="387" arabic-form="medial" 
d="M397 155v-144q0 -5 -3 -8t-7 -3q-40 0 -81 19.5t-76 55.5q-69 -75 -230 -75q-4 0 -7 3t-3 8l2 144q0 10 10 10q60 0 90 24.5t30 77.5l-1 120l156 18v-195v-13q50 -32 110 -32q10 0 10 -10zM267 -257l-73 71l-71 -71l-105 103l103 103l73 -71l71 71l105 -103z" />
    <glyph glyph-name=".notdef" horiz-adv-x="281" 
 />
    <glyph glyph-name=".null" 
 />
    <glyph glyph-name="nonmarkingreturn" horiz-adv-x="333" 
 />
    <glyph glyph-name="space" unicode=" " horiz-adv-x="210" 
 />
    <glyph glyph-name="exclam" unicode="!" horiz-adv-x="299" 
d="M97 180l-34 206v294h173v-294l-34 -206h-105zM79 0v124h140v-124h-140z" />
    <glyph glyph-name="quotedbl" unicode="&#x22;" horiz-adv-x="418" 
d="M75 416l-26 127v137h132v-137l-26 -127h-80zM263 416l-26 127v137h131v-137l-26 -127h-79z" />
    <glyph glyph-name="numbersign" unicode="#" horiz-adv-x="741" 
d="M699 495v-123h-138l-50 -107h148v-123h-203l-67 -142h-132l67 142h-91l-67 -142h-132l67 142h-64v123h119l50 107h-112v123h167l86 185h132l-85 -185h90l86 185h132l-86 -185h83zM338 372l-50 -107h91l50 107h-91z" />
    <glyph glyph-name="dollar" unicode="$" horiz-adv-x="604" 
d="M439.5 535q-64.5 16 -118.5 16q-49 0 -75 -11t-26 -43q0 -25 28 -40t89 -34q71 -23 117.5 -44.5t80.5 -64t34 -110.5q0 -95 -59 -147t-153 -64v-118h-102v116q-116 5 -214 48v152q49 -30 114 -46t120 -16q116 0 116 59q0 26 -27.5 41t-88.5 35q-70 22 -117 44.5t-81 66.5
t-34 113q0 92 59 141.5t153 58.5v117h102v-117q106 -7 196 -47v-152q-49 30 -113.5 46z" />
    <glyph glyph-name="percent" unicode="%" horiz-adv-x="835" 
d="M74 373.5q-42 51.5 -42 132.5q0 80 42 132t123 52t122.5 -52t41.5 -132q0 -81 -41.5 -132.5t-122.5 -51.5t-123 51.5zM392 370l146 310h131l-189 -310h-88zM126 506q0 -109 71 -109q70 0 70 109q0 110 -70 110q-71 0 -71 -110zM515.5 43.5q-41.5 51.5 -41.5 132.5
q0 80 41.5 132t122.5 52t123 -52t42 -132q0 -81 -42 -132.5t-123 -51.5t-122.5 51.5zM441 310l-147 -310h-131l189 310h89zM568 176q0 -109 71 -109q70 0 70 109q0 110 -70 110q-71 0 -71 -110z" />
    <glyph glyph-name="ampersand" unicode="&#x26;" horiz-adv-x="688" 
d="M534 81q-83 -91 -240 -91q-117 0 -187.5 51.5t-70.5 144.5q0 67 35 111t86 67q-31 33 -45.5 64.5t-14.5 67.5q0 68 35 111.5t89.5 63t115.5 19.5q58 0 104 -11.5t97 -41.5v-131q-51 30 -90.5 43.5t-86.5 13.5q-43 0 -69 -15t-26 -47q0 -29 20.5 -50.5t68.5 -54.5
q7 -4 21 -14l82 -62q8 29 8 68h157q0 -92 -20 -165l55 -40v-191zM271 271q-18 12 -26 19q-18 -19 -26.5 -37t-8.5 -43q0 -34 24 -59.5t68 -25.5q60 0 103 46l-111 83z" />
    <glyph glyph-name="quotesingle" unicode="'" horiz-adv-x="231" 
d="M75 416l-26 127v137h132v-137l-26 -127h-80z" />
    <glyph glyph-name="parenleft" unicode="(" horiz-adv-x="329" 
d="M253.5 701.5q-36.5 -78.5 -60.5 -173.5t-24 -188t24 -188t60.5 -173.5t73.5 -128.5h-102q-44 42 -88.5 114.5t-75 170t-30.5 205.5t30.5 205.5t75 170t88.5 114.5h102q-37 -50 -73.5 -128.5z" />
    <glyph glyph-name="parenright" unicode=")" horiz-adv-x="329" 
d="M75.5 -21.5q36.5 78.5 60.5 173.5t24 188t-24 188t-60.5 173.5t-73.5 128.5h102q44 -42 88.5 -114.5t74.5 -170t30 -205.5t-30 -205.5t-74.5 -170t-88.5 -114.5h-102q37 50 73.5 128.5z" />
    <glyph glyph-name="asterisk" unicode="*" horiz-adv-x="375" 
d="M336 487l-37 -64l-75 44v-87h-73v87l-75 -44l-37 64l75 43l-75 43l37 64l75 -43v86h73v-86l75 43l37 -64l-75 -43z" />
    <glyph glyph-name="plus" unicode="+" horiz-adv-x="567" 
d="M345 257v-186h-123v186h-186v123h186v186h123v-186h186v-123h-186z" />
    <glyph glyph-name="comma" unicode="," horiz-adv-x="237" 
d="M9 -125q18 47 31.5 122t13.5 138h132q-6 -82 -28 -145.5t-60 -119.5z" />
    <glyph glyph-name="hyphen" unicode="-" horiz-adv-x="462" 
d="M53 355h356v-123h-356v123z" />
    <glyph glyph-name="period" unicode="." horiz-adv-x="238" 
d="M52 0v135h134v-135h-134z" />
    <glyph glyph-name="slash" unicode="/" horiz-adv-x="492" 
d="M23 0l313 680h132l-313 -680h-132z" />
    <glyph glyph-name="zero" unicode="0" horiz-adv-x="708" 
d="M181 36.5q-70 46.5 -104 125.5t-34 178q0 98 34 177.5t104 126t173 46.5t173 -46.5t104 -126t34 -177.5q0 -99 -34 -178t-104 -125.5t-173 -46.5t-173 46.5zM251.5 502q-30.5 -57 -30.5 -162t30.5 -162t102.5 -57t102.5 57t30.5 162t-30.5 162t-102.5 57t-102.5 -57z" />
    <glyph glyph-name="one" unicode="1" horiz-adv-x="515" 
d="M502 0h-460v139h143v381l-115 -56l-45 130l185 91h148v-546h125z" />
    <glyph glyph-name="two" unicode="2" horiz-adv-x="613" 
d="M175.5 674q55.5 16 117.5 16q117 0 192 -52t75 -156q0 -61 -32 -107.5t-76.5 -77.5t-109.5 -67q-56 -32 -80.5 -50.5t-24.5 -39.5h315l19 -140h-529v81q0 67 29.5 114.5t70.5 77t106 65.5q48 27 73.5 44t43 39.5t17.5 51.5q0 86 -110 86q-45 0 -92.5 -18.5t-101.5 -50.5
l-20 135q62 33 117.5 49z" />
    <glyph glyph-name="three" unicode="3" horiz-adv-x="593" 
d="M555 187q0 -94 -71.5 -145.5t-200.5 -51.5q-161 0 -266 53l43 121q62 -23 107 -33t90 -10q125 0 125 83q0 44 -34.5 63t-107.5 19h-55v122h55q72 1 103 19.5t31 60.5q0 75 -106 75q-43 0 -79 -9t-104 -33l-43 121q122 52 252 52q112 0 176.5 -49t64.5 -140
q0 -59 -31.5 -98t-86.5 -59q138 -38 138 -161z" />
    <glyph glyph-name="four" unicode="4" horiz-adv-x="667" 
d="M554 120v-120h-174v120h-348v131l344 429h178v-429h84v-131h-84zM380 476l-175 -225h175v225z" />
    <glyph glyph-name="five" unicode="5" horiz-adv-x="605" 
d="M73 287q102 22 183 22q137 0 137 -91q0 -45 -32 -71t-94 -26q-45 0 -88.5 10t-106.5 33l-43 -121q105 -53 264 -53q130 0 204 61t74 170q0 100 -65 155.5t-173 55.5q-48 0 -105 -11l8 120h278l18 139h-440z" />
    <glyph glyph-name="six" unicode="6" horiz-adv-x="673" 
d="M470.5 551q-33.5 8 -79.5 8q-83 0 -126.5 -50.5t-43.5 -162.5q32 43 83.5 67t106.5 24q67 0 116 -26.5t75.5 -73.5t26.5 -107q0 -69 -31.5 -123.5t-93 -85.5t-147.5 -31q-105 0 -175.5 44.5t-104.5 120.5t-34 174q0 91 35 173.5t109 135t186 52.5q63 0 113.5 -10.5
t101.5 -34.5l-44 -122q-40 20 -73.5 28zM265.5 158.5q30.5 -37.5 83.5 -37.5q44 0 73.5 28.5t29.5 74.5q0 44 -29 71.5t-72 27.5q-37 0 -71 -20.5t-53 -51.5q8 -55 38.5 -92.5z" />
    <glyph glyph-name="seven" unicode="7" horiz-adv-x="560" 
d="M362 541h-339l19 139h498v-122l-277 -558h-169z" />
    <glyph glyph-name="eight" unicode="8" horiz-adv-x="654" 
d="M583 293q33 -40 33 -104q0 -95 -81.5 -147t-210.5 -52q-124 0 -205 45.5t-81 139.5q0 45 31 88.5t86 68.5q-84 55 -84 163q0 93 72 144t187 51q69 0 126.5 -21.5t92 -63.5t34.5 -101q0 -94 -91 -145q58 -26 91 -66zM254.5 549q-26.5 -19 -26.5 -52q0 -27 20 -45t49.5 -29
t84.5 -27q24 23 34.5 46t10.5 53q0 31 -26 52t-74 21q-46 0 -72.5 -19zM407.5 134q30.5 21 30.5 58q0 32 -31.5 48t-99.5 34l-34 9q-57 -36 -57 -88q0 -36 29 -59t82 -23q50 0 80.5 21z" />
    <glyph glyph-name="nine" unicode="9" horiz-adv-x="673" 
d="M202 129q33 -8 80 -8q83 0 126.5 50.5t43.5 162.5q-33 -43 -84.5 -67t-105.5 -24q-67 0 -116.5 26.5t-76 73.5t-26.5 107q0 69 31.5 123.5t93 85.5t148.5 31q104 0 174.5 -44t104.5 -120.5t34 -173.5q0 -92 -35 -174.5t-109 -135t-185 -52.5q-64 0 -114 10.5t-102 34.5
l45 122q40 -20 73 -28zM407.5 521.5q-30.5 37.5 -84.5 37.5q-44 0 -73 -28.5t-29 -74.5q0 -44 29 -71t71 -27q38 0 71.5 20t52.5 51q-7 55 -37.5 92.5z" />
    <glyph glyph-name="colon" unicode=":" horiz-adv-x="243" 
d="M55 303v124h132v-124h-132zM55 63v124h132v-124h-132z" />
    <glyph glyph-name="semicolon" unicode=";" horiz-adv-x="271" 
d="M74 303v124h132v-124h-132zM205 19q0 -67 -11 -101t-47 -49.5t-112 -15.5v90q17 0 24.5 4.5t11 20t3.5 51.5v105h131v-105z" />
    <glyph glyph-name="less" unicode="&#x3c;" horiz-adv-x="562" 
d="M53 231v175l455 109v-123l-321 -73l321 -74v-123z" />
    <glyph glyph-name="equal" unicode="=" horiz-adv-x="572" 
d="M58 495h456v-123h-456v123zM58 265h456v-123h-456v123z" />
    <glyph glyph-name="greater" unicode="&#x3e;" horiz-adv-x="562" 
d="M53 245l321 74l-321 73v123l455 -109v-175l-455 -109v123z" />
    <glyph glyph-name="question" unicode="?" horiz-adv-x="535" 
d="M280.5 387.5q44.5 23.5 44.5 72.5q0 42 -28 66.5t-79 24.5q-39 0 -89.5 -15.5t-91.5 -45.5v153q90 47 219 47q110 0 178.5 -55.5t68.5 -158.5q0 -108 -62.5 -154t-160.5 -54l-14 -88h-122v184q92 0 136.5 23.5zM140 0v124h140v-124h-140z" />
    <glyph glyph-name="at" unicode="@" horiz-adv-x="838" 
d="M712 614q-79 76 -239 76q-141 0 -239.5 -58.5t-148 -159t-49.5 -225.5q0 -128 49 -229t148.5 -159.5t245.5 -58.5v117q-143 0 -218 83.5t-75 246.5q0 161 75 244t212 83q82 0 124.5 -39t42.5 -113v-17q-14 34 -51 53t-83 19q-91 0 -141.5 -64t-50.5 -175
q0 -112 50.5 -176.5t141.5 -64.5q46 0 83 19.5t51 53.5v-63h151v406q0 125 -79 201zM620 144q-21 -35 -64 -35q-84 0 -84 129q0 128 84 128q43 0 64 -35t21 -93q0 -59 -21 -94z" />
    <glyph glyph-name="A" unicode="A" horiz-adv-x="718" 
d="M500 126h-279l-46 -126h-178l263 676l206 18l255 -685l-174 -18zM451 266l-89 252l-91 -252h180z" />
    <glyph glyph-name="B" unicode="B" horiz-adv-x="691" 
d="M636 493q0 -46 -23 -84t-74 -55q60 -13 88.5 -57t28.5 -100q0 -103 -65 -150t-198 -47h-322v680h301q264 0 264 -187zM437.5 427q20.5 16 20.5 48q0 33 -20.5 49t-67.5 16h-126v-129h126q47 0 67.5 16zM244 140h148q86 0 86 70q0 33 -20 51t-66 19h-148v-140z" />
    <glyph glyph-name="C" unicode="C" horiz-adv-x="668" 
d="M520.5 2.5q-52.5 -12.5 -123.5 -12.5q-109 0 -191 43t-126.5 122.5t-44.5 184.5t45 184.5t128.5 122.5t196.5 43q71 0 123.5 -12.5t102.5 -36.5l-27 -152q-50 32 -94.5 46.5t-96.5 14.5q-93 0 -146.5 -53.5t-53.5 -156.5q0 -102 52 -156t139 -54q56 0 114 15.5t105 46.5
v-153q-50 -24 -102.5 -36.5z" />
    <glyph glyph-name="D" unicode="D" horiz-adv-x="757" 
d="M71 680h263q115 0 199 -44.5t128 -122t44 -173.5q0 -97 -44 -174t-128 -121.5t-199 -44.5h-263v680zM476 193.5q51 53.5 51 146.5t-51 146.5t-142 53.5h-90v-400h90q91 0 142 53.5z" />
    <glyph glyph-name="E" unicode="E" horiz-adv-x="613" 
d="M71 680h489v-140h-316v-124h278l18 -140h-296v-136h326v-140h-499v680z" />
    <glyph glyph-name="F" unicode="F" horiz-adv-x="600" 
d="M71 680h496v-140h-323v-161h284l19 -140h-303v-239h-173v680z" />
    <glyph glyph-name="G" unicode="G" horiz-adv-x="683" 
d="M630 341v-305q-102 -46 -243 -46q-108 0 -187.5 43t-122 122t-42.5 185t42.5 185t122 122t187.5 43q72 0 124.5 -12.5t101.5 -36.5l-18 -152q-51 32 -95.5 46.5t-96.5 14.5q-87 0 -138.5 -54t-51.5 -156t51.5 -156t138.5 -54q35 0 62 8v185z" />
    <glyph glyph-name="H" unicode="H" horiz-adv-x="760" 
d="M689 689v-689h-173v276h-272v-276h-173v671l173 18v-273h272v255z" />
    <glyph glyph-name="I" unicode="I" horiz-adv-x="315" 
d="M71 0v671l173 18v-689h-173z" />
    <glyph glyph-name="J" unicode="J" horiz-adv-x="499" 
d="M434 228q0 -116 -64.5 -177t-198.5 -61q-78 0 -161 17l18 139q26 -7 61.5 -11.5t64.5 -4.5q50 0 78.5 25.5t28.5 76.5v308h-167v140h340v-452z" />
    <glyph glyph-name="K" unicode="K" horiz-adv-x="701" 
d="M340 276h-96v-276h-173v680h173v-265h97l160 265h192l-204 -327l210 -345l-187 -18z" />
    <glyph glyph-name="L" unicode="L" horiz-adv-x="594" 
d="M71 671l173 18v-549h318l19 -140h-510v671z" />
    <glyph glyph-name="M" unicode="M" horiz-adv-x="897" 
d="M389 138l-162 247v-385h-156v680h169l208 -317l209 317h169v-671l-174 -18v394l-166 -247h-97z" />
    <glyph glyph-name="N" unicode="N" horiz-adv-x="768" 
d="M227 0h-156v680h169l301 -412v403l156 18v-689h-169l-301 420v-420z" />
    <glyph glyph-name="O" unicode="O" horiz-adv-x="805" 
d="M203 36.5q-83 46.5 -125.5 126t-42.5 177.5q0 97 42.5 176.5t126 126.5t199.5 47t199 -47t125.5 -126.5t42.5 -176.5q0 -98 -42.5 -177.5t-125.5 -126t-199 -46.5q-117 0 -200 46.5zM261 493q-49 -57 -49 -153t49 -153t141 -57q93 0 141.5 57t48.5 153t-48.5 153
t-141.5 57q-92 0 -141 -57z" />
    <glyph glyph-name="P" unicode="P" horiz-adv-x="673" 
d="M523.5 651q62.5 -29 95.5 -81t33 -122t-33 -122t-95.5 -81t-149.5 -29h-130v-216h-173v680h303q87 0 149.5 -29zM445 381.5q29 25.5 29 66.5q0 42 -29 67t-79 25h-122v-184h122q50 0 79 25.5z" />
    <glyph glyph-name="Q" unicode="Q" horiz-adv-x="805" 
d="M744 198.5q-26 -65.5 -76 -113.5l73 -91l-118 -91l-85 106q-63 -19 -135 -19q-117 0 -200 46.5t-125.5 126t-42.5 177.5q0 97 42.5 176.5t126 126.5t199.5 47t199 -47t125.5 -126.5t42.5 -176.5q0 -76 -26 -141.5zM449 134l-66 101l85 66l91 -94q33 54 33 133
q0 96 -48.5 153.5t-141.5 57.5q-92 0 -141 -57.5t-49 -153.5t49 -153.5t141 -57.5q24 0 47 5z" />
    <glyph glyph-name="R" unicode="R" horiz-adv-x="690" 
d="M337 238h-93v-238h-173v680h305q262 0 262 -221q0 -70 -34.5 -119.5t-96.5 -73.5l163 -258l-178 -18zM362 378q51 0 75 20t24 61t-24 61t-75 20h-118v-162h118z" />
    <glyph glyph-name="S" unicode="S" horiz-adv-x="612" 
d="M155.5 146q64.5 -16 120.5 -16q52 0 84.5 12.5t32.5 45.5q0 26 -27.5 41t-89.5 35q-70 22 -117 45t-81 66.5t-34 112.5q0 102 72 152t181 50q74 0 129 -11.5t129 -37.5l-19 -152q-121 61 -214 61q-49 0 -74.5 -10.5t-25.5 -42.5q0 -25 28 -40t89 -34q71 -22 117 -44
t80 -64.5t34 -110.5q0 -111 -77.5 -162.5t-191.5 -51.5q-72 0 -133.5 10.5t-125.5 38.5v153q49 -30 113.5 -46z" />
    <glyph glyph-name="T" unicode="T" horiz-adv-x="600" 
d="M213 540h-201v140h576l-18 -140h-183v-540h-174v540z" />
    <glyph glyph-name="U" unicode="U" horiz-adv-x="748" 
d="M238 689v-405q0 -80 30.5 -117t105.5 -37t105.5 36.5t30.5 117.5v387l173 18v-443q0 -71 -33.5 -129t-102.5 -92.5t-173 -34.5q-103 0 -172.5 35t-103 93t-33.5 128v425z" />
    <glyph glyph-name="V" unicode="V" horiz-adv-x="727" 
d="M179 689l183 -527l183 518h176l-260 -685h-207l-248 676z" />
    <glyph glyph-name="W" unicode="W" horiz-adv-x="1033" 
d="M827 -5h-199l-116 407l-111 -407h-191l-199 676l165 18l138 -497l123 488h158l133 -488l129 488h165z" />
    <glyph glyph-name="X" unicode="X" horiz-adv-x="698" 
d="M337 229l-149 -229h-186l240 353l-223 318l190 18l144 -212l127 203h187l-216 -326l245 -345l-190 -18z" />
    <glyph glyph-name="Y" unicode="Y" horiz-adv-x="689" 
d="M424 0h-173v204l-245 467l173 18l163 -323l159 314h182l-259 -477v-203z" />
    <glyph glyph-name="Z" unicode="Z" horiz-adv-x="619" 
d="M584 0h-549v111l318 429h-299v140h520v-110l-318 -430h310z" />
    <glyph glyph-name="bracketleft" unicode="[" horiz-adv-x="360" 
d="M65 830h268v-115h-128v-750h129v-115h-269v980z" />
    <glyph glyph-name="backslash" unicode="\" horiz-adv-x="492" 
d="M23 680h132l313 -680h-132z" />
    <glyph glyph-name="bracketright" unicode="]" horiz-adv-x="360" 
d="M26 -150v115h129v750h-128v115h268v-980h-269z" />
    <glyph glyph-name="asciicircum" unicode="^" horiz-adv-x="424" 
d="M383 291l-45 -70l-126 78l-126 -78l-44 70l170 127z" />
    <glyph glyph-name="underscore" unicode="_" horiz-adv-x="566" 
d="M55 -37h456v-123h-456v123z" />
    <glyph glyph-name="a" unicode="a" horiz-adv-x="596" 
d="M588 116v-116q-15 -4 -40.5 -7t-40.5 -3q-57 0 -90 20.5t-45 61.5q-35 -48 -77.5 -65t-92.5 -17q-77 0 -122 41t-45 104q0 85 64.5 126t181.5 41q30 0 84 -6v32q0 60 -101 60q-49 0 -89.5 -9t-88.5 -28l-27 117q99 42 229 42q119 0 180.5 -50.5t61.5 -144.5v-163
q0 -21 7 -30.5t26 -9.5q13 0 25 4zM322.5 122q22.5 9 42.5 28v58q-34 6 -71 6q-90 0 -90 -53q0 -24 18.5 -36t46.5 -12q31 0 53.5 9z" />
    <glyph glyph-name="b" unicode="b" horiz-adv-x="629" 
d="M532.5 440q58.5 -70 58.5 -190t-58.5 -190t-158.5 -70q-96 0 -149 82l-17 -72h-148v712l165 18v-302q53 82 149 82q100 0 158.5 -70zM395 150.5q27 37.5 27 99.5q0 63 -27 100.5t-79 37.5q-49 0 -91 -38v-200q41 -37 91 -37q52 0 79 37.5z" />
    <glyph glyph-name="c" unicode="c" horiz-adv-x="535" 
d="M403.5 121q34.5 8 76.5 28l27 -116q-84 -43 -192 -43q-87 0 -149.5 32t-95 91t-32.5 137q0 79 32.5 137.5t95 90.5t149.5 32q106 0 192 -42l-27 -117q-43 20 -77.5 28.5t-68.5 8.5q-55 0 -90.5 -34.5t-35.5 -103.5t35.5 -103t90.5 -34q35 0 69.5 8z" />
    <glyph glyph-name="d" unicode="d" horiz-adv-x="629" 
d="M404 428v284l165 18v-730h-148l-17 72q-52 -82 -149 -82q-66 0 -115 32t-75.5 90.5t-26.5 137.5t26.5 138t75.5 90.5t115 31.5q97 0 149 -82zM404 150v200q-42 38 -91 38q-52 0 -79 -37.5t-27 -100.5q0 -62 27 -99.5t79 -37.5q50 0 91 37z" />
    <glyph glyph-name="e" unicode="e" horiz-adv-x="597" 
d="M555 205h-342q11 -49 44.5 -75t88.5 -26q37 0 81 9t84 28l27 -108q-36 -19 -93.5 -31t-116.5 -12q-142 0 -216 69.5t-74 190.5q0 78 33 137t95.5 91t146.5 32q126 0 185.5 -69t59.5 -178q0 -35 -3 -58zM393 306q0 41 -20 65.5t-65 24.5q-36 0 -61.5 -21.5t-34.5 -68.5
h181z" />
    <glyph glyph-name="f" unicode="f" horiz-adv-x="412" 
d="M96 500v47q0 85 50 134t151 49q36 0 70 -5.5t58 -14.5l-27 -114q-34 12 -72 12q-65 0 -65 -66v-42h135v-122h-135v-378h-165v378h-77v122h77z" />
    <glyph glyph-name="g" unicode="g" horiz-adv-x="629" 
d="M569 25q0 -119 -77 -187t-220 -68q-59 0 -120.5 12t-97.5 30l27 117q40 -19 91 -28t90 -9q67 0 104.5 28.5t37.5 96.5v75q-52 -82 -149 -82q-65 0 -114.5 31t-76 87.5t-26.5 131.5t26.5 131.5t76 87.5t114.5 31q97 0 149 -82l17 72h148v-475zM404 350q-42 38 -91 38
q-51 0 -78.5 -35.5t-27.5 -92.5q0 -56 27.5 -91.5t78.5 -35.5q50 0 91 37v180z" />
    <glyph glyph-name="h" unicode="h" horiz-adv-x="601" 
d="M502 463q44 -47 44 -141v-322h-165v318q0 33 -19.5 51.5t-56.5 18.5q-43 0 -80 -35v-353h-165v712l165 18v-298q53 78 148 78q85 0 129 -47z" />
    <glyph glyph-name="i" unicode="i" horiz-adv-x="285" 
d="M32 667l112 107l109 -107l-109 -107zM60 0v500h165v-500h-165z" />
    <glyph glyph-name="j" unicode="j" horiz-adv-x="285" 
d="M32 667l112 107l109 -107l-109 -107zM177 -187q-48 -43 -132 -43q-23 0 -52.5 3t-45.5 7l18 117q25 -5 44 -5q51 0 51 50v558h165v-553q0 -91 -48 -134z" />
    <glyph glyph-name="k" unicode="k" horiz-adv-x="592" 
d="M278 194h-53v-194h-165v712l165 18v-413h44l139 183h176l-172 -233l186 -267h-183z" />
    <glyph glyph-name="l" unicode="l" horiz-adv-x="285" 
d="M60 712l165 18v-730h-165v712z" />
    <glyph glyph-name="m" unicode="m" horiz-adv-x="920" 
d="M821 463q44 -47 44 -141v-322h-165v318q0 33 -19.5 51.5t-56.5 18.5q-44 0 -80 -36q1 -9 1 -30v-322h-165v318q0 33 -19.5 51.5t-56.5 18.5q-42 0 -79 -35v-353h-165v500h148l16 -70q25 40 63 60t85 20q124 0 160 -99q26 50 67 74.5t93 24.5q85 0 129 -47z" />
    <glyph glyph-name="n" unicode="n" horiz-adv-x="601" 
d="M502 463q44 -47 44 -141v-322h-165v318q0 33 -19.5 51.5t-56.5 18.5q-43 0 -80 -35v-353h-165v500h148l16 -70q52 80 149 80q85 0 129 -47z" />
    <glyph glyph-name="o" unicode="o" horiz-adv-x="638" 
d="M472.5 474.5q63.5 -35.5 95.5 -94.5t32 -130t-32 -130.5t-95.5 -94.5t-153.5 -35t-153.5 35t-95.5 94.5t-32 130.5t32 130t95.5 94.5t153.5 35.5t153.5 -35.5zM403.5 152.5q27.5 39.5 27.5 97.5t-27.5 98t-84.5 40t-84.5 -40t-27.5 -98t27.5 -97.5t84.5 -39.5t84.5 39.5z
" />
    <glyph glyph-name="p" unicode="p" horiz-adv-x="629" 
d="M225 72v-284l-165 -18v730h148l17 -72q53 82 149 82q100 0 158.5 -70t58.5 -190t-58.5 -190t-158.5 -70q-96 0 -149 82zM225 350v-200q41 -37 91 -37q52 0 79 37.5t27 99.5q0 63 -27 100.5t-79 37.5q-49 0 -91 -38z" />
    <glyph glyph-name="q" unicode="q" horiz-adv-x="629" 
d="M140 22q-49 32 -75.5 90.5t-26.5 137.5t26.5 138t75.5 90.5t115 31.5q97 0 149 -82l17 72h148v-712l-165 -18v302q-52 -82 -149 -82q-66 0 -115 32zM234 350.5q-27 -37.5 -27 -100.5q0 -62 27 -99.5t79 -37.5q50 0 91 37v200q-42 38 -91 38q-52 0 -79 -37.5z" />
    <glyph glyph-name="r" unicode="r" horiz-adv-x="416" 
d="M297 332.5q-47 -12.5 -72 -31.5v-301h-165v500h148l15 -113q26 58 69.5 90.5t93.5 32.5l13 -165q-55 0 -102 -12.5z" />
    <glyph glyph-name="s" unicode="s" horiz-adv-x="510" 
d="M229 326q21 -10 72 -24q54 -14 89.5 -28t61 -42.5t25.5 -75.5q0 -79 -58.5 -122.5t-173.5 -43.5q-60 0 -118 12t-94 30l27 113q40 -19 91 -28t90 -9q67 0 67 41q0 20 -22.5 31t-70.5 23q-54 14 -89.5 28.5t-61 44.5t-25.5 79q0 78 60.5 116.5t165.5 38.5q59 0 117.5 -12
t93.5 -30l-26 -113q-40 19 -91 28t-90 9q-29 0 -45 -10t-16 -27q0 -19 21 -29z" />
    <glyph glyph-name="t" unicode="t" horiz-adv-x="420" 
d="M261 500h134v-122h-134v-212q0 -53 60 -53q19 0 33.5 2.5t32.5 9.5l18 -116q-55 -19 -132 -19q-177 0 -177 172v216h-77v122h77v153l165 27v-180z" />
    <glyph glyph-name="u" unicode="u" horiz-adv-x="601" 
d="M541 500v-500h-148l-16 70q-26 -39 -64 -59.5t-85 -20.5q-85 0 -129 47t-44 141v314l165 18v-327q0 -34 19.5 -52t56.5 -18q44 0 80 34v353h165z" />
    <glyph glyph-name="v" unicode="v" horiz-adv-x="611" 
d="M418 500h179l-218 -506h-147l-218 506h178l118 -300z" />
    <glyph glyph-name="w" unicode="w" horiz-adv-x="849" 
d="M490 500l100 -324l87 324h158l-152 -506h-172l-91 280l-82 -280h-172l-152 506h158l87 -324l91 324h140z" />
    <glyph glyph-name="x" unicode="x" horiz-adv-x="570" 
d="M280 141l-96 -141h-181l188 264l-177 236h184l88 -126l84 126h177l-169 -233l189 -267h-194z" />
    <glyph glyph-name="y" unicode="y" horiz-adv-x="613" 
d="M598 500l-223 -515q-32 -74 -63.5 -119.5t-77.5 -70.5t-115 -25q-21 0 -48 4t-44 9l19 117q38 -8 68 -8q34 0 57 16t42 51l19 38l-218 503h170l127 -308l117 308h170z" />
    <glyph glyph-name="z" unicode="z" horiz-adv-x="512" 
d="M461 403l-222 -280h242v-123h-450v98l222 280h-208v122h416v-97z" />
    <glyph glyph-name="braceleft" unicode="{" horiz-adv-x="366" 
d="M157.5 -107q-72.5 41 -72.5 145q0 29 5 62t6 40q9 54 9 82q0 36 -20.5 52.5t-60.5 16.5v98q40 0 60.5 16.5t20.5 52.5q0 28 -9 82q-1 7 -6 40t-5 62q0 104 72.5 145t176.5 41v-113q-52 0 -70.5 -18t-18.5 -62q0 -27 10 -87q8 -52 8 -73q0 -52 -36.5 -90.5t-105.5 -44.5
q69 -6 105.5 -44.5t36.5 -90.5q0 -21 -8 -73q-10 -60 -10 -87q0 -44 18.5 -62t70.5 -18v-113q-104 0 -176.5 41z" />
    <glyph glyph-name="bar" unicode="|" horiz-adv-x="232" 
d="M65 805h102v-930h-102v930z" />
    <glyph glyph-name="braceright" unicode="}" horiz-adv-x="366" 
d="M281.5 274.5q-20.5 -16.5 -20.5 -52.5q0 -28 9 -82q1 -7 6 -40t5 -62q0 -104 -72 -145t-177 -41v113q52 0 70.5 18t18.5 62q0 27 -10 87q-8 52 -8 73q0 52 36.5 90.5t105.5 44.5q-69 6 -105.5 44.5t-36.5 90.5q0 21 8 73q10 60 10 87q0 44 -18.5 62t-70.5 18v113
q105 0 177 -41t72 -145q0 -29 -5 -62t-6 -40q-9 -54 -9 -82q0 -36 20.5 -52.5t60.5 -16.5v-98q-40 0 -60.5 -16.5z" />
    <glyph glyph-name="asciitilde" unicode="~" horiz-adv-x="504" 
d="M427 279.5q-25 -28.5 -66 -28.5q-31 0 -115 22q-62 15 -77 15q-14 0 -23.5 -10t-9.5 -27h-81q0 80 25 108.5t66 28.5q25 0 107 -20q8 -2 40.5 -9t45.5 -7t22.5 9.5t9.5 26.5h81q0 -80 -25 -108.5z" />
    <glyph glyph-name="exclamdown" unicode="&#xa1;" horiz-adv-x="283" 
d="M211 377h-140v123h140v-123zM228 115v-295h-173v295l34 205h105z" />
    <glyph glyph-name="cent" unicode="&#xa2;" horiz-adv-x="535" 
d="M409 373q-36 15 -76 15q-54 0 -89.5 -34.5t-35.5 -103.5t35.5 -103t89.5 -34q40 0 76.5 15t74.5 49v-133q-23 -20 -59.5 -34t-80.5 -18v-117h-102v121q-99 17 -153.5 84t-54.5 170t54.5 170.5t153.5 83.5v126h102v-122q44 -4 80.5 -18t59.5 -34v-132q-39 34 -75 49z" />
    <glyph glyph-name="sterling" unicode="&#xa3;" horiz-adv-x="662" 
d="M614 0h-571v140h84v124h-84v123h84v93q0 106 70 158t185 52q111 0 224 -49v-152q-53 29 -107.5 45.5t-83.5 16.5q-50 0 -82 -20.5t-32 -67.5v-76h197v-123h-197v-124h313v-140z" />
    <glyph glyph-name="currency" unicode="&#xa4;" horiz-adv-x="723" 
d="M566 535.5q-54 15.5 -109 15.5q-57 0 -99.5 -25t-64.5 -72h174v-81h-198q-1 -11 -1 -33q0 -14 2 -38h197v-81h-171q22 -45 64 -68.5t97 -23.5q54 0 108 16t102 47v-153q-50 -24 -102.5 -36.5t-123.5 -12.5q-130 0 -217 61t-118 170h-71v81h56q-2 24 -2 38q0 11 2 33h-56
v81h69q30 111 118 173.5t219 62.5q71 0 123.5 -12.5t102.5 -36.5v-152q-47 31 -101 46.5z" />
    <glyph glyph-name="yen" unicode="&#xa5;" horiz-adv-x="737" 
d="M608 280v-123h-156v-157h-173v157h-157v123h117l-213 400h183l161 -314l159 314h183l-219 -400h115z" />
    <glyph glyph-name="brokenbar" unicode="&#xa6;" horiz-adv-x="237" 
d="M67 805h103v-380h-103v380zM67 255h103v-380h-103v380z" />
    <glyph glyph-name="section" unicode="&#xa7;" horiz-adv-x="624" 
d="M441 681.5q-56 10.5 -125 10.5q-113 0 -189 -51t-76 -160q0 -60 26 -94t68.5 -50.5t123.5 -35.5q94 -23 159.5 -44.5t135.5 -63.5q6 14 10 30t4 28q0 67 -34.5 105t-80.5 54t-118 30q-61 11 -88.5 22.5t-27.5 35.5q0 32 30.5 43t82.5 11q53 0 112 -15.5t108 -46.5v153
q-65 28 -121 38.5zM180 -189.5q62 -10.5 132 -10.5q113 0 189.5 50.5t76.5 159.5q0 61 -31 96.5t-78 53.5t-135 40q-87 21 -149 42t-120 57q-6 -13 -10 -29t-4 -29q0 -67 34 -105t80.5 -54t118.5 -30q61 -11 88.5 -22.5t27.5 -35.5q0 -32 -31 -43.5t-82 -11.5q-54 0 -119 16
t-114 46v-152q64 -28 126 -38.5z" />
    <glyph glyph-name="copyright" unicode="&#xa9;" horiz-adv-x="475" 
d="M137 307q-46 27 -73 73t-27 100q0 55 27 100.5t73 72.5t100 27q55 0 100.5 -27t72.5 -72.5t27 -100.5q0 -54 -27 -100t-72.5 -73t-100.5 -27q-54 0 -100 27zM329.5 320q42.5 25 67.5 67.5t25 92.5t-25 92.5t-67.5 67.5t-92.5 25t-92.5 -25t-67.5 -67.5t-25 -92.5
t25 -92.5t67.5 -67.5t92.5 -25t92.5 25zM285 361.5q-18 -4.5 -43 -4.5q-57 0 -90 33.5t-33 89.5q0 57 33 90t90 33q25 0 43 -4.5t37 -13.5v-54q-35 22 -74 22q-30 0 -48 -19t-18 -54t18 -54t48 -19q41 0 74 22v-54q-19 -9 -37 -13.5z" />
    <glyph glyph-name="guillemotleft" unicode="&#xab;" horiz-adv-x="547" 
d="M145 250l167 -206h-106l-177 206l177 206h106zM345 250l167 -206h-106l-177 206l177 206h106z" />
    <glyph glyph-name="logicalnot" unicode="&#xac;" horiz-adv-x="561" 
d="M494 142h-123v230h-333v123h456v-353z" />
    <glyph glyph-name="uni00AD" unicode="&#xad;" horiz-adv-x="462" 
d="M53 355h356v-123h-356v123z" />
    <glyph glyph-name="registered" unicode="&#xae;" horiz-adv-x="475" 
d="M137 307q-46 27 -73 73t-27 100q0 55 27 100.5t73 72.5t100 27q55 0 100.5 -27t72.5 -72.5t27 -100.5q0 -54 -27 -100t-72.5 -73t-100.5 -27q-54 0 -100 27zM329.5 320q42.5 25 67.5 67.5t25 92.5t-25 92.5t-67.5 67.5t-92.5 25t-92.5 -25t-67.5 -67.5t-25 -92.5
t25 -92.5t67.5 -67.5t92.5 -25t92.5 25zM347 360l-56 94q20 8 31.5 25.5t11.5 41.5q0 77 -92 77h-96v-238h61v85h24l50 -85h66zM207 549h31q18 0 25.5 -6.5t7.5 -21.5q0 -28 -33 -27h-31v55z" />
    <glyph glyph-name="degree" unicode="&#xb0;" horiz-adv-x="279" 
d="M67.5 516.5q-29.5 29.5 -29.5 71.5q0 43 29.5 72.5t72.5 29.5q42 0 71.5 -29.5t29.5 -72.5t-29 -72t-72 -29t-72.5 29.5zM168.5 559q12.5 12 12.5 29t-12.5 29.5t-29.5 12.5t-29 -12.5t-12 -29.5t12 -29t29 -12t29.5 12z" />
    <glyph glyph-name="plusminus" unicode="&#xb1;" horiz-adv-x="604" 
d="M549 314h-186v-129h-123v129h-186v123h186v129h123v-129h186v-123zM549 152v-123h-495v123h495z" />
    <glyph glyph-name="paragraph" unicode="&#xb6;" horiz-adv-x="701" 
d="M99 284q-68 61 -68 168q0 106 68 167t196 61h143v-680h-131v223h-12q-128 0 -196 61zM499 0v680h123v-680h-123z" />
    <glyph glyph-name="periodcentered" unicode="&#xb7;" horiz-adv-x="243" 
d="M54 177v135h135v-135h-135z" />
    <glyph glyph-name="guillemotright" unicode="&#xbb;" horiz-adv-x="547" 
d="M141 456l176 -206l-176 -206h-107l168 206l-168 206h107zM341 456l176 -206l-176 -206h-107l168 206l-168 206h107z" />
    <glyph glyph-name="questiondown" unicode="&#xbf;" horiz-adv-x="529" 
d="M392 500v-123h-140v123h140zM251 113q-45 -24 -45 -73q0 -42 28 -66.5t79 -24.5q39 0 89.5 15.5t92.5 45.5v-153q-90 -47 -219 -47q-110 0 -178.5 55.5t-68.5 158.5q0 108 62.5 154t160.5 54l13 88h123v-183q-92 0 -137 -24z" />
    <glyph glyph-name="multiply" unicode="&#xd7;" horiz-adv-x="521" 
d="M495 466l-87 87l-148 -147l-147 147l-87 -87l147 -147l-147 -148l87 -87l147 148l148 -148l87 87l-148 148z" />
    <glyph glyph-name="divide" unicode="&#xf7;" horiz-adv-x="546" 
d="M210 448v123h132v-123h-132zM45 380h456v-123h-456v123zM210 67v124h132v-124h-132z" />
    <glyph glyph-name="uni060C" unicode="&#x60c;" horiz-adv-x="277" 
d="M268 310q-18 -47 -31.5 -122t-13.5 -138h-132q6 82 28.5 145.5t60.5 119.5z" />
    <glyph glyph-name="uni061B" unicode="&#x61b;" horiz-adv-x="295" 
d="M57 0v135h134v-135h-134zM274 667q-18 -47 -31.5 -122t-13.5 -138h-132q6 82 28.5 145.5t60.5 119.5z" />
    <glyph glyph-name="uni061F" unicode="&#x61f;" horiz-adv-x="495" 
d="M371 691.5q70 -33.5 129 -90.5l-101 -94q-96 82 -162 82q-29 0 -48 -15t-19 -40q0 -23 20.5 -42t78.5 -56q53 -35 78 -70t29 -87l-84 -33h-79v10q0 25 -19.5 47.5t-72.5 58.5q-56 38 -81.5 77.5t-25.5 97.5q0 56 28 98.5t79 66t117 23.5q63 0 133 -33.5zM252 135h135
v-135h-135v135z" />
    <glyph glyph-name="uni0621" unicode="&#x621;" horiz-adv-x="499" 
d="M485 165l-42 -165h-425v165h95q-35 61 -35 119q0 50 25.5 90.5t69 63t95.5 22.5q43 0 82 -9.5t98 -31.5l-43 -132q-41 15 -64 21t-48 6q-39 0 -60 -20t-22 -56q0 -36 23 -73h251z" />
    <glyph glyph-name="uni0622" unicode="&#x622;" horiz-adv-x="304" 
d="M79 590l156 18v-608h-156v590zM129.5 769.5q14.5 -4.5 33.5 -13.5q40 -19 65 -19q17 0 41 7t39 19l-1 -94q-35 -25 -77 -25q-16 0 -29 4.5t-35 14.5q-20 9 -31.5 13.5t-24.5 4.5q-20 0 -33.5 -10t-16.5 -29h-72q1 63 31 97.5t81 34.5q15 0 29.5 -4.5z" />
    <glyph glyph-name="uni0623" unicode="&#x623;" horiz-adv-x="304" 
d="M79 590l156 18v-608h-156v590zM288 739l-18 -84h-238v84h42q-11 22 -11 49q0 39 28 65t70 26q46 0 90 -20v-76q-38 15 -63 15q-17 0 -27.5 -7.5t-10.5 -20.5q0 -17 11 -31h127z" />
    <glyph glyph-name="uni0624" unicode="&#x624;" horiz-adv-x="559" 
d="M399 476.5q53 -30.5 83.5 -87t30.5 -132.5v-235q0 -124 -108.5 -180.5t-302.5 -56.5l-16 127q139 0 203 25t68 84q-50 -21 -92 -21q-68 0 -120.5 31t-82 87.5t-29.5 130.5q0 73 32.5 132t89 92.5t124.5 33.5q67 0 120 -30.5zM201.5 181.5q28.5 -25.5 74.5 -25.5
q34 0 82 10v80q0 48 -25 75.5t-66 27.5q-39 0 -66.5 -26.5t-27.5 -68.5q0 -47 28.5 -72.5zM414 676l-32 -101h-234v101h50q-15 26 -15 53q0 47 32.5 76.5t82.5 29.5q35 0 78 -21v-89q-42 14 -68 14q-20 0 -32 -8.5t-12 -23.5q0 -18 12 -31h138z" />
    <glyph glyph-name="uni0625" unicode="&#x625;" horiz-adv-x="292" 
d="M67 712l156 18v-730h-156v712zM262 -180l-19 -84h-238v84h43q-11 22 -11 49q0 39 28 65t70 26q46 0 90 -20v-76q-37 15 -63 15q-17 0 -27.5 -7.5t-10.5 -20.5q0 -17 11 -31h127z" />
    <glyph glyph-name="uni0626" unicode="&#x626;" horiz-adv-x="974" 
d="M929 414v-406l-156 -18v339h-57q-41 0 -62.5 -25.5t-21.5 -75.5v-146q0 -148 -73.5 -222.5t-233.5 -74.5q-147 0 -223 67t-76 200q0 103 43 233l126 -34q-28 -89 -28 -153q1 -148 158 -148q79 0 115 35.5t36 117.5v164q0 104 54.5 165.5t155.5 61.5h152zM284 469
l-32 -101h-234v101h50q-15 26 -15 53q0 47 32.5 76.5t82.5 29.5q35 0 78 -21v-89q-42 14 -68 14q-20 0 -32 -8.5t-12 -23.5q0 -18 12 -31h138z" />
    <glyph glyph-name="uni0627" unicode="&#x627;" horiz-adv-x="292" 
d="M67 712l156 18v-730h-156v712z" />
    <glyph glyph-name="uni0628" unicode="&#x628;" horiz-adv-x="818" 
d="M771 507v-297q0 -102 -58.5 -155.5t-175.5 -54.5h-1h-261q-249 0 -249 226q0 75 19 162l134 -16q-10 -67 -10 -98q0 -57 35 -83t110 -26h218q43 0 63.5 24.5t20.5 77.5l-1 221zM317 -154l104 103l104 -103l-103 -103z" />
    <glyph glyph-name="uni0629" unicode="&#x629;" horiz-adv-x="532" 
d="M141.5 24q-55.5 33 -87 91t-31.5 128q0 71 31.5 131t87 96t125.5 36q69 0 124 -36t86.5 -96t31.5 -131q0 -70 -31 -128t-86.5 -91t-124.5 -33q-70 0 -125.5 33zM335 176q27 28 27 70q0 43 -27 73.5t-68 30.5t-69 -30.5t-28 -73.5q0 -42 27.5 -70t69.5 -28q41 0 68 28z
M346 567l-80 78l-78 -78l-104 104l103 103l79 -78l78 78l104 -103z" />
    <glyph glyph-name="uni062A" unicode="&#x62a;" horiz-adv-x="818" 
d="M771 507v-297q0 -102 -58.5 -155.5t-175.5 -54.5h-1h-261q-249 0 -249 226q0 75 19 162l134 -16q-10 -67 -10 -98q0 -57 35 -83t110 -26h218q43 0 63.5 24.5t20.5 77.5l-1 221zM472 450l-80 78l-78 -78l-104 104l103 103l79 -78l78 78l104 -103z" />
    <glyph glyph-name="uni062B" unicode="&#x62b;" horiz-adv-x="818" 
d="M771 507v-297q0 -102 -58.5 -155.5t-175.5 -54.5h-1h-261q-249 0 -249 226q0 75 19 162l134 -16q-10 -67 -10 -98q0 -57 35 -83t110 -26h218q43 0 63.5 24.5t20.5 77.5l-1 221zM378 630l-66 67l65 67l68 -67zM457 452l-80 78l-78 -78l-104 104l103 103l79 -78l78 78
l104 -103z" />
    <glyph glyph-name="uni062C" unicode="&#x62c;" horiz-adv-x="614" 
d="M526 -82l42 -133q-72 -29 -142 -44.5t-130 -15.5q-79 0 -140.5 28.5t-96 83.5t-34.5 130q0 124 98.5 200.5t293.5 101.5q-91 64 -140.5 87.5t-97.5 23.5q-22 0 -41 -3t-54 -11l-30 139q84 34 144 34q46 0 94.5 -18.5t118.5 -62t187 -128.5l-51 -160q-113 0 -197 -22
t-129.5 -62t-45.5 -93q0 -52 39 -81t116 -29q75 0 196 35zM263 27l104 103l104 -103l-103 -103z" />
    <glyph glyph-name="uni062D" unicode="&#x62d;" horiz-adv-x="614" 
d="M526 -82l42 -133q-72 -29 -142 -44.5t-130 -15.5q-79 0 -140.5 28.5t-96 83.5t-34.5 130q0 124 98.5 200.5t293.5 101.5q-91 64 -140.5 87.5t-97.5 23.5q-22 0 -41 -3t-54 -11l-30 139q84 34 144 34q46 0 94.5 -18.5t118.5 -62t187 -128.5l-51 -160q-113 0 -197 -22
t-129.5 -62t-45.5 -93q0 -52 39 -81t116 -29q75 0 196 35z" />
    <glyph glyph-name="uni062E" unicode="&#x62e;" horiz-adv-x="614" 
d="M526 -82l42 -133q-72 -29 -142 -44.5t-130 -15.5q-79 0 -140.5 28.5t-96 83.5t-34.5 130q0 124 98.5 200.5t293.5 101.5q-91 64 -140.5 87.5t-97.5 23.5q-22 0 -41 -3t-54 -11l-30 139q84 34 144 34q46 0 94.5 -18.5t118.5 -62t187 -128.5l-51 -160q-113 0 -197 -22
t-129.5 -62t-45.5 -93q0 -52 39 -81t116 -29q75 0 196 35zM320 652l104 103l104 -103l-103 -103z" />
    <glyph glyph-name="uni062F" unicode="&#x62f;" horiz-adv-x="533" 
d="M10 165h250q41 0 62 20.5t21 56.5v32q-1 40 -31 64.5t-78 24.5h-68v160h104q105 0 167.5 -61.5t62.5 -173.5v-78q-3 -210 -242 -210h-224z" />
    <glyph glyph-name="uni0630" unicode="&#x630;" horiz-adv-x="533" 
d="M10 165h250q41 0 62 20.5t21 56.5v32q-1 40 -31 64.5t-78 24.5h-68v160h104q105 0 167.5 -61.5t62.5 -173.5v-78q-3 -210 -242 -210h-224zM133 690l104 103l104 -103l-103 -103z" />
    <glyph glyph-name="uni0631" unicode="&#x631;" horiz-adv-x="330" 
d="M-15 -88q65 0 102.5 28.5t37.5 89.5l-1 458l156 19v-484q0 -127 -69 -182.5t-215 -55.5z" />
    <glyph glyph-name="uni0632" unicode="&#x632;" horiz-adv-x="330" 
d="M-15 -88q65 0 102.5 28.5t37.5 89.5l-1 458l156 19v-484q0 -127 -69 -182.5t-215 -55.5zM97 657l104 103l104 -103l-103 -103z" />
    <glyph glyph-name="uni0633" unicode="&#x633;" horiz-adv-x="1333" 
d="M1285 507v-297q0 -103 -53.5 -156.5t-156.5 -53.5q-83 0 -166 56q-61 -56 -161 -56q-62 0 -119 38q-14 -121 -92 -187t-212 -66q-147 0 -223 67t-76 200q0 103 43 233l126 -34q-28 -89 -28 -153q1 -148 158 -148q152 0 151 165v373l156 19v-315q48 -27 100 -27
q43 0 63.5 24.5t20.5 77.5l-1 120l156 18v-195q0 -13 -2 -33q37 -12 77 -12q41 0 62 26t21 76v221z" />
    <glyph glyph-name="uni0634" unicode="&#x634;" horiz-adv-x="1333" 
d="M1285 507v-297q0 -103 -53.5 -156.5t-156.5 -53.5q-83 0 -166 56q-61 -56 -161 -56q-62 0 -119 38q-14 -121 -92 -187t-212 -66q-147 0 -223 67t-76 200q0 103 43 233l126 -34q-28 -89 -28 -153q1 -148 158 -148q152 0 151 165v373l156 19v-315q48 -27 100 -27
q43 0 63.5 24.5t20.5 77.5l-1 120l156 18v-195q0 -13 -2 -33q37 -12 77 -12q41 0 62 26t21 76v221zM893 683l-66 67l65 67l68 -67zM972 505l-80 78l-78 -78l-104 104l103 103l79 -78l78 78l104 -103z" />
    <glyph glyph-name="uni0635" unicode="&#x635;" horiz-adv-x="1272" 
d="M1127.5 506.5q52.5 -29.5 81.5 -83t29 -122.5q0 -67 -28 -168l-113 -133h-475q-23 -103 -99 -159t-198 -56q-147 0 -223 67t-76 200q0 103 43 233l126 -34q-28 -89 -28 -153q1 -148 158 -148q152 0 151 165v373l156 19v-88q140 66 221.5 91.5t154.5 25.5
q67 0 119.5 -29.5zM1081 286q0 40 -30.5 65t-77.5 25q-53 0 -101.5 -12t-190.5 -56l-49 -15v-128h429q20 74 20 121z" />
    <glyph glyph-name="uni0636" unicode="&#x636;" horiz-adv-x="1272" 
d="M1127.5 506.5q52.5 -29.5 81.5 -83t29 -122.5q0 -67 -28 -168l-113 -133h-475q-23 -103 -99 -159t-198 -56q-147 0 -223 67t-76 200q0 103 43 233l126 -34q-28 -89 -28 -153q1 -148 158 -148q152 0 151 165v373l156 19v-88q140 66 221.5 91.5t154.5 25.5
q67 0 119.5 -29.5zM1081 286q0 40 -30.5 65t-77.5 25q-53 0 -101.5 -12t-190.5 -56l-49 -15v-128h429q20 74 20 121zM654 693l104 103l104 -103l-103 -103z" />
    <glyph glyph-name="uni0637" unicode="&#x637;" horiz-adv-x="939" 
d="M795 506.5q52 -29.5 81 -83t29 -122.5q0 -65 -27 -168l-114 -133h-548h-76h-105l-23 165h128v547l157 18v-311q142 66 223.5 91.5t154.5 25.5q68 0 120 -29.5zM748 286q0 40 -30 65t-78 25q-41 0 -77.5 -6.5t-88.5 -21.5t-177 -55v-128h431q20 74 20 121z" />
    <glyph glyph-name="uni0638" unicode="&#x638;" horiz-adv-x="939" 
d="M795 506.5q52 -29.5 81 -83t29 -122.5q0 -65 -27 -168l-114 -133h-548h-76h-105l-23 165h128v547l157 18v-311q142 66 223.5 91.5t154.5 25.5q68 0 120 -29.5zM748 286q0 40 -30 65t-78 25q-41 0 -77.5 -6.5t-88.5 -21.5t-177 -55v-128h431q20 74 20 121zM395 693
l104 103l104 -103l-103 -103z" />
    <glyph glyph-name="uni0639" unicode="&#x639;" horiz-adv-x="586" 
d="M580 -217q-76 -31 -138 -44.5t-124 -13.5q-124 0 -199 57.5t-75 160.5q0 129 123 203q-79 89 -79 189q0 58 29 104.5t81.5 72.5t120.5 26q38 0 83.5 -10t109.5 -32l-43 -132q-87 22 -125 22q-52 0 -83.5 -25.5t-31.5 -65.5q0 -24 12.5 -51t34.5 -51l39 11l194 50l6 -147
l-173 -38q-84 -19 -118.5 -46t-34.5 -60q0 -81 149 -81q42 0 95 9t104 25z" />
    <glyph glyph-name="uni063A" unicode="&#x63a;" horiz-adv-x="586" 
d="M580 -217q-76 -31 -138 -44.5t-124 -13.5q-124 0 -199 57.5t-75 160.5q0 129 123 203q-79 89 -79 189q0 58 29 104.5t81.5 72.5t120.5 26q38 0 83.5 -10t109.5 -32l-43 -132q-87 22 -125 22q-52 0 -83.5 -25.5t-31.5 -65.5q0 -24 12.5 -51t34.5 -51l39 11l194 50l6 -147
l-173 -38q-84 -19 -118.5 -46t-34.5 -60q0 -81 149 -81q42 0 95 9t104 25zM203 704l104 103l104 -103l-103 -103z" />
    <glyph glyph-name="uni0640" unicode="&#x640;" horiz-adv-x="194" 
d="M204 155v-144q0 -5 -3 -8t-7 -3h-194q-4 0 -7 3t-3 8v144q0 10 10 10h194q10 0 10 -10z" />
    <glyph glyph-name="uni0641" unicode="&#x641;" horiz-adv-x="939" 
d="M658 580l-105 103l104 103l104 -103zM784 484q56 -31 88 -86.5t32 -124.5q0 -82 -35 -144t-99.5 -95.5t-151.5 -33.5h-230h-113q-250 0 -250 226q0 71 20 162l134 -16q-11 -74 -11 -98q0 -57 35 -83t110 -26h137q-30 63 -30 117q0 67 31 120t85.5 83t120.5 30
q71 0 127 -31zM713.5 194.5q34.5 29.5 34.5 79.5q0 40 -26.5 66t-66.5 26t-68 -28.5t-28 -69.5q0 -45 28 -103h32q60 0 94.5 29.5z" />
    <glyph glyph-name="uni0642" unicode="&#x642;" horiz-adv-x="797" 
d="M638.5 474q53.5 -30 83.5 -86.5t30 -132.5v-196q0 -138 -90 -206t-296 -68q-161 0 -250.5 69.5t-89.5 197.5q0 103 43 233l126 -34q-28 -89 -28 -153q1 -87 56 -128t164 -41q84 0 142 24t74 71q-54 -24 -100 -24q-67 0 -119 30.5t-81 86.5t-29 130q0 73 32.5 132t88 92.5
t123.5 33.5q67 -1 120.5 -31zM442.5 180.5q28.5 -24.5 74.5 -24.5q36 0 80 11v78q0 49 -25 75.5t-68 26.5q-38 0 -64 -26.5t-26 -68.5q0 -47 28.5 -71.5zM595 581l-80 78l-78 -78l-104 104l103 103l79 -78l78 78l104 -103z" />
    <glyph glyph-name="uni0643" unicode="&#x643;" horiz-adv-x="851" 
d="M777 730v-518q0 -212 -241 -212h-261q-249 0 -249 226q0 75 19 162l134 -16q-10 -67 -10 -98q0 -57 35 -83t110 -26h222h1v0q43 0 63 25t20 78l1 444zM511 352h-235v102h50q-14 26 -14 53q0 47 32.5 76.5t81.5 29.5q35 0 78 -21v-89q-42 14 -68 14q-20 0 -32 -8.5
t-12 -24.5q0 -15 12 -30h138z" />
    <glyph glyph-name="uni0644" unicode="&#x644;" horiz-adv-x="684" 
d="M632 738v-608v-37q0 -146 -79.5 -227t-227.5 -81q-147 0 -223 67t-76 200q0 103 43 233l126 -34q-28 -89 -28 -153q1 -148 158 -148q152 0 151 165v373v232z" />
    <glyph glyph-name="uni0645" unicode="&#x645;" horiz-adv-x="710" 
d="M568.5 470q55.5 -36 87 -96t31.5 -131q0 -70 -31 -128t-86.5 -91t-125.5 -33q-79 0 -139 42t-87 112q-38 -15 -38 -76v-321l-156 -18v344q0 113 45.5 171.5t140.5 68.5q21 84 84.5 138t149.5 54q69 0 124.5 -36zM512.5 176.5q27.5 28.5 27.5 69.5q0 43 -27.5 73.5
t-68.5 30.5t-69 -30.5t-28 -73.5q0 -42 27.5 -70t69.5 -28q41 0 68.5 28.5z" />
    <glyph glyph-name="uni0646" unicode="&#x646;" horiz-adv-x="684" 
d="M102 -148q-76 67 -76 200q0 103 43 233l126 -34q-28 -89 -28 -153q1 -148 158 -148q152 0 151 165v373l156 19v-414q0 -146 -79.5 -227t-227.5 -81q-147 0 -223 67zM199 502l104 103l104 -103l-103 -103z" />
    <glyph glyph-name="uni0647" unicode="&#x647;" horiz-adv-x="532" 
d="M141.5 24q-55.5 33 -87 91t-31.5 128q0 71 31.5 131t87 96t125.5 36q69 0 124 -36t86.5 -96t31.5 -131q0 -70 -31 -128t-86.5 -91t-124.5 -33q-70 0 -125.5 33zM335 176q27 28 27 70q0 43 -27 73.5t-68 30.5t-69 -30.5t-28 -73.5q0 -42 27.5 -70t69.5 -28q41 0 68 28z
" />
    <glyph glyph-name="uni0648" unicode="&#x648;" horiz-adv-x="559" 
d="M399 476.5q53 -30.5 83.5 -87t30.5 -132.5v-235q0 -124 -108.5 -180.5t-302.5 -56.5l-16 127q139 0 203 25t68 84q-50 -21 -92 -21q-68 0 -120.5 31t-82 87.5t-29.5 130.5q0 73 32.5 132t89 92.5t124.5 33.5q67 0 120 -30.5zM201.5 181.5q28.5 -25.5 74.5 -25.5
q34 0 82 10v80q0 48 -25 75.5t-66 27.5q-39 0 -66.5 -26.5t-27.5 -68.5q0 -47 28.5 -72.5z" />
    <glyph glyph-name="uni0649" unicode="&#x649;" horiz-adv-x="974" 
d="M929 414v-406l-156 -18v339h-57q-41 0 -62.5 -25.5t-21.5 -75.5v-146q0 -148 -73.5 -222.5t-233.5 -74.5q-147 0 -223 67t-76 200q0 103 43 233l126 -34q-28 -89 -28 -153q1 -148 158 -148q79 0 115 35.5t36 117.5v164q0 104 54.5 165.5t155.5 61.5h152z" />
    <glyph glyph-name="uni064A" unicode="&#x64a;" horiz-adv-x="974" 
d="M929 414v-406l-156 -18v339h-57q-41 0 -62.5 -25.5t-21.5 -75.5v-146q0 -148 -73.5 -222.5t-233.5 -74.5q-147 0 -223 67t-76 200q0 103 43 233l126 -34q-28 -89 -28 -153q1 -148 158 -148q79 0 115 35.5t36 117.5v164q0 104 54.5 165.5t155.5 61.5h152zM461 -461l-73 71
l-71 -71l-105 103l103 103l73 -71l71 71l105 -103z" />
    <glyph glyph-name="uni064B" unicode="&#x64b;" 
d="M145 702l-273 -56l-13 64l273 56zM166 593l-272 -56l-14 63l274 56z" />
    <glyph glyph-name="uni064C" unicode="&#x64c;" 
d="M151.5 774q31.5 -32 31.5 -76q0 -47 -26 -77t-75 -40l-221 -42l-39 60q24 12 33 24.5t9 27.5q0 17 -13 28t-39 13l15 61q51 -4 81 -29.5t30 -63.5q0 -19 -10 -38l53 11q-15 32 -15 63q0 48 31.5 79t79.5 31q43 0 74.5 -32zM99.5 667.5q12.5 11.5 12.5 27.5t-11.5 27.5
t-27.5 11.5q-17 0 -28.5 -12.5t-11.5 -30.5q0 -22 14 -44l19 4q21 5 33.5 16.5z" />
    <glyph glyph-name="uni064D" unicode="&#x64d;" 
d="M145 -90l-273 -56l-13 64l273 56zM166 -199l-272 -56l-14 63l274 56z" />
    <glyph glyph-name="uni064E" unicode="&#x64e;" 
d="M162 635l-278 -54l-15 74l279 55z" />
    <glyph glyph-name="uni064F" unicode="&#x64f;" 
d="M145.5 776.5q31.5 -32.5 31.5 -75.5q0 -48 -26.5 -78.5t-74.5 -39.5l-203 -40l-13 70l114 23q-14 32 -14 60q0 49 31.5 81t79.5 32q43 0 74.5 -32.5zM93 670q12 11 12 27t-11 27.5t-27 11.5q-17 0 -28.5 -12.5t-11.5 -30.5q0 -21 14 -43l19 4q21 5 33 16z" />
    <glyph glyph-name="uni0650" unicode="&#x650;" 
d="M162 -135l-278 -54l-15 74l279 55z" />
    <glyph glyph-name="uni0651" unicode="&#x651;" 
d="M168 636q0 -40 -24.5 -64t-64.5 -24q-39 0 -64 33q-9 -26 -30.5 -42t-53.5 -16q-77 0 -91 91l-10 64l71 10l9 -57q8 -37 31 -37q13 0 21 8.5t8 25.5q0 6 -2 20l-10 49l67 12l11 -53q3 -18 12 -27t21 -9q13 1 20.5 8.5t7.5 20.5q0 22 -17 67l70 27q18 -58 18 -107z" />
    <glyph glyph-name="uni0652" unicode="&#x652;" 
d="M86.5 730q28.5 -32 28.5 -86q0 -52 -32 -83.5t-85 -31.5q-50 0 -77 30t-27 85t31 86.5t82 31.5t79.5 -32zM-24 677.5q-11 -11.5 -11 -31.5q0 -22 10 -33.5t28 -11.5t29 11t11 32t-11 33t-29 12q-16 0 -27 -11.5z" />
    <glyph glyph-name="uni0653" unicode="&#x653;" 
d="M-14.5 749.5q14.5 -4.5 33.5 -13.5q40 -19 65 -19q17 0 41 7t39 19l-1 -94q-35 -25 -77 -25q-16 0 -29 4.5t-35 14.5q-20 9 -31.5 13.5t-24.5 4.5q-20 0 -33.5 -10t-16.5 -29h-72q1 63 31 97.5t81 34.5q15 0 29.5 -4.5z" />
    <glyph glyph-name="uni0654" unicode="&#x654;" 
d="M143 725l-18 -84h-238v84h42q-11 22 -11 49q0 39 28 65t70 26q46 0 90 -20v-76q-38 15 -63 15q-17 0 -27.5 -7.5t-10.5 -20.5q0 -17 11 -31h127z" />
    <glyph glyph-name="uni0655" unicode="&#x655;" 
d="M130 -173l-19 -84h-238v84h43q-11 22 -11 49q0 39 28 65t70 26q46 0 90 -20v-76q-37 15 -63 15q-17 0 -27.5 -7.5t-10.5 -20.5q0 -17 11 -31h127z" />
    <glyph glyph-name="uni0656" unicode="&#x656;" 
d="M-44 -214v72q0 51 -12 90h96q14 -39 14 -90v-92z" />
    <glyph glyph-name="uni0660" unicode="&#x660;" horiz-adv-x="313" 
d="M277 299l-120 -119l-121 119l120 120z" />
    <glyph glyph-name="uni0661" unicode="&#x661;" horiz-adv-x="320" 
d="M255 0h-156l-35 655l156 25z" />
    <glyph glyph-name="uni0662" unicode="&#x662;" horiz-adv-x="490" 
d="M485 515h-262l26 -515h-156l-29 556l150 124h312z" />
    <glyph glyph-name="uni0663" unicode="&#x663;" horiz-adv-x="657" 
d="M631 551q0 -96 -39.5 -142.5t-112.5 -46.5q-27 0 -55 10t-52 27q-34 -37 -86 -37q-27 0 -50 10l19 -372h-156l-35 655l156 25l9 -165q14 -7 31 -7q51 0 48 68l-5 79l109 25l6 -100l1 -27q0 -12 -2 -34q19 -11 39 -11q51 0 47 68l-4 79l125 25l6 -100q1 -10 1 -29z" />
    <glyph glyph-name="uni0664" unicode="&#x664;" horiz-adv-x="486" 
d="M362 151q47 7 101 23l-17 -156q-107 -31 -187 -31q-116 0 -174.5 42.5t-58.5 127.5q0 115 129 184q-114 41 -114 159q0 53 26.5 96.5t73 68.5t104.5 25q67 0 186 -46l-43 -133q-43 14 -69 20t-48 6q-43 0 -67.5 -17t-24.5 -46q0 -32 34.5 -53.5t84.5 -21.5q18 0 37 3
l58 15l30 -114l-182 -49q-34 -8 -52 -25t-18 -39q0 -23 22.5 -34.5t70.5 -11.5q51 0 98 7z" />
    <glyph glyph-name="uni0665" unicode="&#x665;" horiz-adv-x="584" 
d="M415.5 628q59.5 -52 97 -148.5t37.5 -222.5q0 -81 -32 -142t-91 -94.5t-138 -33.5q-76 0 -134 33t-89.5 93.5t-31.5 141.5q0 112 34 210t93.5 156.5t130.5 58.5q64 0 123.5 -52zM230.5 488.5q-27.5 -34.5 -44 -89.5t-16.5 -114q0 -70 31 -105.5t89 -35.5q61 0 92.5 35.5
t31.5 105.5q0 64 -15.5 118.5t-44 87t-65.5 32.5q-31 0 -58.5 -34.5z" />
    <glyph glyph-name="uni0666" unicode="&#x666;" horiz-adv-x="464" 
d="M400 555l-29 -555h-157l27 515h-278l39 165h247z" />
    <glyph glyph-name="uni0667" unicode="&#x667;" horiz-adv-x="560" 
d="M593 680l-234 -681l-143 -14l-249 695h182l135 -477l128 477h181z" />
    <glyph glyph-name="uni0668" unicode="&#x668;" horiz-adv-x="560" 
d="M411 0l-135 475l-128 -475h-181l234 681l143 14l249 -695h-182z" />
    <glyph glyph-name="uni0669" unicode="&#x669;" horiz-adv-x="562" 
d="M498 566l-29 -566h-156l11 222q-44 -14 -81 -14q-66 0 -118 28t-81.5 79t-29.5 119q0 76 32.5 134t89.5 90t130 32l82 1zM332 376l7 149h-86q-44 0 -71 -24.5t-27 -59.5t26 -55t75 -20q40 0 76 10z" />
    <glyph glyph-name="uni066A" unicode="&#x66a;" horiz-adv-x="639" 
d="M108 0l313 680h132l-313 -680h-132zM35 603l104 103l104 -103l-103 -103zM396 125l104 103l104 -103l-103 -103z" />
    <glyph glyph-name="uni066B" unicode="&#x66b;" horiz-adv-x="296" 
d="M7 -125q18 47 31.5 122t13.5 138h132q-6 -82 -28 -145.5t-60 -119.5z" />
    <glyph glyph-name="uni066C" unicode="&#x66c;" horiz-adv-x="296" 
d="M9 -125q18 47 31.5 122t13.5 138h132q-6 -82 -28 -145.5t-60 -119.5z" />
    <glyph glyph-name="uni066D" unicode="&#x66d;" horiz-adv-x="363" 
d="M342 190l-37 -64l-75 44v-87h-73v87l-75 -44l-37 64l75 43l-75 43l37 64l75 -43v86h73v-86l75 43l37 -64l-75 -43z" />
    <glyph glyph-name="uni066E" unicode="&#x66e;" horiz-adv-x="818" 
d="M771 507v-297q0 -102 -58.5 -155.5t-175.5 -54.5h-1h-261q-249 0 -249 226q0 75 19 162l134 -16q-10 -67 -10 -98q0 -57 35 -83t110 -26h218q43 0 63.5 24.5t20.5 77.5l-1 221z" />
    <glyph glyph-name="uni066F" unicode="&#x66f;" horiz-adv-x="797" 
d="M638.5 474q53.5 -30 83.5 -86.5t30 -132.5v-196q0 -138 -90 -206t-296 -68q-161 0 -250.5 69.5t-89.5 197.5q0 103 43 233l126 -34q-28 -89 -28 -153q1 -87 56 -128t164 -41q84 0 142 24t74 71q-54 -24 -100 -24q-67 0 -119 30.5t-81 86.5t-29 130q0 73 32.5 132t88 92.5
t123.5 33.5q67 -1 120.5 -31zM442.5 180.5q28.5 -24.5 74.5 -24.5q36 0 80 11v78q0 49 -25 75.5t-68 26.5q-38 0 -64 -26.5t-26 -68.5q0 -47 28.5 -71.5z" />
    <glyph glyph-name="uni0670" unicode="&#x670;" 
d="M42 762v-72q0 -51 12 -90h-96q-14 39 -14 90v92z" />
    <glyph glyph-name="uni06A1" unicode="&#x6a1;" horiz-adv-x="939" 
d="M784.5 483.5q56.5 -31.5 88.5 -86.5t32 -124q0 -82 -35 -144t-100 -95.5t-152 -33.5h-230h-113q-249 0 -249 226q0 75 19 162l134 -16q-10 -67 -10 -98q0 -57 35 -83t110 -26h136q-30 63 -30 117q0 67 31 120t85.5 83t121.5 30q70 0 126.5 -31.5zM713.5 194.5
q34.5 29.5 34.5 79.5q0 40 -26.5 66t-65.5 26q-41 0 -69 -28.5t-28 -69.5q0 -47 29 -103h31q60 0 94.5 29.5z" />
    <glyph glyph-name="uni06A4" unicode="&#x6a4;" horiz-adv-x="939" 
d="M660 758l-66 67l65 67l68 -67zM581 580l-104 104l103 103l79 -77l78 77l104 -103l-102 -104l-80 78zM784 484q56 -31 88 -86.5t32 -124.5q0 -82 -35 -144t-99.5 -95.5t-151.5 -33.5h-230h-113q-250 0 -250 226q0 71 20 162l134 -16q-11 -74 -11 -98q0 -57 35 -83t110 -26
h137q-30 63 -30 117q0 67 31 120t85.5 83t120.5 30q71 0 127 -31zM713.5 194.5q34.5 29.5 34.5 79.5q0 40 -26.5 66t-66.5 26t-68 -28.5t-28 -69.5q0 -45 28 -103h32q60 0 94.5 29.5z" />
    <glyph glyph-name="uni06BA" unicode="&#x6ba;" horiz-adv-x="684" 
d="M102 -148q-76 67 -76 200q0 103 43 233l126 -34q-28 -89 -28 -153q1 -148 158 -148q152 0 151 165v373l156 19v-414q0 -146 -79.5 -227t-227.5 -81q-147 0 -223 67z" />
    <glyph glyph-name="endash" unicode="&#x2013;" horiz-adv-x="662" 
d="M53 355h556v-123h-556v123z" />
    <glyph glyph-name="emdash" unicode="&#x2014;" horiz-adv-x="962" 
d="M53 355h856v-123h-856v123z" />
    <glyph glyph-name="quoteleft" unicode="&#x2018;" horiz-adv-x="263" 
d="M220 676q-18 -48 -32 -123t-13 -137h-133q6 82 28.5 145.5t60.5 119.5z" />
    <glyph glyph-name="quoteright" unicode="&#x2019;" horiz-adv-x="262" 
d="M43 421q18 47 31.5 122t13.5 138h132q-6 -82 -28.5 -145.5t-60.5 -119.5z" />
    <glyph glyph-name="quotesinglbase" unicode="&#x201a;" horiz-adv-x="236" 
d="M9 -125q18 47 31.5 122t13.5 138h132q-6 -82 -28 -145.5t-60 -119.5z" />
    <glyph glyph-name="quotedblleft" unicode="&#x201c;" horiz-adv-x="446" 
d="M220 676q-18 -48 -32 -123t-13 -137h-133q6 82 28.5 145.5t60.5 119.5zM404 676q-18 -48 -32 -123t-13 -137h-133q6 82 28.5 145.5t60.5 119.5z" />
    <glyph glyph-name="quotedblright" unicode="&#x201d;" horiz-adv-x="447" 
d="M43 421q18 47 31.5 122t13.5 138h132q-6 -82 -28.5 -145.5t-60.5 -119.5zM227 421q18 47 31.5 122t13.5 138h132q-6 -82 -28.5 -145.5t-60.5 -119.5z" />
    <glyph glyph-name="quotedblbase" unicode="&#x201e;" horiz-adv-x="420" 
d="M9 -125q18 47 31.5 122t13.5 138h132q-6 -82 -28 -145.5t-60 -119.5zM193 -125q18 47 31.5 122t13.5 138h132q-6 -82 -28 -145.5t-60 -119.5z" />
    <glyph glyph-name="dagger" unicode="&#x2020;" horiz-adv-x="698" 
d="M408 383l18 -583h-153l18 584l-241 -18v135l241 -18l-18 197h153l-18 -197l240 18v-136z" />
    <glyph glyph-name="daggerdbl" unicode="&#x2021;" horiz-adv-x="698" 
d="M426 257l-18 -108h240v-136l-240 18l18 -231h-153l18 231l-241 -17v135h241l-18 108l18 109h-241v135l241 -18l-18 197h153l-18 -197l240 18v-136h-240z" />
    <glyph glyph-name="bullet" unicode="&#x2022;" horiz-adv-x="339" 
d="M78 162v166h183v-166h-183z" />
    <glyph glyph-name="ellipsis" unicode="&#x2026;" horiz-adv-x="627" 
d="M55 0v124h132v-124h-132zM247 0v124h132v-124h-132zM439 0v124h132v-124h-132z" />
    <glyph glyph-name="perthousand" unicode="&#x2030;" horiz-adv-x="1209" 
d="M74.5 373.5q-41.5 51.5 -41.5 132.5q0 80 41.5 132t122.5 52t123 -52t42 -132q0 -81 -42 -132.5t-123 -51.5t-122.5 51.5zM392 370l147 310h131l-189 -310h-89zM126 506q0 -109 71 -109t71 109q0 110 -71 110t-71 -110zM516.5 43.5q-41.5 51.5 -41.5 132.5q0 80 41.5 132
t122.5 52t123 -52t42 -132q0 -81 -42 -132.5t-123 -51.5t-122.5 51.5zM891 43.5q-42 51.5 -42 132.5q0 80 42 132t123 52t122.5 -52t41.5 -132q0 -81 -41.5 -132.5t-122.5 -51.5t-123 51.5zM441 310l-146 -310h-131l188 310h89zM568 176q0 -109 71 -109t71 109
q0 110 -71 110t-71 -110zM943 176q0 -109 71 -109q70 0 70 109q0 110 -70 110q-71 0 -71 -110z" />
    <glyph glyph-name="guilsinglleft" unicode="&#x2039;" horiz-adv-x="347" 
d="M145 250l167 -206h-106l-177 206l177 206h106z" />
    <glyph glyph-name="guilsinglright" unicode="&#x203a;" horiz-adv-x="347" 
d="M141 456l176 -206l-176 -206h-107l168 206l-168 206h107z" />
    <glyph glyph-name="fraction" unicode="&#x2044;" horiz-adv-x="506" 
d="M506 680l-383 -680h-123l382 680h124z" />
    <glyph glyph-name="Euro" unicode="&#x20ac;" horiz-adv-x="723" 
d="M566 535.5q-54 15.5 -109 15.5q-57 0 -99.5 -25t-64.5 -72h174v-81h-198q-1 -11 -1 -33q0 -14 2 -38h197v-81h-171q22 -45 64 -68.5t97 -23.5q54 0 108 16t102 47v-153q-50 -24 -102.5 -36.5t-123.5 -12.5q-130 0 -217 61t-118 170h-71v81h56q-2 24 -2 38q0 11 2 33h-56
v81h69q30 111 118 173.5t219 62.5q71 0 123.5 -12.5t102.5 -36.5v-152q-47 31 -101 46.5z" />
    <glyph glyph-name="trademark" unicode="&#x2122;" horiz-adv-x="744" 
d="M140 617h-86v64h251v-64h-87v-238h-78v238zM489 379l-75 183v-183h-71v302h95l70 -166l73 166h95v-302h-77v183l-79 -183h-31z" />
    <glyph glyph-name="partialdiff" unicode="&#x2202;" horiz-adv-x="645" 
d="M184 680.5q44 9.5 106 9.5q108 0 178 -50.5t102.5 -130.5t32.5 -172q0 -154 -70.5 -250.5t-217.5 -96.5q-86 0 -149 31t-96 85.5t-33 123.5q0 59 27 105t76 72t112 26q55 0 102 -22t79 -65q0 107 -40 156t-121 49q-50 0 -92 -13.5t-100 -47.5v153q60 28 104 37.5z
M377.5 300.5q-29.5 19.5 -65.5 19.5q-43 0 -72 -26t-29 -70q0 -43 29 -69t73 -26q53 0 79.5 35t34.5 87q-20 30 -49.5 49.5z" />
    <glyph glyph-name="emptyset" unicode="&#x2205;" horiz-adv-x="600" 
d="M541 367.5q24 -54.5 24 -117.5q0 -71 -30 -130.5t-90 -94.5t-145 -35q-57 0 -103 17l-35 -57h-90l56 93q-46 35 -69.5 89.5t-23.5 117.5q0 71 30 130t89.5 94.5t145.5 35.5q57 0 103 -17l35 57h90l-57 -93q46 -35 70 -89.5zM300 408q-104 0 -104 -158q0 -41 13 -73
l137 221q-19 10 -46 10zM300 92q104 0 104 158q0 41 -13 73l-137 -221q19 -10 46 -10z" />
    <glyph glyph-name="product" unicode="&#x220f;" horiz-adv-x="749" 
d="M247 0h-173v680h601v-680h-174v540h-254v-540z" />
    <glyph glyph-name="summation" unicode="&#x2211;" horiz-adv-x="604" 
d="M554 680v-140h-304l166 -200l-166 -200h304v-140h-504v136l169 204l-169 204v136h504z" />
    <glyph glyph-name="minus" unicode="&#x2212;" horiz-adv-x="572" 
d="M58 380h456v-123h-456v123z" />
    <glyph glyph-name="radical" unicode="&#x221a;" horiz-adv-x="793" 
d="M542 -5h-207l-93 262h-216v123h345l72 -218l178 518h179z" />
    <glyph glyph-name="infinity" unicode="&#x221e;" horiz-adv-x="782" 
d="M647 565.5q42 -35.5 63.5 -94.5t21.5 -128q0 -117 -47.5 -190.5t-139.5 -73.5q-54 0 -94 33.5t-60 95.5q-21 -62 -60.5 -95.5t-94.5 -33.5q-91 0 -139 73.5t-48 190.5q0 69 21.5 128t64 94.5t101.5 35.5q49 0 89.5 -32t65.5 -97q25 65 65.5 97t89.5 32q59 0 101 -35.5z
M308 269.5q19 27.5 31 81.5q-13 41 -33.5 63.5t-52.5 22.5q-31 0 -51 -25t-20 -72q0 -45 20 -71.5t53 -26.5q34 0 53 27.5zM579.5 268.5q20.5 26.5 20.5 71.5q0 47 -20 72t-51 25q-32 0 -53 -22.5t-34 -63.5q12 -54 31 -81.5t53 -27.5q33 0 53.5 26.5z" />
    <glyph glyph-name="integral" unicode="&#x222b;" horiz-adv-x="390" 
d="M153.5 650q40.5 40 128.5 40q53 0 94 -10v-119q-28 7 -56 7q-22 0 -32 -10.5t-10 -35.5v-559q0 -83 -41 -123t-129 -40q-51 0 -94 10v119q28 -7 57 -7q21 0 31.5 10.5t10.5 35.5v559q0 83 40.5 123z" />
    <glyph glyph-name="approxequal" unicode="&#x2248;" horiz-adv-x="518" 
d="M435 395.5q-25 -28.5 -66 -28.5q-28 0 -116 21q-62 15 -77 15q-13 0 -22.5 -9.5t-9.5 -26.5h-82q0 79 25.5 108t65.5 29q25 0 107 -20q70 -17 86 -17q13 0 22.5 10t9.5 27h82q0 -80 -25 -108.5zM435 163.5q-25 -28.5 -66 -28.5q-28 0 -116 21q-62 15 -77 15
q-13 0 -22.5 -9.5t-9.5 -26.5h-82q0 79 25.5 108t65.5 29q25 0 107 -20q70 -17 86 -17q13 0 22.5 10t9.5 27h82q0 -80 -25 -108.5z" />
    <glyph glyph-name="notequal" unicode="&#x2260;" horiz-adv-x="557" 
d="M310 265h196v-123h-251l-67 -142h-133l67 142h-72v123h127l50 107h-177v123h233l85 185h133l-86 -185h91v-123h-146z" />
    <glyph glyph-name="lessequal" unicode="&#x2264;" horiz-adv-x="562" 
d="M53 288v175l455 92v-123l-321 -57l321 -56v-123zM53 29v114h455v-114h-455z" />
    <glyph glyph-name="greaterequal" unicode="&#x2265;" horiz-adv-x="562" 
d="M53 319l321 56l-321 57v123l455 -92v-175l-455 -92v123zM53 143h455v-114h-455v114z" />
    <glyph glyph-name="lozenge" unicode="&#x25ca;" horiz-adv-x="587" 
d="M365 -10h-146l-187 350l187 350h146l191 -350zM296 503l-85 -163l85 -162l84 162z" />
    <glyph glyph-name="uniFBB2" unicode="&#xfbb2;" 
d="M-104 658l104 103l104 -103l-103 -103z" />
    <glyph glyph-name="uniFBB3" unicode="&#xfbb3;" 
d="M-104 -170l104 103l104 -103l-103 -103z" />
    <glyph glyph-name="uniFBB4" unicode="&#xfbb4;" 
d="M80 540l-80 78l-78 -78l-104 104l103 103l79 -78l78 78l104 -103z" />
    <glyph glyph-name="uniFBB5" unicode="&#xfbb5;" 
d="M73 -291l-73 71l-71 -71l-105 103l103 103l73 -71l71 71l105 -103z" />
    <glyph glyph-name="uniFBB6" unicode="&#xfbb6;" 
d="M1 723l-66 67l65 67l68 -67zM80 545l-80 78l-78 -78l-104 104l103 103l79 -78l78 78l104 -103z" />
    <glyph glyph-name="uniFBB9" unicode="&#xfbb9;" 
d="M182 -178l-102 -103l-80 77l-78 -77l-104 103l103 103l79 -77l78 77zM-1 -246l66 -64l-65 -65l-63 65z" />
    <glyph glyph-name="uniFD3E" unicode="&#xfd3e;" horiz-adv-x="378" 
d="M157.5 -107q-72.5 41 -72.5 145q0 29 5 62t6 40q9 54 9 82q0 36 -20.5 52.5t-60.5 16.5v98q40 0 60.5 16.5t20.5 52.5q0 28 -9 82q-1 7 -6 40t-5 62q0 104 72.5 145t176.5 41v-113q-52 0 -70.5 -18t-18.5 -62q0 -27 10 -87q8 -52 8 -73q0 -52 -36.5 -90.5t-105.5 -44.5
q69 -6 105.5 -44.5t36.5 -90.5q0 -21 -8 -73q-10 -60 -10 -87q0 -44 18.5 -62t70.5 -18v-113q-104 0 -176.5 41z" />
    <glyph glyph-name="uniFD3F" unicode="&#xfd3f;" horiz-adv-x="378" 
d="M283.5 274.5q-20.5 -16.5 -20.5 -52.5q0 -28 9 -82q1 -7 6 -40t5 -62q0 -104 -72 -145t-177 -41v113q52 0 70.5 18t18.5 62q0 27 -10 87q-8 52 -8 73q0 52 36.5 90.5t105.5 44.5q-69 6 -105.5 44.5t-36.5 90.5q0 21 8 73q10 60 10 87q0 44 -18.5 62t-70.5 18v113
q105 0 177 -41t72 -145q0 -29 -5 -62t-6 -40q-9 -54 -9 -82q0 -36 20.5 -52.5t60.5 -16.5v-98q-40 0 -60.5 -16.5z" />
    <glyph glyph-name="uni0627.short" horiz-adv-x="304" 
d="M79 590l156 18v-608h-156v590z" />
    <glyph glyph-name="uniFE8E.short" horiz-adv-x="315" 
d="M75 212l-1 378l156 18l1 -340q0 -53 20 -78t63 -25q10 0 10 -10l1 -144q0 -5 -3 -8t-7 -3q-240 0 -240 212z" />
    <glyph glyph-name="uni066E.medi.alt" horiz-adv-x="387" 
d="M397 155v-144q0 -5 -3 -8t-7 -3q-40 0 -81 19.5t-76 55.5q-69 -75 -230 -75q-4 0 -7 3t-3 8l2 144q0 10 10 10q60 0 90 24.5t30 77.5l-1 120l156 18v-195v-13q50 -32 110 -32q10 0 10 -10z" />
    <glyph glyph-name="uni066E.init.alt" horiz-adv-x="371" 
d="M-7 3q-3 3 -3 8l2 144q0 10 10 10h84q42 0 62.5 24.5t20.5 77.5l-1 221l156 19v-297q0 -210 -240 -210h-84q-4 0 -7 3z" />
    <glyph glyph-name="dotcenterar" 
d="M-104 260l104 103l104 -103l-103 -103z" />
    <glyph glyph-name="waslaar" 
d="M119 642.5q28 -26.5 28 -64.5q0 -47 -42 -74t-114 -27q-35 0 -74 8t-75 22l21 67l42 -13q46 58 79.5 83t66.5 25q40 0 68 -26.5zM62 577q0 9 -7.5 15.5t-18.5 6.5q-14 0 -30 -10.5t-44 -37.5q12 -1 31 -1q69 0 69 27z" />
    <glyph glyph-name="hamzacenterar" 
d="M153 584l-32 -101h-234v101h50q-15 26 -15 53q0 47 32.5 76.5t82.5 29.5q35 0 78 -21v-89q-42 14 -68 14q-20 0 -32 -8.5t-12 -23.5q0 -18 12 -31h138z" />
    <glyph glyph-name="hamzaaboveDammaar" 
d="M143 725l-18 -84h-238v84h42q-11 22 -11 49q0 39 28 65t70 26q46 0 90 -20v-76q-38 15 -63 15q-17 0 -27.5 -7.5t-10.5 -20.5q0 -17 11 -31h127zM124.5 1121.5q31.5 -32.5 31.5 -75.5q0 -48 -26.5 -78.5t-74.5 -39.5l-203 -40l-13 70l114 23q-14 32 -14 60q0 49 31.5 81
t79.5 32q43 0 74.5 -32.5zM72 1015q12 11 12 27t-11 27.5t-27 11.5q-17 0 -28.5 -12.5t-11.5 -30.5q0 -21 14 -43l19 4q21 5 33 16z" />
    <glyph glyph-name="hamzaaboveDammatanar" 
d="M143 725l-18 -84h-238v84h42q-11 22 -11 49q0 39 28 65t70 26q46 0 90 -20v-76q-38 15 -63 15q-17 0 -27.5 -7.5t-10.5 -20.5q0 -17 11 -31h127zM134.5 1122q31.5 -32 31.5 -76q0 -47 -26 -77t-75 -40l-221 -42l-39 60q24 12 33 24.5t9 27.5q0 17 -13 28t-39 13l15 61
q51 -4 81 -29.5t30 -63.5q0 -19 -10 -38l53 11q-15 32 -15 63q0 48 31.5 79t79.5 31q43 0 74.5 -32zM82.5 1015.5q12.5 11.5 12.5 27.5t-11.5 27.5t-27.5 11.5q-17 0 -28.5 -12.5t-11.5 -30.5q0 -22 14 -44l19 4q21 5 33.5 16.5z" />
    <glyph glyph-name="hamzaaboveFathaar" 
d="M143 725l-18 -84h-238v84h42q-11 22 -11 49q0 39 28 65t70 26q46 0 90 -20v-76q-38 15 -63 15q-17 0 -27.5 -7.5t-10.5 -20.5q0 -17 11 -31h127zM140 944l-278 -54l-15 74l279 55z" />
    <glyph glyph-name="hamzaaboveFathatanar" 
d="M143 725l-18 -84h-238v84h42q-11 22 -11 49q0 39 28 65t70 26q46 0 90 -20v-76q-38 15 -63 15q-17 0 -27.5 -7.5t-10.5 -20.5q0 -17 11 -31h127zM116 1053l-273 -56l-13 64l273 56zM137 944l-272 -56l-14 63l274 56z" />
    <glyph glyph-name="hamzaaboveSukunar" 
d="M143 725l-18 -84h-238v84h42q-11 22 -11 49q0 39 28 65t70 26q46 0 90 -20v-76q-38 15 -63 15q-17 0 -27.5 -7.5t-10.5 -20.5q0 -17 11 -31h127zM92.5 1106q28.5 -32 28.5 -86q0 -52 -32 -83.5t-85 -31.5q-50 0 -77 30t-27 85t31 86.5t82 31.5t79.5 -32zM-18 1053.5
q-11 -11.5 -11 -31.5q0 -22 10 -33.5t28 -11.5t29 11t11 32t-11 33t-29 12q-16 0 -27 -11.5z" />
    <glyph glyph-name="hamzabelowKasraar" 
d="M149 -395l-278 -54l-15 74l279 55zM130 -203l-19 -84h-238v84h43q-11 22 -11 49q0 39 28 65t70 26q46 0 90 -20v-76q-37 15 -63 15q-17 0 -27.5 -7.5t-10.5 -20.5q0 -17 11 -31h127z" />
    <glyph glyph-name="hamzabelowKasratanar" 
d="M130 -203l-19 -84h-238v84h43q-11 22 -11 49q0 39 28 65t70 26q46 0 90 -20v-76q-37 15 -63 15q-17 0 -27.5 -7.5t-10.5 -20.5q0 -17 11 -31h127zM147 -379l-273 -56l-13 64l273 56zM168 -488l-272 -56l-14 63l274 56z" />
    <glyph glyph-name="shaddaAlefabovear" 
d="M168 636q0 -40 -24.5 -64t-64.5 -24q-39 0 -64 33q-9 -26 -30.5 -42t-53.5 -16q-77 0 -91 91l-10 64l71 10l9 -57q8 -37 31 -37q13 0 21 8.5t8 25.5q0 6 -2 20l-10 49l67 12l11 -53q3 -18 12 -27t21 -9q13 1 20.5 8.5t7.5 20.5q0 22 -17 67l70 27q18 -58 18 -107zM21 924
v-72q0 -51 12 -90h-96q-14 39 -14 90v92z" />
    <glyph glyph-name="shaddaDammaar" 
d="M168 636q0 -40 -24.5 -64t-64.5 -24q-39 0 -64 33q-9 -26 -30.5 -42t-53.5 -16q-77 0 -91 91l-10 64l71 10l9 -57q8 -37 31 -37q13 0 21 8.5t8 25.5q0 6 -2 20l-10 49l67 12l11 -53q3 -18 12 -27t21 -9q13 1 20.5 8.5t7.5 20.5q0 22 -17 67l70 27q18 -58 18 -107z
M105.5 986.5q31.5 -32.5 31.5 -75.5q0 -48 -26.5 -78.5t-74.5 -39.5l-203 -40l-13 70l114 23q-14 32 -14 60q0 49 31.5 81t79.5 32q43 0 74.5 -32.5zM53 880q12 11 12 27t-11 27.5t-27 11.5q-17 0 -28.5 -12.5t-11.5 -30.5q0 -21 14 -43l19 4q21 5 33 16z" />
    <glyph glyph-name="shaddaDammatanar" 
d="M168 636q0 -40 -24.5 -64t-64.5 -24q-39 0 -64 33q-9 -26 -30.5 -42t-53.5 -16q-77 0 -91 91l-10 64l71 10l9 -57q8 -37 31 -37q13 0 21 8.5t8 25.5q0 6 -2 20l-10 49l67 12l11 -53q3 -18 12 -27t21 -9q13 1 20.5 8.5t7.5 20.5q0 22 -17 67l70 27q18 -58 18 -107z
M124.5 986q31.5 -32 31.5 -76q0 -47 -26 -77t-75 -40l-221 -42l-39 60q24 12 33 24.5t9 27.5q0 17 -13 28t-39 13l15 61q51 -4 81 -29.5t30 -63.5q0 -19 -10 -38l53 11q-15 32 -15 63q0 48 31.5 79t79.5 31q43 0 74.5 -32zM72.5 879.5q12.5 11.5 12.5 27.5t-11.5 27.5
t-27.5 11.5q-17 0 -28.5 -12.5t-11.5 -30.5q0 -22 14 -44l19 4q21 5 33.5 16.5z" />
    <glyph glyph-name="shaddaFathaar" 
d="M168 636q0 -40 -24.5 -64t-64.5 -24q-39 0 -64 33q-9 -26 -30.5 -42t-53.5 -16q-77 0 -91 91l-10 64l71 10l9 -57q8 -37 31 -37q13 0 21 8.5t8 25.5q0 6 -2 20l-10 49l67 12l11 -53q3 -18 12 -27t21 -9q13 1 20.5 8.5t7.5 20.5q0 22 -17 67l70 27q18 -58 18 -107z
M113 808l-278 -54l-15 74l279 55z" />
    <glyph glyph-name="shaddaFathatanar" 
d="M168 636q0 -40 -24.5 -64t-64.5 -24q-39 0 -64 33q-9 -26 -30.5 -42t-53.5 -16q-77 0 -91 91l-10 64l71 10l9 -57q8 -37 31 -37q13 0 21 8.5t8 25.5q0 6 -2 20l-10 49l67 12l11 -53q3 -18 12 -27t21 -9q13 1 20.5 8.5t7.5 20.5q0 22 -17 67l70 27q18 -58 18 -107zM88 917
l-273 -56l-13 64l273 56zM109 808l-272 -56l-14 63l274 56z" />
    <glyph glyph-name="shaddaKasraar" 
d="M168 636q0 -40 -24.5 -64t-64.5 -24q-39 0 -64 33q-9 -26 -30.5 -42t-53.5 -16q-77 0 -91 91l-10 64l71 10l9 -57q8 -37 31 -37q13 0 21 8.5t8 25.5q0 6 -2 20l-10 49l67 12l11 -53q3 -18 12 -27t21 -9q13 1 20.5 8.5t7.5 20.5q0 22 -17 67l70 27q18 -58 18 -107z
M183 441l-278 -54l-15 74l279 55z" />
    <glyph glyph-name="shaddaKasratanar" 
d="M168 636q0 -40 -24.5 -64t-64.5 -24q-39 0 -64 33q-9 -26 -30.5 -42t-53.5 -16q-77 0 -91 91l-10 64l71 10l9 -57q8 -37 31 -37q13 0 21 8.5t8 25.5q0 6 -2 20l-10 49l67 12l11 -53q3 -18 12 -27t21 -9q13 1 20.5 8.5t7.5 20.5q0 22 -17 67l70 27q18 -58 18 -107z
M177 448l-273 -56l-13 64l273 56zM198 339l-272 -56l-14 63l274 56z" />
    <glyph glyph-name="terminal1" horiz-adv-x="547" 
d="M207 372q-11 -74 -11 -98q0 -57 35 -83t110 -26h223q10 0 10 -10v-144q0 -5 -3 -8t-7 -3h-261q-250 0 -250 226q0 71 20 162z" />
    <glyph glyph-name="terminal2" horiz-adv-x="528" 
d="M209 424q-15 -94 -15 -140q0 -61 34.5 -90t111.5 -29h220q10 0 10 -10v-144q0 -5 -3 -8t-7 -3h-259q-127 0 -189.5 59t-62.5 179q0 84 26 202z" />
    <glyph glyph-name="terminal1.alt" horiz-adv-x="459" 
d="M203 372q-11 -65 -11 -98q0 -57 35 -83t110 -26h100q10 0 10 -10v-144q0 -5 -3 -8t-7 -3h-139q-249 0 -249 226q0 77 20 162z" />
    <glyph glyph-name="terminal3" horiz-adv-x="385" 
d="M400 -60v-144q0 -5 -3 -8t-7 -3h-357l-33 165h390q10 0 10 -10z" />
    <glyph glyph-name="terminal4" horiz-adv-x="385" 
d="M353 -215h-358q-4 0 -7 3t-3 8v144q0 10 10 10h390z" />
    <glyph glyph-name="waslear.alt" horiz-adv-x="218" 
d="M147 177q31 -12 71 -12q10 0 10 -10v-144q0 -5 -3 -8t-7 -3q-63 0 -114 32.5t-85 92.5l67 89q30 -25 61 -37z" />
    </font>
</defs>
</svg>
